<svg width="50" height="50" viewBox="0 0 50 50" fill="none" xmlns="http://www.w3.org/2000/svg">
<mask id="mask0_7_2665" style="mask-type:luminance" maskUnits="userSpaceOnUse" x="0" y="0" width="50" height="50">
<path d="M49.3312 0.372559H0.536255V49.1675H49.3312V0.372559Z" fill="white"/>
</mask>
<g mask="url(#mask0_7_2665)">
<path d="M48.7789 29.9519C45.9171 43.1207 32.9276 51.4768 19.7588 48.6221C6.58994 45.7674 -1.75892 32.7707 1.09576 19.6019C3.95761 6.43308 16.9471 -1.92296 30.1159 0.931723C43.2848 3.7864 51.6408 16.7831 48.7861 29.9519" fill="#FFB600"/>
<path d="M24.8282 44.6487C23.7523 44.8209 22.6693 45.0289 21.5791 45.2441C22.6693 45.4234 23.7954 45.5166 24.9358 45.5166C27.4462 45.5166 29.8562 45.0719 32.0797 44.2542C29.6267 44.0893 27.2454 44.3045 24.8211 44.6559" fill="black"/>
<path d="M39.4697 9.97665C38.6234 9.14464 37.7053 8.38434 36.7298 7.71012C32.5769 6.53382 28.7468 6.75617 24.8306 7.31563C20.2545 8.06158 15.5421 9.28809 10.4352 9.95513C9.75383 10.6222 9.12265 11.3323 8.54167 12.0854C14.581 11.3394 19.9819 9.59651 25.0959 8.83622C29.8442 8.07592 34.4848 7.99703 39.4697 9.97665Z" fill="black"/>
<path d="M42.2599 13.3623C41.7865 12.645 41.2701 11.9637 40.7178 11.3181C34.9439 8.51365 29.9661 8.66428 24.8306 9.39588C19.652 10.2422 14.3012 11.6983 8.40539 12.2649C7.91048 12.9248 7.45144 13.6062 7.02826 14.3234C13.6844 13.7138 19.5587 11.7341 25.0959 10.9165C30.7192 10.0199 36.1847 10.0701 42.2599 13.3695" fill="black"/>
<path d="M43.9661 33.0283C44.1024 32.7127 44.2315 32.3971 44.3535 32.0815C36.9657 27.1396 31.0125 27.1683 24.8298 28.0577C18.7259 29.0547 12.3925 30.898 5.19846 31.1347C5.41363 31.7946 5.6575 32.4473 5.93006 33.0713C13.0452 32.5907 19.2567 30.439 25.0951 29.5783C31.242 28.5956 37.2024 28.7463 43.9733 33.0354" fill="black"/>
<path d="M24.8304 42.5758C22.3558 42.9774 19.8454 43.5226 17.2561 44.0462C18.2531 44.4407 19.2788 44.7634 20.3475 45.0073C21.9613 44.6487 23.5465 44.3259 25.0957 44.0964C27.8644 43.6517 30.5899 43.4437 33.3729 43.7306C34.0901 43.4078 34.793 43.0492 35.4673 42.6547C31.7949 41.8514 28.3521 42.0737 24.8375 42.583" fill="black"/>
<path d="M34.9861 6.62738C33.5802 5.84558 32.0812 5.22873 30.5032 4.79121C28.6025 4.78404 26.7304 4.9777 24.8369 5.24308C21.2219 5.83123 17.5352 6.72063 13.6262 7.39485C12.5862 8.07624 11.6035 8.84371 10.7069 9.69724C15.8855 8.85805 20.6051 7.42354 25.1023 6.76366C28.4016 6.24007 31.6436 6.03923 34.9932 6.62738" fill="black"/>
<path d="M44.604 31.3728C44.7116 31.05 44.812 30.7201 44.9053 30.3901C37.2593 25.0681 31.1627 25.0824 24.8293 25.9862C18.5748 27.0119 12.0765 28.9198 4.64571 29.0776C4.78916 29.7446 4.9613 30.4045 5.16213 31.05C12.5929 30.6842 19.041 28.4033 25.0875 27.5068C31.428 26.4954 37.5678 26.6819 44.604 31.3799" fill="black"/>
<path d="M45.4601 27.814C45.5103 27.4553 45.5533 27.0895 45.5892 26.7237C37.6205 20.9211 31.3516 20.9068 24.8318 21.8392C18.4482 22.8792 11.8208 24.8517 4.20351 24.9378C4.20351 25.612 4.24654 26.279 4.31109 26.9317C12.1077 26.7022 18.814 24.2851 25.09 23.3598C31.6816 22.3054 38.058 22.5565 45.4529 27.814" fill="black"/>
<path d="M45.6504 25.8775C45.6719 25.5117 45.6791 25.1459 45.6791 24.7801C45.6791 24.7586 45.6791 24.7443 45.6791 24.7227C37.6673 18.8556 31.377 18.8341 24.8284 19.7665C18.4735 20.8065 11.8676 22.7646 4.29338 22.865C4.236 23.4962 4.20731 24.1346 4.20731 24.7801C4.20731 24.8088 4.20731 24.8375 4.20731 24.8662C12.0469 24.6582 18.7891 22.2195 25.0938 21.2871C31.7428 20.2255 38.1694 20.4909 45.6504 25.8847" fill="black"/>
<path d="M45.43 21.5747C45.3582 21.1157 45.2722 20.6566 45.1717 20.2048C37.4039 14.6962 31.2355 14.6962 24.8304 15.6143C18.705 16.6185 12.3429 18.469 5.113 18.6914C4.91216 19.3441 4.74002 20.0111 4.60374 20.6925C12.2712 20.4128 18.8987 18.0458 25.0886 17.1277C31.673 16.0734 38.0422 16.3244 45.43 21.5676" fill="black"/>
<path d="M44.8983 19.1283C44.7549 18.6119 44.5827 18.1026 44.4034 17.6005C36.9941 12.6228 31.0266 12.6586 24.8295 13.5409C18.9193 14.5092 12.8011 16.2664 5.87958 16.5892C5.59985 17.2419 5.34881 17.9161 5.13364 18.6047C12.5788 18.2389 19.0341 15.958 25.0877 15.0614C31.5143 14.0358 37.7329 14.2438 44.8983 19.1283Z" fill="black"/>
<path d="M45.0977 29.6358C45.1766 29.2987 45.2555 28.9544 45.32 28.6029C37.4732 22.9868 31.2761 22.9797 24.828 23.9049C18.4803 24.9449 11.8815 26.8959 4.32167 27.0035C4.3934 27.6777 4.50098 28.3376 4.63009 28.9903C12.2904 28.7105 18.9035 26.3436 25.0934 25.4255C31.5774 24.3855 37.8534 24.615 45.1048 29.6358" fill="black"/>
<path d="M43.9234 16.4169C43.6581 15.8145 43.364 15.2335 43.0484 14.6668C36.256 10.5641 30.647 10.643 24.8301 11.4751C19.2283 12.3931 13.4329 14.0213 6.94889 14.4588C6.57592 15.1115 6.23164 15.7929 5.93039 16.4887C13.0456 16.0081 19.257 13.8563 25.0955 12.9885C31.228 12.013 37.1741 12.1564 43.9234 16.4169Z" fill="black"/>
<path d="M24.829 30.1315C18.9475 31.0926 12.8508 32.8427 5.97231 33.1727C6.25921 33.8182 6.58197 34.4565 6.92626 35.0662C13.6254 34.4637 19.5213 32.4697 25.0872 31.6449C30.9974 30.6981 36.7354 30.8057 43.1907 34.6215C43.3557 34.3203 43.5135 34.0118 43.6569 33.6962C36.5848 29.2062 30.8109 29.2636 24.8218 30.1243" fill="black"/>
<path d="M24.8292 32.2047C19.2418 33.1156 13.4607 34.7438 7.0054 35.1885C7.3712 35.8196 7.77287 36.4221 8.19605 37.0103C14.3716 36.293 19.8801 34.4927 25.0946 33.7253C30.7179 32.8215 36.1905 32.8789 42.2657 36.1783C42.4594 35.877 42.653 35.5758 42.8323 35.2674C36.1332 31.2938 30.5816 31.3798 24.8292 32.2047Z" fill="black"/>
<path d="M24.8287 36.3494C20.0948 37.1241 15.2174 38.408 9.90257 39.0535C10.4405 39.6201 11.0071 40.1509 11.6025 40.653C16.4296 39.7994 20.8622 38.494 25.0941 37.87C29.9714 37.0882 34.7268 37.0237 39.8695 39.1683C40.1564 38.8742 40.429 38.5729 40.6944 38.2573C34.9276 35.4672 29.957 35.6107 24.8287 36.3494Z" fill="black"/>
<path d="M24.8271 34.2767C19.6198 35.1303 14.2404 36.6007 8.3015 37.1529C8.7462 37.7554 9.23393 38.3292 9.74318 38.8744C15.3019 38.0639 20.3227 36.4931 25.0925 35.7902C30.3786 34.9438 35.5214 34.9366 41.1662 37.6765C41.4029 37.3825 41.6252 37.0812 41.8476 36.7728C35.5859 33.3658 30.2997 33.4806 24.8271 34.2696" fill="black"/>
<path d="M28.2412 4.30396C27.1653 4.13182 26.0607 4.03857 24.9346 4.03857C21.0686 4.03857 17.4537 5.10011 14.3551 6.93629C18.1279 6.14013 21.6711 5.19336 25.0853 4.69128C26.1396 4.51914 27.194 4.39003 28.2412 4.30396Z" fill="black"/>
<path d="M24.8275 40.5035C21.4062 41.063 17.9131 41.8878 14.2408 42.5477C15.0011 43.0067 15.79 43.4156 16.6149 43.7742C19.5556 43.1072 22.3673 42.4258 25.0929 42.0241C28.8154 41.4288 32.4662 41.2495 36.2677 42.1532C36.7411 41.8448 37.193 41.522 37.6377 41.1777C33.1261 39.7002 29.0306 39.9082 24.8275 40.5035Z" fill="black"/>
<path d="M24.8295 38.4302C20.6766 39.1116 16.4233 40.1803 11.8544 40.8688C12.4856 41.3853 13.1526 41.8658 13.8412 42.3033C17.8076 41.4857 21.5158 40.4815 25.0878 39.9507C29.463 39.255 33.7379 39.1259 38.2781 40.6537C38.6296 40.3524 38.981 40.044 39.3109 39.7212C34.1252 37.5766 29.5419 37.7559 24.8224 38.4302" fill="black"/>
<path d="M45.6524 23.8044C45.6309 23.3812 45.6022 22.9652 45.5592 22.5564C37.6048 16.7681 31.3431 16.7538 24.8305 17.6862C18.5545 18.7119 12.0418 20.6341 4.5895 20.7776C4.46039 21.4375 4.36715 22.1045 4.3026 22.7787C12.1063 22.5564 18.8199 20.1321 25.0958 19.1996C31.7448 18.1381 38.1786 18.4035 45.6596 23.7972" fill="black"/>
</g>
</svg>
