<svg width="50" height="51" viewBox="0 0 50 51" fill="none" xmlns="http://www.w3.org/2000/svg">
<mask id="mask0_0_217" style="mask-type:luminance" maskUnits="userSpaceOnUse" x="0" y="0" width="50" height="51">
<path d="M50 0.816406H0V50.8164H50V0.816406Z" fill="white"/>
</mask>
<g mask="url(#mask0_0_217)">
<path d="M49.4341 31.1263C46.5016 44.6203 33.1913 53.1827 19.6972 50.2575C6.2032 47.3323 -2.35185 34.0147 0.573326 20.5206C3.50586 7.0266 16.8162 -1.5358 30.3102 1.38938C43.8043 4.31456 52.3667 17.6322 49.4415 31.1263" fill="#FFB600"/>
<path d="M24.8919 46.1857C23.7895 46.3621 22.6797 46.5753 21.5625 46.7958C22.6797 46.9795 23.8336 47.0751 25.0022 47.0751C27.5746 47.0751 30.0441 46.6194 32.3225 45.7815C29.8089 45.6125 27.3688 45.833 24.8846 46.1931" fill="black"/>
<path d="M39.895 10.6571C39.0278 9.80457 38.087 9.0255 37.0874 8.33463C32.832 7.12928 28.9072 7.35712 24.8943 7.93039C20.2052 8.69476 15.3764 9.95156 10.1434 10.6351C9.44522 11.3186 8.79845 12.0462 8.20312 12.8179C14.3916 12.0536 19.9259 10.2676 25.1662 9.48853C30.0317 8.70946 34.787 8.62861 39.895 10.6571Z" fill="black"/>
<path d="M42.7541 14.1267C42.269 13.3918 41.7398 12.6935 41.1739 12.0321C35.2574 9.15834 30.1567 9.31268 24.8943 10.0624C19.5878 10.9296 14.1049 12.4216 8.06349 13.0022C7.55636 13.6784 7.08598 14.3766 6.65234 15.1116C13.4729 14.4869 19.4923 12.4584 25.1662 11.6205C30.9284 10.7018 36.5289 10.7532 42.7541 14.1341" fill="black"/>
<path d="M44.5025 34.2785C44.6421 33.9551 44.7744 33.6318 44.8994 33.3084C37.3292 28.2444 31.2289 28.2738 24.8935 29.1852C18.6389 30.2068 12.1491 32.0957 4.77734 32.3382C4.99783 33.0144 5.24772 33.6832 5.52701 34.3226C12.8179 33.8302 19.1828 31.6253 25.1654 30.7433C31.4641 29.7364 37.5717 29.8908 44.5098 34.2859" fill="black"/>
<path d="M24.8941 44.0615C22.3584 44.4731 19.7861 45.0317 17.1328 45.5682C18.1544 45.9724 19.2054 46.3032 20.3005 46.5531C21.9542 46.1856 23.5785 45.8549 25.166 45.6197C28.003 45.164 30.7959 44.9508 33.6476 45.2448C34.3826 44.9141 35.1028 44.5466 35.7937 44.1424C32.0307 43.3192 28.5028 43.547 24.9014 44.0689" fill="black"/>
<path d="M35.3006 7.22547C33.8601 6.42435 32.324 5.79228 30.707 5.34395C28.7594 5.3366 26.8411 5.53504 24.9008 5.80698C21.1965 6.40965 17.4188 7.32102 13.4132 8.01189C12.3475 8.71011 11.3406 9.49653 10.4219 10.3711C15.7284 9.51123 20.5645 8.04129 25.1727 7.36512C28.5536 6.82859 31.8756 6.6228 35.308 7.22547" fill="black"/>
<path d="M45.1561 32.582C45.2664 32.2512 45.3693 31.9131 45.4648 31.575C37.63 26.1216 31.3828 26.1363 24.893 27.0623C18.4841 28.1133 11.8252 30.0684 4.21094 30.23C4.35793 30.9136 4.53432 31.5897 4.74012 32.2512C12.3544 31.8764 18.9618 29.5392 25.1576 28.6205C31.6547 27.5842 37.9461 27.7752 45.1561 32.5893" fill="black"/>
<path d="M46.0333 28.9356C46.0847 28.5681 46.1288 28.1933 46.1656 27.8185C38.0001 21.8726 31.5764 21.8579 24.8955 22.8133C18.3543 23.879 11.5632 25.9002 3.75781 25.9884C3.75781 26.6793 3.80191 27.3628 3.86806 28.0316C11.8572 27.7964 18.7291 25.3196 25.1601 24.3715C31.9145 23.2911 38.4484 23.5483 46.0259 28.9356" fill="black"/>
<path d="M46.2283 26.9512C46.2503 26.5764 46.2577 26.2015 46.2577 25.8267C46.2577 25.8047 46.2577 25.79 46.2577 25.7679C38.0481 19.7559 31.6024 19.7338 24.8921 20.6893C18.3803 21.755 11.6112 23.7615 3.84992 23.8643C3.79112 24.5111 3.76172 25.1652 3.76172 25.8267C3.76172 25.8561 3.76172 25.8855 3.76172 25.9149C11.7949 25.7018 18.7037 23.2029 25.164 22.2474C31.9772 21.1597 38.5625 21.4316 46.2283 26.9586" fill="black"/>
<path d="M46.0025 22.5418C45.929 22.0714 45.8408 21.601 45.7379 21.138C37.7781 15.4934 31.4574 15.4934 24.8941 16.4342C18.6175 17.4631 12.0983 19.3593 4.6898 19.5872C4.48401 20.256 4.30761 20.9395 4.16797 21.6377C12.0248 21.3511 18.8159 18.9257 25.1587 17.9849C31.9057 16.9045 38.4323 17.1618 46.0025 22.5344" fill="black"/>
<path d="M45.4575 20.0353C45.3106 19.5061 45.1342 18.9843 44.9504 18.4698C37.3582 13.3691 31.2432 13.4058 24.8931 14.3099C18.8369 15.3021 12.5676 17.1027 5.47518 17.4335C5.18855 18.1023 4.93131 18.7932 4.71082 19.4987C12.3398 19.1239 18.9545 16.7867 25.1577 15.868C31.743 14.817 38.1152 15.0301 45.4575 20.0353Z" fill="black"/>
<path d="M45.6619 30.8022C45.7428 30.4568 45.8236 30.104 45.8898 29.7439C37.8492 23.9891 31.4991 23.9817 24.8917 24.9298C18.3872 25.9955 11.6255 27.9947 3.87891 28.1049C3.9524 28.7958 4.06265 29.472 4.19494 30.1408C12.0444 29.8541 18.8208 27.4287 25.1636 26.488C31.8078 25.4223 38.2388 25.6575 45.6693 30.8022" fill="black"/>
<path d="M44.4587 17.2568C44.1868 16.6394 43.8854 16.0441 43.562 15.4635C36.6019 11.2594 30.8544 11.3403 24.8938 12.1928C19.1537 13.1336 13.2151 14.802 6.571 15.2503C6.18882 15.9191 5.83603 16.6174 5.52734 17.3303C12.8182 16.8378 19.1831 14.6329 25.1657 13.7436C31.4497 12.7441 37.5426 12.8911 44.4587 17.2568Z" fill="black"/>
<path d="M24.8928 31.31C18.866 32.2948 12.6188 34.0881 5.57043 34.4262C5.86442 35.0877 6.19516 35.7418 6.54794 36.3665C13.4126 35.7492 19.454 33.706 25.1574 32.8607C31.2135 31.8906 37.0933 32.0008 43.708 35.9109C43.8771 35.6022 44.0388 35.2861 44.1858 34.9628C36.9389 30.3618 31.0224 30.4206 24.8854 31.3026" fill="black"/>
<path d="M24.8929 33.4342C19.1675 34.3676 13.2436 36.036 6.62891 36.4917C7.00374 37.1384 7.41532 37.7558 7.84896 38.3585C14.177 37.6235 19.8216 35.7788 25.1648 34.9923C30.927 34.0663 36.5348 34.1251 42.76 37.5059C42.9585 37.1972 43.1569 36.8886 43.3407 36.5725C36.476 32.5008 30.7874 32.589 24.8929 33.4342Z" fill="black"/>
<path d="M24.8924 37.6815C20.0416 38.4753 15.0438 39.7909 9.59766 40.4524C10.1489 41.033 10.7295 41.5769 11.3395 42.0914C16.2859 41.2167 20.828 39.8791 25.1643 39.2397C30.1621 38.4386 35.035 38.3724 40.3047 40.57C40.5987 40.2686 40.878 39.9599 41.1499 39.6366C35.2408 36.7775 30.1474 36.9245 24.8924 37.6815Z" fill="black"/>
<path d="M24.8907 35.5578C19.5549 36.4324 14.0426 37.9391 7.95703 38.505C8.41271 39.1224 8.91249 39.7104 9.43432 40.2689C15.1303 39.4384 20.2751 37.8288 25.1627 37.1086C30.5794 36.2413 35.8491 36.234 41.6334 39.0415C41.8759 38.7402 42.1037 38.4315 42.3316 38.1155C35.9153 34.6244 30.4986 34.742 24.8907 35.5504" fill="black"/>
<path d="M28.3892 4.8442C27.2867 4.66781 26.1549 4.57227 25.001 4.57227C21.0395 4.57227 17.3352 5.66002 14.1602 7.54154C18.0261 6.72573 21.6568 5.75557 25.1553 5.24109C26.2357 5.0647 27.3161 4.9324 28.3892 4.8442Z" fill="black"/>
<path d="M24.8911 41.938C21.3853 42.5113 17.806 43.3565 14.043 44.0326C14.822 44.503 15.6305 44.9219 16.4757 45.2894C19.4891 44.6059 22.3702 43.9077 25.1631 43.4961C28.9776 42.8861 32.7186 42.7023 36.6139 43.6284C37.099 43.3124 37.562 42.9816 38.0177 42.6288C33.3947 41.1148 29.198 41.3279 24.8911 41.938Z" fill="black"/>
<path d="M24.8933 39.8135C20.6378 40.5117 16.2794 41.6068 11.5977 42.3124C12.2444 42.8415 12.928 43.334 13.6335 43.7823C17.6979 42.9444 21.4977 41.9155 25.1579 41.3716C29.6412 40.6587 34.0216 40.5264 38.6739 42.0919C39.0341 41.7832 39.3942 41.4671 39.7323 41.1364C34.4185 38.9388 29.722 39.1226 24.8859 39.8135" fill="black"/>
<path d="M46.2304 24.8271C46.2083 24.3935 46.1789 23.9672 46.1348 23.5483C37.984 17.617 31.5677 17.6023 24.8942 18.5578C18.4632 19.6088 11.7897 21.5785 4.15336 21.7255C4.02107 22.4017 3.92552 23.0852 3.85938 23.7761C11.8558 23.5483 18.7352 21.0641 25.1662 20.1086C31.9793 19.0208 38.572 19.2928 46.2377 24.8198" fill="black"/>
</g>
</svg>
