<svg width="80" height="81" viewBox="0 0 80 81" fill="none" xmlns="http://www.w3.org/2000/svg">
<rect x="0.5" y="0.670166" width="79" height="79" rx="39.5" fill="white"/>
<rect x="0.5" y="0.670166" width="79" height="79" rx="39.5" stroke="#E7E7E7"/>
<path d="M40.0007 50.8507C45.4469 50.8507 50.3348 48.3887 53.9089 45.8712C56.5892 43.9834 58.5282 42.0664 59.406 41.1378L59.9177 40.5763C60.0946 40.3724 60.1168 40.0821 59.9841 39.8566L59.9177 39.7648C59.7374 39.5562 57.4826 36.9859 53.9089 34.4689C50.3348 31.9514 45.4469 29.4904 40.0007 29.4904C34.5546 29.4904 29.6667 31.9514 26.0925 34.4689C23.412 36.3569 21.4732 38.2747 20.5955 39.2032L20.0828 39.7648L20.0173 39.8566C19.9034 40.05 19.9033 40.2911 20.0173 40.4845L20.0828 40.5763C20.263 40.7848 22.519 43.3542 26.0925 45.8712C29.6667 48.3887 34.5545 50.8507 40.0007 50.8507ZM40.0007 49.6095C34.796 49.6095 30.5613 45.3748 30.5613 40.17C30.5614 34.9654 34.7961 30.7316 40.0007 30.7316C45.2053 30.7316 49.439 34.9655 49.4392 40.17C49.4392 45.3747 45.2054 49.6095 40.0007 49.6095ZM32.7078 48.09C31.2523 47.501 29.8851 46.7854 28.6365 46.0226L28.6248 46.0157L28.6189 46.003C27.6978 44.2066 27.2087 42.2045 27.2087 40.17C27.2088 38.1335 27.6982 36.1302 28.6208 34.3331L28.6277 34.3204L28.6394 34.3126C29.8882 33.55 31.2553 32.8348 32.7117 32.2462L32.7644 32.3292C30.65 34.2819 29.3202 37.0722 29.3201 40.17C29.3201 43.2658 30.6486 46.0544 32.7605 48.007L32.7078 48.09ZM47.2908 48.0939L47.238 48.0109C49.3519 46.0581 50.6804 43.2675 50.6804 40.17C50.6803 37.0771 49.3574 34.2884 47.2488 32.3361L47.3015 32.253C48.754 32.8415 50.1178 33.5561 51.364 34.3175L51.3767 34.3253L51.3826 34.338C52.3035 36.1339 52.7927 38.1354 52.7927 40.17C52.7927 42.2069 52.3024 44.2107 51.3796 46.0079L51.3738 46.0206L51.3621 46.0275L50.8875 46.3116C49.7698 46.9673 48.5645 47.5789 47.2908 48.0939ZM26.6189 44.6847C24.0533 42.8527 22.2035 41.0206 21.4275 40.2042L21.3953 40.17L21.4275 40.1359C22.2034 39.3187 24.0529 37.4846 26.6199 35.6515L26.7458 35.5616L26.697 35.7081C26.2181 37.1391 25.9676 38.6463 25.9675 40.17C25.9675 41.6921 26.2171 43.1983 26.6951 44.628L26.7439 44.7745L26.6189 44.6847ZM53.3044 44.6329C53.7834 43.2017 54.0339 41.6939 54.0339 40.17C54.0339 38.648 53.7843 37.1417 53.3064 35.712L53.2576 35.5665L53.3826 35.6564C55.948 37.4882 57.798 39.3194 58.574 40.1359L58.6062 40.171L58.574 40.2052C57.8466 40.9713 56.1754 42.6309 53.8542 44.3458L53.3806 44.6896L53.2556 44.7784L53.3044 44.6329Z" fill="#DB2E20" stroke="white" stroke-width="0.1"/>
<path d="M39.999 46.8269C42.859 46.8269 45.4171 44.9652 46.3135 42.2673L46.3945 42.0037C46.4519 41.8037 46.4048 41.5897 46.2734 41.4333L46.2119 41.3708C46.057 41.2319 45.8445 41.1807 45.6465 41.2302L45.5635 41.2576C45.071 41.459 44.5525 41.5612 44.0234 41.5613C41.777 41.5613 39.9493 39.7345 39.9492 37.488C39.9492 36.4723 40.3196 35.512 40.9961 34.7624L41.1348 34.616C41.2816 34.4686 41.3431 34.2588 41.3037 34.0583L41.2812 33.9724C41.2122 33.7761 41.0501 33.6298 40.8525 33.5779L40.7656 33.5613C40.5129 33.5326 40.2583 33.5144 39.999 33.5144C36.3288 33.5146 33.3428 36.5003 33.3428 40.1707C33.3429 43.8408 36.3289 46.8267 39.999 46.8269ZM39.999 45.5857C37.0134 45.5855 34.5841 43.1562 34.584 40.1707C34.584 37.4055 36.6675 35.1183 39.3467 34.7947L39.4453 34.782L39.3965 34.8689C38.9476 35.6591 38.708 36.5553 38.708 37.488C38.7081 40.4185 41.0929 42.8025 44.0234 42.8025C44.2357 42.8025 44.4471 42.7903 44.6562 42.7654L44.7549 42.7537L44.7061 42.8396C43.7593 44.5019 41.9672 45.5857 39.999 45.5857Z" fill="#DB2E20" stroke="white" stroke-width="0.1"/>
<path d="M39.9993 53.5331C44.5779 53.5331 49.2759 52.0226 53.97 49.0399L54.4241 48.747C54.6749 48.5823 54.7672 48.2672 54.6604 47.9989L54.6028 47.8876C54.4381 47.6365 54.1229 47.5444 53.8547 47.6513L53.7434 47.7089C49.1084 50.7484 44.4835 52.2919 39.9993 52.2919C35.7961 52.2918 31.469 50.9354 27.1252 48.2616L26.2561 47.7089C25.9705 47.5213 25.5846 47.6011 25.3967 47.8876C25.2324 48.1383 25.2733 48.4644 25.4778 48.6679L25.5754 48.747C30.4206 51.9236 35.2734 53.533 39.9993 53.5331Z" fill="#DB2E20" stroke="white" stroke-width="0.1"/>
<path d="M53.7434 32.6317C53.9944 32.7959 54.3205 32.7553 54.5237 32.5506L54.6028 32.453V32.452C54.767 32.2011 54.7267 31.8753 54.5217 31.6717L54.4241 31.5926C49.5791 28.416 44.7264 26.8075 40.0002 26.8075C35.4217 26.8075 30.7244 28.3181 26.0305 31.3006L25.5754 31.5936C25.3248 31.7584 25.2323 32.0735 25.3391 32.3417L25.3967 32.453C25.5161 32.6347 25.7149 32.7333 25.9172 32.7333C26.0047 32.7332 26.0931 32.7149 26.176 32.6766L26.2561 32.6317C30.8912 29.5922 35.5161 28.0487 40.0002 28.0487C44.2038 28.0487 48.5307 29.4052 52.8743 32.079L53.7434 32.6317Z" fill="#DB2E20" stroke="white" stroke-width="0.1"/>
</svg>
