<svg width="62" height="63" viewBox="0 0 62 63" fill="none" xmlns="http://www.w3.org/2000/svg">
<rect x="0.597015" y="0.932281" width="60.806" height="60.806" rx="30.403" fill="white"/>
<rect x="0.597015" y="0.932281" width="60.806" height="60.806" rx="30.403" stroke="#F4F4F4" stroke-width="1.19403"/>
<path d="M24.7401 25.6305C23.3091 24.1711 21.3313 23.2681 19.1462 23.2681C16.9626 23.2681 14.9848 24.1711 13.5528 25.6305C12.1217 27.0898 11.236 29.107 11.236 31.3352C11.236 33.5635 12.1217 35.5807 13.5528 37.04C14.9848 38.4994 16.9626 39.4024 19.1462 39.4024C21.3313 39.4024 23.3091 38.4994 24.7401 37.04C26.1727 35.5807 27.058 33.5635 27.058 31.3352C27.058 29.107 26.1727 27.0898 24.7401 25.6305ZM48.4457 25.6305C47.0147 24.1711 45.0369 23.2681 42.8518 23.2681C40.6667 23.2681 38.6889 24.1711 37.2579 25.6305C35.8268 27.0898 34.9416 29.107 34.9416 31.3352C34.9416 33.5635 35.8268 35.5807 37.2579 37.04C38.6889 38.4994 40.6667 39.4024 42.8518 39.4024C45.0369 39.4024 47.0147 38.4994 48.4457 37.04C49.8768 35.5807 50.7621 33.5635 50.7621 31.3352C50.7621 29.107 49.8768 27.0898 48.4457 25.6305ZM19.1462 21.783C21.733 21.783 24.0745 22.853 25.7695 24.5819C26.9528 25.7888 27.8204 27.3166 28.2373 29.0271L28.2892 28.9872C28.9914 28.4436 29.9506 28.1084 30.9998 28.1084C32.0489 28.1084 33.0087 28.4436 33.7109 28.9872L33.7612 29.0271C34.1777 27.3166 35.0467 25.7888 36.23 24.5819C37.9241 22.853 40.2656 21.783 42.8518 21.783C45.4381 21.783 47.78 22.853 49.4751 24.5819C51.0083 26.1454 52.014 28.251 52.1902 30.5934H54.7488C55.1514 30.5934 55.4776 30.9258 55.4776 31.3352C55.4776 31.7446 55.1514 32.077 54.7488 32.077H52.1902C52.014 34.418 51.0083 36.5236 49.4751 38.0885C47.78 39.8176 45.4381 40.8875 42.8518 40.8875C40.2656 40.8875 37.9241 39.8176 36.23 38.0885C34.5344 36.361 33.4853 33.9729 33.4853 31.3352C33.4853 30.8944 33.2366 30.4808 32.835 30.1698C32.3736 29.8131 31.7256 29.592 30.9998 29.592C30.2739 29.592 29.625 29.8131 29.1646 30.1698C28.7619 30.4808 28.5127 30.8944 28.5127 31.3352C28.5127 33.9729 27.4636 36.361 25.7695 38.0885C24.0745 39.8176 21.733 40.8875 19.1462 40.8875C16.5614 40.8875 14.22 39.8176 12.5244 38.0885C10.9902 36.5236 9.98553 34.418 9.80936 32.077H7.24975C6.84807 32.077 6.52238 31.7446 6.52238 31.3352C6.52238 30.9258 6.84807 30.5934 7.24975 30.5934H9.80936C9.98553 28.251 10.9902 26.1454 12.5244 24.5819C14.22 22.853 16.5614 21.783 19.1462 21.783Z" fill="#DB2E20"/>
</svg>
