<svg width="430" height="304" viewBox="0 0 430 304" fill="none" xmlns="http://www.w3.org/2000/svg">
<g clip-path="url(#clip0_7_1312)">
<g clip-path="url(#clip1_7_1312)">
<path opacity="0.5" d="M214.617 2.9707H213.627V400.03H214.617V2.9707Z" fill="#838383" fill-opacity="0.65"/>
<path opacity="0.2" d="M234.47 2.9707H233.48V400.03H234.47V2.9707Z" fill="#838383" fill-opacity="0.65"/>
<path opacity="0.2" d="M254.323 2.9707H253.332V400.03H254.323V2.9707Z" fill="#838383" fill-opacity="0.65"/>
<path opacity="0.2" d="M274.175 2.9707H273.185V400.03H274.175V2.9707Z" fill="#838383" fill-opacity="0.65"/>
<path opacity="0.2" d="M294.028 2.9707H293.038V400.03H294.028V2.9707Z" fill="#838383" fill-opacity="0.65"/>
<path opacity="0.5" d="M313.881 2.9707H312.891V400.03H313.881V2.9707Z" fill="#838383" fill-opacity="0.65"/>
<path opacity="0.2" d="M333.734 2.9707H332.743V400.03H333.734V2.9707Z" fill="#838383" fill-opacity="0.65"/>
<path opacity="0.2" d="M353.589 2.9707H352.598V400.03H353.589V2.9707Z" fill="#838383" fill-opacity="0.65"/>
<path opacity="0.2" d="M373.439 2.9707H372.449V400.03H373.439V2.9707Z" fill="#838383" fill-opacity="0.65"/>
<path opacity="0.2" d="M393.294 2.9707H392.304V400.03H393.294V2.9707Z" fill="#838383" fill-opacity="0.65"/>
<path opacity="0.5" d="M413.145 2.9707H412.154V400.03H413.145V2.9707Z" fill="#838383" fill-opacity="0.65"/>
<path opacity="0.5" d="M511.42 2.9707H115.352V3.96088H511.42V2.9707Z" fill="#838383" fill-opacity="0.65"/>
<path opacity="0.2" d="M511.915 22.3284H114.856V23.3185H511.915V22.3284Z" fill="#838383" fill-opacity="0.65"/>
<path opacity="0.2" d="M511.915 42.1814H114.856V43.1716H511.915V42.1814Z" fill="#838383" fill-opacity="0.65"/>
<path opacity="0.2" d="M511.915 62.0344H114.856V63.0246H511.915V62.0344Z" fill="#838383" fill-opacity="0.65"/>
<path opacity="0.2" d="M511.915 81.8872H114.856V82.8774H511.915V81.8872Z" fill="#838383" fill-opacity="0.65"/>
<path opacity="0.5" d="M511.915 101.74H114.856V102.73H511.915V101.74Z" fill="#838383" fill-opacity="0.65"/>
<path opacity="0.2" d="M511.915 121.593H114.856V122.583H511.915V121.593Z" fill="#838383" fill-opacity="0.65"/>
<path opacity="0.2" d="M511.915 141.446H114.856V142.436H511.915V141.446Z" fill="#838383" fill-opacity="0.65"/>
<path opacity="0.2" d="M511.915 161.299H114.856V162.289H511.915V161.299Z" fill="#838383" fill-opacity="0.65"/>
<path opacity="0.2" d="M511.915 181.152H114.856V182.142H511.915V181.152Z" fill="#838383" fill-opacity="0.65"/>
<path opacity="0.5" d="M511.915 201.005H114.856V201.995H511.915V201.005Z" fill="#838383" fill-opacity="0.65"/>
<path opacity="0.2" d="M511.915 220.858H114.856V221.848H511.915V220.858Z" fill="#838383" fill-opacity="0.65"/>
<path opacity="0.2" d="M511.915 240.711H114.856V241.701H511.915V240.711Z" fill="#838383" fill-opacity="0.65"/>
<path opacity="0.2" d="M511.915 260.564H114.856V261.554H511.915V260.564Z" fill="#838383" fill-opacity="0.65"/>
<path opacity="0.2" d="M511.915 280.417H114.856V281.407H511.915V280.417Z" fill="#838383" fill-opacity="0.65"/>
<path opacity="0.5" d="M511.915 300.27H114.856V301.26H511.915V300.27Z" fill="#838383" fill-opacity="0.65"/>
<path d="M214.864 0H213.873V6.9312H214.864V0Z" fill="#838383" fill-opacity="0.65"/>
<path d="M217.834 2.97046H210.903V3.96063H217.834V2.97046Z" fill="#838383" fill-opacity="0.65"/>
<path d="M214.864 99.0172H213.873V105.948H214.864V99.0172Z" fill="#838383" fill-opacity="0.65"/>
<path d="M217.834 101.988H210.903V102.978H217.834V101.988Z" fill="#838383" fill-opacity="0.65"/>
<path d="M214.864 198.035H213.873V204.966H214.864V198.035Z" fill="#838383" fill-opacity="0.65"/>
<path d="M217.834 201.005H210.903V201.995H217.834V201.005Z" fill="#838383" fill-opacity="0.65"/>
<path d="M214.864 297.052H213.873V303.983H214.864V297.052Z" fill="#838383" fill-opacity="0.65"/>
<path d="M217.834 300.022H210.903V301.012H217.834V300.022Z" fill="#838383" fill-opacity="0.65"/>
<path d="M313.881 0H312.891V6.9312H313.881V0Z" fill="#838383" fill-opacity="0.65"/>
<path d="M316.852 2.97046H309.921V3.96063H316.852V2.97046Z" fill="#838383" fill-opacity="0.65"/>
<path d="M313.881 99.0172H312.891V105.948H313.881V99.0172Z" fill="#838383" fill-opacity="0.65"/>
<path d="M316.852 101.988H309.921V102.978H316.852V101.988Z" fill="#838383" fill-opacity="0.65"/>
<path d="M313.881 198.035H312.891V204.966H313.881V198.035Z" fill="#838383" fill-opacity="0.65"/>
<path d="M316.852 201.005H309.921V201.995H316.852V201.005Z" fill="#838383" fill-opacity="0.65"/>
<path d="M313.881 297.052H312.891V303.983H313.881V297.052Z" fill="#838383" fill-opacity="0.65"/>
<path d="M316.852 300.022H309.921V301.012H316.852V300.022Z" fill="#838383" fill-opacity="0.65"/>
<path d="M412.898 0H411.908V6.9312H412.898V0Z" fill="#838383" fill-opacity="0.65"/>
<path d="M415.869 2.97046H408.938V3.96063H415.869V2.97046Z" fill="#838383" fill-opacity="0.65"/>
<path d="M412.898 99.0172H411.908V105.948H412.898V99.0172Z" fill="#838383" fill-opacity="0.65"/>
<path d="M415.869 101.988H408.938V102.978H415.869V101.988Z" fill="#838383" fill-opacity="0.65"/>
<path d="M412.898 198.035H411.908V204.966H412.898V198.035Z" fill="#838383" fill-opacity="0.65"/>
<path d="M415.869 201.005H408.938V201.995H415.869V201.005Z" fill="#838383" fill-opacity="0.65"/>
<path d="M412.898 297.052H411.908V303.983H412.898V297.052Z" fill="#838383" fill-opacity="0.65"/>
<path d="M415.869 300.022H408.938V301.012H415.869V300.022Z" fill="#838383" fill-opacity="0.65"/>
<path d="M264.371 52.479H263.381V53.4692H264.371V52.479Z" fill="#838383" fill-opacity="0.65"/>
<path d="M363.391 52.479H362.4V53.4692H363.391V52.479Z" fill="#838383" fill-opacity="0.65"/>
<path d="M264.371 151.496H263.381V152.486H264.371V151.496Z" fill="#838383" fill-opacity="0.65"/>
<path d="M363.391 151.496H362.4V152.486H363.391V151.496Z" fill="#838383" fill-opacity="0.65"/>
<path d="M264.371 250.514H263.381V251.504H264.371V250.514Z" fill="#838383" fill-opacity="0.65"/>
<path d="M363.391 250.514H362.4V251.504H363.391V250.514Z" fill="#838383" fill-opacity="0.65"/>
</g>
<g clip-path="url(#clip2_7_1312)">
<path opacity="0.5" d="M16.8432 2.9707H15.8531V400.03H16.8432V2.9707Z" fill="#838383" fill-opacity="0.65"/>
<path opacity="0.2" d="M36.696 2.9707H35.7058V400.03H36.696V2.9707Z" fill="#838383" fill-opacity="0.65"/>
<path opacity="0.2" d="M56.551 2.9707H55.5608V400.03H56.551V2.9707Z" fill="#838383" fill-opacity="0.65"/>
<path opacity="0.2" d="M76.4015 2.9707H75.4114V400.03H76.4015V2.9707Z" fill="#838383" fill-opacity="0.65"/>
<path opacity="0.2" d="M96.2565 2.9707H95.2663V400.03H96.2565V2.9707Z" fill="#838383" fill-opacity="0.65"/>
<path opacity="0.5" d="M116.107 2.9707H115.117V400.03H116.107V2.9707Z" fill="#838383" fill-opacity="0.65"/>
<path opacity="0.2" d="M135.962 2.9707H134.972V400.03H135.962V2.9707Z" fill="#838383" fill-opacity="0.65"/>
<path opacity="0.2" d="M155.813 2.9707H154.822V400.03H155.813V2.9707Z" fill="#838383" fill-opacity="0.65"/>
<path opacity="0.2" d="M175.668 2.9707H174.677V400.03H175.668V2.9707Z" fill="#838383" fill-opacity="0.65"/>
<path opacity="0.2" d="M195.52 2.9707H194.53V400.03H195.52V2.9707Z" fill="#838383" fill-opacity="0.65"/>
<path opacity="0.5" d="M214.878 3.46545H213.888V399.534H214.878V3.46545Z" fill="#838383" fill-opacity="0.65"/>
<path opacity="0.5" d="M214.383 2.9707H-181.686V3.96088H214.383V2.9707Z" fill="#838383" fill-opacity="0.65"/>
<path opacity="0.2" d="M214.878 22.3284H-182.181V23.3185H214.878V22.3284Z" fill="#838383" fill-opacity="0.65"/>
<path opacity="0.2" d="M214.878 42.1814H-182.181V43.1716H214.878V42.1814Z" fill="#838383" fill-opacity="0.65"/>
<path opacity="0.2" d="M214.878 62.0344H-182.181V63.0246H214.878V62.0344Z" fill="#838383" fill-opacity="0.65"/>
<path opacity="0.2" d="M214.878 81.8872H-182.181V82.8774H214.878V81.8872Z" fill="#838383" fill-opacity="0.65"/>
<path opacity="0.5" d="M214.878 101.74H-182.181V102.73H214.878V101.74Z" fill="#838383" fill-opacity="0.65"/>
<path opacity="0.2" d="M214.878 121.593H-182.181V122.583H214.878V121.593Z" fill="#838383" fill-opacity="0.65"/>
<path opacity="0.2" d="M214.878 141.446H-182.181V142.436H214.878V141.446Z" fill="#838383" fill-opacity="0.65"/>
<path opacity="0.2" d="M214.878 161.299H-182.181V162.289H214.878V161.299Z" fill="#838383" fill-opacity="0.65"/>
<path opacity="0.2" d="M214.878 181.152H-182.181V182.142H214.878V181.152Z" fill="#838383" fill-opacity="0.65"/>
<path opacity="0.5" d="M214.878 201.005H-182.181V201.995H214.878V201.005Z" fill="#838383" fill-opacity="0.65"/>
<path opacity="0.2" d="M214.878 220.858H-182.181V221.848H214.878V220.858Z" fill="#838383" fill-opacity="0.65"/>
<path opacity="0.2" d="M214.878 240.711H-182.181V241.701H214.878V240.711Z" fill="#838383" fill-opacity="0.65"/>
<path opacity="0.2" d="M214.878 260.564H-182.181V261.554H214.878V260.564Z" fill="#838383" fill-opacity="0.65"/>
<path opacity="0.2" d="M214.878 280.417H-182.181V281.407H214.878V280.417Z" fill="#838383" fill-opacity="0.65"/>
<path opacity="0.5" d="M214.878 300.27H-182.181V301.26H214.878V300.27Z" fill="#838383" fill-opacity="0.65"/>
<path d="M214.878 0H213.888V6.9312H214.878V0Z" fill="#838383" fill-opacity="0.65"/>
<path d="M217.849 2.97046H210.917V3.96063H217.849V2.97046Z" fill="#838383" fill-opacity="0.65"/>
<path d="M214.878 99.0172H213.888V105.948H214.878V99.0172Z" fill="#838383" fill-opacity="0.65"/>
<path d="M217.849 101.988H210.917V102.978H217.849V101.988Z" fill="#838383" fill-opacity="0.65"/>
<path d="M214.878 198.035H213.888V204.966H214.878V198.035Z" fill="#838383" fill-opacity="0.65"/>
<path d="M217.849 201.005H210.917V201.995H217.849V201.005Z" fill="#838383" fill-opacity="0.65"/>
<path d="M214.878 297.052H213.888V303.983H214.878V297.052Z" fill="#838383" fill-opacity="0.65"/>
<path d="M217.849 300.022H210.917V301.012H217.849V300.022Z" fill="#838383" fill-opacity="0.65"/>
<path d="M16.8432 0H15.853V6.9312H16.8432V0Z" fill="#838383" fill-opacity="0.65"/>
<path d="M19.8142 2.97046H12.8829V3.96063H19.8142V2.97046Z" fill="#838383" fill-opacity="0.65"/>
<path d="M16.8432 99.0172H15.853V105.948H16.8432V99.0172Z" fill="#838383" fill-opacity="0.65"/>
<path d="M19.8142 101.988H12.8829V102.978H19.8142V101.988Z" fill="#838383" fill-opacity="0.65"/>
<path d="M16.8432 198.035H15.853V204.966H16.8432V198.035Z" fill="#838383" fill-opacity="0.65"/>
<path d="M19.8142 201.005H12.8829V201.995H19.8142V201.005Z" fill="#838383" fill-opacity="0.65"/>
<path d="M16.8432 297.052H15.853V303.983H16.8432V297.052Z" fill="#838383" fill-opacity="0.65"/>
<path d="M19.8142 300.022H12.8829V301.012H19.8142V300.022Z" fill="#838383" fill-opacity="0.65"/>
<path d="M115.86 0H114.87V6.9312H115.86V0Z" fill="#838383" fill-opacity="0.65"/>
<path d="M118.831 2.97046H111.9V3.96063H118.831V2.97046Z" fill="#838383" fill-opacity="0.65"/>
<path d="M115.86 99.0172H114.87V105.948H115.86V99.0172Z" fill="#838383" fill-opacity="0.65"/>
<path d="M118.831 101.988H111.9V102.978H118.831V101.988Z" fill="#838383" fill-opacity="0.65"/>
<path d="M115.86 198.035H114.87V204.966H115.86V198.035Z" fill="#838383" fill-opacity="0.65"/>
<path d="M118.831 201.005H111.9V201.995H118.831V201.005Z" fill="#838383" fill-opacity="0.65"/>
<path d="M115.86 297.052H114.87V303.983H115.86V297.052Z" fill="#838383" fill-opacity="0.65"/>
<path d="M118.831 300.022H111.9V301.012H118.831V300.022Z" fill="#838383" fill-opacity="0.65"/>
<path d="M66.3529 52.479H65.3628V53.4692H66.3529V52.479Z" fill="#838383" fill-opacity="0.65"/>
<path d="M165.368 52.479H164.378V53.4692H165.368V52.479Z" fill="#838383" fill-opacity="0.65"/>
<path d="M66.3529 151.496H65.3628V152.486H66.3529V151.496Z" fill="#838383" fill-opacity="0.65"/>
<path d="M165.368 151.496H164.378V152.486H165.368V151.496Z" fill="#838383" fill-opacity="0.65"/>
<path d="M66.3529 250.514H65.3628V251.504H66.3529V250.514Z" fill="#838383" fill-opacity="0.65"/>
<path d="M165.368 250.514H164.378V251.504H165.368V250.514Z" fill="#838383" fill-opacity="0.65"/>
</g>
</g>
<defs>
<clipPath id="clip0_7_1312">
<rect width="430" height="304" fill="white"/>
</clipPath>
<clipPath id="clip1_7_1312">
<rect width="303.8" height="403" fill="white" transform="translate(211.038)"/>
</clipPath>
<clipPath id="clip2_7_1312">
<rect width="303.8" height="403" fill="white" transform="translate(-86)"/>
</clipPath>
</defs>
</svg>
