<svg width="80" height="81" viewBox="0 0 80 81" fill="none" xmlns="http://www.w3.org/2000/svg">
<rect x="0.5" y="1.34766" width="79" height="79" rx="39.5" fill="white"/>
<rect x="0.5" y="1.34766" width="79" height="79" rx="39.5" stroke="#E7E7E7"/>
<path d="M33.7402 35.1429C32.3092 33.6835 30.3314 32.7805 28.1463 32.7805C25.9627 32.7805 23.9849 33.6835 22.5529 35.1429C21.1218 36.6022 20.236 38.6194 20.236 40.8476C20.236 43.0759 21.1218 45.0931 22.5529 46.5524C23.9849 48.0117 25.9627 48.9148 28.1463 48.9148C30.3314 48.9148 32.3092 48.0117 33.7402 46.5524C35.1727 45.0931 36.058 43.0759 36.058 40.8476C36.058 38.6194 35.1727 36.6022 33.7402 35.1429ZM57.4458 35.1429C56.0148 33.6835 54.037 32.7805 51.8519 32.7805C49.6668 32.7805 47.689 33.6835 46.258 35.1429C44.8269 36.6022 43.9416 38.6194 43.9416 40.8476C43.9416 43.0759 44.8269 45.0931 46.258 46.5524C47.689 48.0117 49.6668 48.9148 51.8519 48.9148C54.037 48.9148 56.0148 48.0117 57.4458 46.5524C58.8769 45.0931 59.7621 43.0759 59.7621 40.8476C59.7621 38.6194 58.8769 36.6022 57.4458 35.1429ZM28.1463 31.2954C30.733 31.2954 33.0745 32.3653 34.7696 34.0943C35.9529 35.3012 36.8204 36.829 37.2374 38.5395L37.2892 38.4995C37.9914 37.956 38.9507 37.6208 39.9998 37.6208C41.0489 37.6208 42.0087 37.956 42.7109 38.4995L42.7613 38.5395C43.1777 36.829 44.0467 35.3012 45.2301 34.0943C46.9241 32.3653 49.2656 31.2954 51.8519 31.2954C54.4381 31.2954 56.7801 32.3653 58.4752 34.0943C60.0084 35.6578 61.0141 37.7634 61.1902 40.1058H63.7488C64.1515 40.1058 64.4777 40.4382 64.4777 40.8476C64.4777 41.257 64.1515 41.5894 63.7488 41.5894H61.1902C61.0141 43.9304 60.0084 46.036 58.4752 47.6009C56.7801 49.33 54.4381 50.3999 51.8519 50.3999C49.2656 50.3999 46.9241 49.33 45.2301 47.6009C43.5345 45.8734 42.4854 43.4853 42.4854 40.8476C42.4854 40.4068 42.2367 39.9932 41.835 39.6821C41.3736 39.3255 40.7257 39.1044 39.9998 39.1044C39.2739 39.1044 38.625 39.3255 38.1646 39.6821C37.762 39.9932 37.5128 40.4068 37.5128 40.8476C37.5128 43.4853 36.4637 45.8734 34.7696 47.6009C33.0745 49.33 30.733 50.3999 28.1463 50.3999C25.5615 50.3999 23.22 49.33 21.5245 47.6009C19.9903 46.036 18.9856 43.9304 18.8094 41.5894H16.2498C15.8481 41.5894 15.5225 41.257 15.5225 40.8476C15.5225 40.4382 15.8481 40.1058 16.2498 40.1058H18.8094C18.9856 37.7634 19.9903 35.6578 21.5245 34.0943C23.22 32.3653 25.5615 31.2954 28.1463 31.2954Z" fill="#DB2E20"/>
</svg>
