<svg width="390" height="139" viewBox="0 0 390 139" fill="none" xmlns="http://www.w3.org/2000/svg">
<path opacity="0.9" d="M296.264 1.00293V1.00391C320.285 1.36423 341.068 6.01416 362.962 14.4424L363.005 14.459L363.05 14.4717C367.226 15.6516 372.475 16.8728 376.67 17.7969C378.769 18.2594 380.61 18.6483 381.925 18.9219C382.582 19.0587 383.109 19.1665 383.472 19.2402C383.653 19.2771 383.793 19.306 383.888 19.3252C383.935 19.3348 383.972 19.3418 383.996 19.3467C384.008 19.3491 384.017 19.3513 384.023 19.3525C384.027 19.3532 384.03 19.3532 384.031 19.3535L384.032 19.3545H384.033L384.13 19.374H384.164C384.196 19.3791 384.241 19.3867 384.297 19.3975C384.431 19.4231 384.628 19.466 384.867 19.5332C385.35 19.6687 385.984 19.897 386.608 20.2676C387.83 20.9924 389 22.234 389 24.4941V33.0068C388.991 33.0192 388.982 33.0327 388.973 33.0459C388.843 33.2204 388.652 33.4618 388.411 33.7227C387.977 34.1925 387.429 34.673 386.828 34.9727L386.568 35.0898L386.563 35.0918C385.633 35.467 383.096 36.5469 380.663 38.4824C378.234 40.4155 375.81 43.2832 375.313 47.2422C374.858 50.8718 373.538 65.4245 369.236 81.3037C364.988 96.9881 357.898 113.692 346.107 122.504L345.542 122.917C320.979 140.518 302.4 138.126 281.816 137.585C261.798 137.059 232.475 121.587 220.816 92.9824L220.537 92.2842L220.528 92.2646L219.712 90.4238C215.617 81.1443 211.265 70.5229 209.256 58.2725C209.248 55.6481 208.931 53.9778 209.706 51.5146L209.878 51.0049V51.0039C210.452 49.4073 211.011 46.798 210.631 44.3555C210.439 43.1214 210 41.8817 209.154 40.8457C208.298 39.7972 207.075 39.0196 205.434 38.6445L205.323 38.6191H184.676L184.565 38.6445C182.924 39.0217 181.701 39.8014 180.846 40.8506C180 41.8874 179.561 43.1273 179.369 44.3613C178.989 46.8039 179.548 49.4115 180.122 51.0049C181.113 53.7564 180.751 55.4707 180.743 58.2715C178.593 71.3407 173.791 82.5639 169.472 92.2646L169.463 92.2842L169.184 92.9824C157.525 121.587 128.202 137.059 108.184 137.585C87.9218 138.117 69.5948 140.444 45.6045 123.728L44.458 122.917C32.324 114.222 25.076 97.237 20.7607 81.3037C16.9977 67.4094 15.5175 54.5308 14.9014 49.0967L14.6865 47.2422C14.1903 43.2798 11.7688 40.4101 9.33984 38.4766C6.90856 36.5412 4.37202 35.4629 3.43262 35.0898H3.43359C2.7348 34.8111 2.08912 34.2603 1.5918 33.7227C1.35015 33.4614 1.15755 33.2197 1.02734 33.0449C1.01756 33.0318 1.00905 33.0182 1 33.0059V24.4941C1.00013 22.234 2.16988 20.9924 3.3916 20.2676C4.01628 19.897 4.65012 19.6687 5.13281 19.5332C5.37211 19.466 5.56939 19.4231 5.70312 19.3975C5.76986 19.3847 5.82102 19.376 5.85254 19.3711C5.86808 19.3687 5.87896 19.367 5.88477 19.3662L5.88574 19.3652L5.88672 19.3662V19.3652L5.8877 19.3662V19.3652L5.92285 19.3613L5.95898 19.3545H5.95996L5.96191 19.3535C5.9635 19.3532 5.96589 19.3531 5.96875 19.3525C5.97495 19.3513 5.98404 19.3491 5.99609 19.3467C6.02049 19.3418 6.057 19.3348 6.10449 19.3252C6.19946 19.306 6.33943 19.2771 6.52051 19.2402C6.88288 19.1665 7.40978 19.0587 8.06738 18.9219C9.38247 18.6483 11.2226 18.2594 13.3223 17.7969C17.5167 16.8728 22.7665 15.6516 26.9424 14.4717L26.9873 14.459L27.0303 14.4424C48.9244 6.01416 69.7152 1.36424 93.7285 1.00391L93.7275 1.00293C119.315 0.824256 139.979 7.52928 154.245 14.2773C161.379 17.6516 166.91 21.0353 170.652 23.5713C172.523 24.8391 173.947 25.8949 174.899 26.6309C175.375 26.9987 175.734 27.2868 175.972 27.4814C176.091 27.5788 176.18 27.6532 176.238 27.7021C176.267 27.7265 176.289 27.7451 176.303 27.7568C176.309 27.7626 176.314 27.767 176.317 27.7695L176.32 27.7725L176.603 28.0156H213.391L213.672 27.7725L213.675 27.7695C213.678 27.7669 213.684 27.7627 213.69 27.7568C213.704 27.7451 213.726 27.7266 213.755 27.7021C213.813 27.6532 213.902 27.5786 214.021 27.4814C214.258 27.2868 214.617 26.9987 215.093 26.6309C216.045 25.8948 217.47 24.8392 219.341 23.5713C223.083 21.0353 228.614 17.6515 235.747 14.2773C250.013 7.52936 270.677 0.824456 296.264 1.00293ZM97.2314 4.70117C97.0498 4.7019 96.7815 4.70314 96.4365 4.70605C95.7466 4.71188 94.7471 4.72382 93.5059 4.74707C91.0229 4.79358 87.5706 4.8862 83.6943 5.07227C75.9611 5.44348 66.4702 6.18797 59.623 7.69141L59.6025 7.69629L59.5811 7.70117C52.9662 9.4527 43.7043 11.9945 36.0459 18.4697C28.4549 24.888 22.5372 35.0799 22.0928 51.873L22.0752 52.6777V52.6855C21.8113 87.2605 34.6145 106.815 44.627 117.954L45.5869 119.006C55.9056 130.151 81.767 139.569 116.525 132.813L116.54 132.811L116.556 132.808C162.417 122.383 167.886 79.7727 170.567 64.7559C171.927 57.1411 172.427 50.1538 170.65 43.2627C168.87 36.3542 164.829 29.6464 157.293 22.5264L157.266 22.501L157.236 22.4766L156.718 22.0615C145.761 13.4041 131.066 9.08117 119.128 6.91113C113.049 5.80618 107.652 5.25376 103.773 4.97754C101.834 4.8394 100.273 4.77001 99.1943 4.73535C98.6551 4.71802 98.2362 4.70945 97.9512 4.70508C97.8086 4.70289 97.6991 4.70173 97.625 4.70117C97.5884 4.7009 97.5603 4.70027 97.541 4.7002H97.5107L97.5098 5.7002L97.5088 4.7002H97.4385C97.3918 4.70029 97.3221 4.70081 97.2314 4.70117ZM292.383 4.70117C292.309 4.70173 292.199 4.70289 292.057 4.70508C291.772 4.70945 291.353 4.71802 290.813 4.73535C289.735 4.77001 288.174 4.83941 286.234 4.97754C282.356 5.25376 276.959 5.80618 270.88 6.91113C258.752 9.11558 243.779 13.5416 232.771 22.4766L232.742 22.501L232.715 22.5264C225.179 29.6464 221.138 36.3542 219.357 43.2627C217.581 50.1538 218.081 57.1411 219.44 64.7559C222.121 79.7727 227.59 122.383 273.452 132.808L273.467 132.811L273.482 132.813C308.241 139.569 334.11 130.143 344.421 119.006C354.395 108.232 367.779 88.9888 367.935 54.3467L367.933 52.6855V52.6777L367.915 51.873C367.471 35.0799 361.553 24.888 353.962 18.4697C346.303 11.9944 337.041 9.4527 330.426 7.70117L330.385 7.69141L329.071 7.41797C322.358 6.09601 313.563 5.42028 306.313 5.07227C302.437 4.8862 298.985 4.79358 296.502 4.74707C295.261 4.72382 294.261 4.71188 293.571 4.70605C293.226 4.70314 292.958 4.7019 292.776 4.70117C292.686 4.70081 292.616 4.70029 292.569 4.7002H292.498V5.7002L292.497 4.7002H292.467C292.448 4.70027 292.419 4.7009 292.383 4.70117Z" stroke="white" stroke-width="2"/>
</svg>
