<svg width="600" height="215" viewBox="0 0 600 215" fill="none" xmlns="http://www.w3.org/2000/svg">
<path d="M591.124 29.0943C591.124 29.0943 571.722 25.2211 558.965 21.6202C525.144 8.61441 492.996 1.4245 455.841 0.867783C376.557 0.311069 327.772 42.3726 327.772 42.3726H272.33C272.33 42.3726 223.545 0.311069 144.261 0.867783C107.118 1.4245 74.9584 8.61441 41.1375 21.6202C28.3805 25.2211 8.97787 29.0943 8.97787 29.0943C8.97787 29.0943 0.113281 30.1959 0.113281 38.4993V52.0617C0.113281 52.0617 2.05943 55.1058 4.82443 56.2074C7.60131 57.309 19.7887 62.5681 21.1772 73.6432C22.5656 84.7064 29.3416 163.594 67.6007 190.979C105.848 218.365 134.958 214.634 166.559 213.805C198.161 212.976 244.312 188.492 262.195 143.256C268.853 128.32 276.329 110.884 279.664 90.546C279.664 86.4002 280.281 83.3205 278.619 78.7128C276.958 74.1052 275.475 63.7764 284.351 61.7391H315.763C324.639 63.7646 323.156 74.0933 321.495 78.7128C319.833 83.3205 320.45 86.4002 320.45 90.546C323.773 110.884 331.261 128.308 337.919 143.256C355.802 188.492 401.953 212.976 433.554 213.805C465.156 214.634 494.254 218.365 532.513 190.979C570.76 163.594 577.548 84.7064 578.937 73.6432C580.325 62.58 592.524 57.3208 595.289 56.2074C598.066 55.1058 600.001 52.0617 600.001 52.0617V38.4993C600.001 30.1959 591.136 29.0943 591.136 29.0943H591.124ZM260.961 100.093C256.808 123.333 248.489 187.663 179.055 203.429C125.915 213.745 86.7541 199.283 71.3626 182.676C55.983 166.081 35.1921 136.196 35.6074 81.8281C36.4381 29.5326 71.778 19.571 92.1536 14.1815C112.945 9.6212 150.1 9.62123 150.1 9.62123C150.1 9.62123 207.738 9.62125 241.001 36.5922C263.869 58.1738 265.115 76.8532 260.961 100.093ZM528.763 182.676C513.384 199.271 474.211 213.745 421.07 203.429C351.637 187.663 343.318 123.333 339.165 100.093C335.011 76.8532 336.257 58.1738 359.125 36.5922C392.388 9.62125 450.026 9.62123 450.026 9.62123C450.026 9.62123 487.181 9.6212 507.972 14.1815C528.348 19.571 563.688 29.5326 564.518 81.8281C564.934 136.196 544.143 166.081 528.763 182.676Z" fill="white" fill-opacity="0.44"/>
</svg>
