<svg width="535" height="192" viewBox="0 0 535 192" fill="none" xmlns="http://www.w3.org/2000/svg">
<path d="M527.084 25.3794C527.084 25.3794 509.78 21.8976 498.403 18.6605C468.24 6.96884 439.57 0.505388 406.433 0.00492451C335.726 -0.495539 292.217 37.3161 292.217 37.3161H242.772C242.772 37.3161 199.264 -0.495539 128.556 0.00492451C95.4302 0.505388 66.7494 6.96884 36.5868 18.6605C25.2097 21.8976 7.90575 25.3794 7.90575 25.3794C7.90575 25.3794 0 26.3698 0 33.8341V46.0262C0 46.0262 1.73564 48.7628 4.20157 49.7531C6.67808 50.7434 17.5472 55.4711 18.7855 65.4271C20.0237 75.3725 26.0668 146.289 60.1876 170.908C94.2978 195.526 120.259 192.172 148.442 191.427C176.626 190.682 217.785 168.672 233.734 128.006C239.671 114.579 246.339 98.905 249.313 80.6221C249.313 76.8952 249.863 74.1267 248.381 69.9846C246.9 65.8425 245.577 56.5573 253.493 54.7258H281.507C289.423 56.5467 288.101 65.8318 286.619 69.9846C285.137 74.1267 285.688 76.8952 285.688 80.6221C288.651 98.905 295.329 114.568 301.266 128.006C317.215 168.672 358.374 190.682 386.558 191.427C414.741 192.172 440.692 195.526 474.812 170.908C508.923 146.289 514.976 75.3725 516.215 65.4271C517.453 55.4818 528.333 50.754 530.798 49.7531C533.275 48.7628 535 46.0262 535 46.0262V33.8341C535 26.3698 527.094 25.3794 527.094 25.3794H527.084ZM232.633 89.2046C228.929 110.096 221.51 167.926 159.587 182.099C112.194 191.374 77.2692 178.372 63.5426 163.443C49.8266 148.525 31.2845 121.66 31.6549 72.7851C32.3957 25.7734 63.913 16.8184 82.0847 11.9734C100.627 7.8739 133.763 7.87393 133.763 7.87393C133.763 7.87393 185.167 7.87395 214.832 32.1198C235.226 51.5207 236.337 68.3129 232.633 89.2046ZM471.468 163.443C457.752 178.362 422.816 191.374 375.424 182.099C313.501 167.926 306.082 110.096 302.377 89.2046C298.673 68.3129 299.785 51.5207 320.179 32.1198C349.844 7.87395 401.247 7.87393 401.247 7.87393C401.247 7.87393 434.384 7.8739 452.926 11.9734C471.098 16.8184 502.615 25.7734 503.356 72.7851C503.726 121.66 485.184 148.525 471.468 163.443Z" fill="white" fill-opacity="0.44"/>
</svg>
