<svg width="80" height="81" viewBox="0 0 80 81" fill="none" xmlns="http://www.w3.org/2000/svg">
<rect x="0.5" y="0.982422" width="79" height="79" rx="39.5" fill="white"/>
<rect x="0.5" y="0.982422" width="79" height="79" rx="39.5" stroke="#E7E7E7"/>
<path d="M44.3334 36.0516C43.7859 36.8693 43.3486 37.3455 42.9552 37.9231C42.7605 38.2103 42.5788 38.534 42.4555 38.9096C42.4181 39.0207 42.3889 39.1359 42.3638 39.2535H40.163H39.9715H37.5362C37.4989 39.0791 37.4542 38.9104 37.3975 38.7522C37.2815 38.4285 37.1298 38.1438 36.9675 37.8955C36.7233 37.5215 36.4646 37.2263 36.2342 36.9472C36.0022 36.6681 35.7937 36.4053 35.6071 36.0962C35.5755 36.0443 35.5244 35.9388 35.4741 35.7985C35.3199 35.3734 35.1836 34.6498 35.1861 33.8645C35.1853 33.2861 35.255 32.6704 35.4173 32.0896C35.5381 31.6539 35.7093 31.2378 35.9365 30.8638C36.2796 30.3024 36.7363 29.8336 37.3869 29.4823C38.0375 29.1343 38.9015 28.8998 40.0794 28.8982C41.0902 28.899 41.8625 29.0767 42.462 29.3492C42.9122 29.5545 43.2691 29.8141 43.566 30.1159C44.0098 30.5677 44.3205 31.1275 44.5233 31.7497C44.7253 32.3703 44.8137 33.0485 44.8129 33.6901C44.8137 34.2483 44.7472 34.7772 44.6466 35.2031C44.5971 35.4156 44.5387 35.6022 44.4811 35.749C44.4243 35.8967 44.3659 36.0046 44.3334 36.0516ZM40.2586 45.2185C40.1735 45.3969 40.0843 45.5057 40.0429 45.5381L40.0064 45.5616C39.9991 45.564 39.9885 45.5689 39.948 45.5689C39.8952 45.5689 39.8774 45.5624 39.8693 45.56C39.8587 45.5551 39.8555 45.5584 39.8165 45.517C39.7792 45.4772 39.7192 45.3888 39.6567 45.2517C39.6081 45.1455 39.5424 45.0522 39.4653 44.9702L37.6376 43.0209C37.6368 42.6266 37.6368 42.2526 37.6368 41.9143C37.6368 41.7091 37.6368 41.5193 37.6368 41.3449H39.9715H40.163H42.2754C42.2754 41.5193 42.2754 41.7091 42.2754 41.9143C42.2754 42.2518 42.2754 42.6258 42.2745 43.0184L40.4388 44.9629C40.3674 45.0384 40.3057 45.1236 40.2586 45.2185ZM44.602 39.2276C44.7155 39.0377 44.9021 38.7927 45.1552 38.4674C45.4075 38.1421 45.7198 37.7381 46.0695 37.2181C46.2163 36.9983 46.3291 36.7647 46.4297 36.5091C46.5781 36.1271 46.6933 35.6955 46.7761 35.2209C46.8572 34.7463 46.9042 34.2312 46.9042 33.6901C46.9042 32.9543 46.8174 32.1715 46.6 31.3944C46.437 30.8111 46.1985 30.2311 45.8634 29.6843C45.3629 28.865 44.6328 28.1235 43.6601 27.6092C42.6875 27.0924 41.4925 26.8061 40.0794 26.8077C38.7847 26.8069 37.6708 27.0413 36.7388 27.4704C36.0403 27.7909 35.4481 28.22 34.9678 28.7157C34.2458 29.4596 33.777 30.3422 33.4906 31.2329C33.2042 32.1245 33.0947 33.0282 33.0947 33.8645C33.0947 34.5395 33.1661 35.1706 33.2862 35.7255C33.347 36.0037 33.4192 36.2633 33.5052 36.5035C33.592 36.7444 33.6902 36.965 33.8151 37.1735C34.0577 37.5767 34.314 37.9053 34.5411 38.1819C34.8867 38.598 35.1488 38.8998 35.2996 39.1765C35.3775 39.316 35.4343 39.4498 35.4765 39.6129C35.5187 39.776 35.5471 39.9698 35.5471 40.2246V40.2992C35.5471 40.3576 35.5454 41.0058 35.5454 41.9143C35.5454 42.3694 35.5463 42.8903 35.5471 43.437C35.5471 43.6999 35.6501 43.9578 35.8294 44.1501L37.8453 46.3007C38.001 46.6 38.2063 46.9026 38.5178 47.1614C38.7035 47.3147 38.9266 47.4453 39.1724 47.5321C39.4182 47.6189 39.6827 47.6611 39.948 47.6603C40.2238 47.6611 40.498 47.6124 40.7454 47.5183C41.1185 47.378 41.4179 47.1427 41.6377 46.8969C41.813 46.7014 41.9444 46.4978 42.0531 46.2998L44.0795 44.1525C44.2629 43.9586 44.3643 43.7039 44.3651 43.437C44.3659 42.8903 44.3667 42.3694 44.3667 41.9143C44.3667 41.0058 44.3651 40.3576 44.3651 40.2992V40.24L44.3643 40.2035V40.1361C44.3651 39.8692 44.3951 39.707 44.4413 39.5642C44.477 39.458 44.5249 39.3557 44.602 39.2276Z" fill="#DB2E20" stroke="white" stroke-width="0.6"/>
<path d="M30.5065 24.3829C30.0977 24.791 30.0985 25.4537 30.5065 25.8618L32.8656 28.2208C33.2744 28.6289 33.9364 28.6289 34.3445 28.2208C34.7533 27.812 34.7533 27.15 34.3445 26.742L31.9854 24.3829C31.5765 23.9749 30.9146 23.9749 30.5065 24.3829Z" fill="#DB2E20" stroke="white" stroke-width="0.6"/>
<path d="M31.9854 43.2163L34.3445 40.8564C34.7525 40.4484 34.7525 39.7856 34.3445 39.3776C33.9356 38.9695 33.2736 38.9695 32.8656 39.3776L30.5065 41.7374C30.0977 42.1455 30.0985 42.8074 30.5065 43.2163C30.9146 43.6244 31.5765 43.6244 31.9854 43.2163Z" fill="#DB2E20" stroke="white" stroke-width="0.6"/>
<path d="M27.6512 34.8452L30.9877 34.8444C31.5653 34.8444 32.0334 34.3763 32.0334 33.7987C32.0334 33.2211 31.5653 32.7531 30.9877 32.7531L27.6512 32.7539C27.0736 32.7539 26.6055 33.222 26.6055 33.7996C26.6055 34.3771 27.0744 34.8452 27.6512 34.8452Z" fill="#DB2E20" stroke="white" stroke-width="0.6"/>
<path d="M38.877 21.5281V25.0577C38.877 25.6353 39.345 26.1034 39.9226 26.1034C40.5002 26.1034 40.9683 25.6353 40.9683 25.0577V21.5281C40.9683 20.9505 40.5002 20.4824 39.9226 20.4824C39.345 20.4824 38.877 20.9505 38.877 21.5281Z" fill="#DB2E20" stroke="white" stroke-width="0.6"/>
<path d="M45.6559 28.2208C46.064 28.6289 46.7259 28.6289 47.1348 28.2208L49.4938 25.8618C49.9027 25.4537 49.9027 24.791 49.4938 24.3829C49.0858 23.9749 48.4238 23.9749 48.015 24.3829L45.6559 26.742C45.2479 27.15 45.2471 27.812 45.6559 28.2208Z" fill="#DB2E20" stroke="white" stroke-width="0.6"/>
<path d="M48.0147 43.2163C48.4235 43.6244 49.0855 43.6244 49.4935 43.2163C49.9024 42.8074 49.9024 42.1455 49.4935 41.7374L47.1345 39.3776C46.7264 38.9695 46.0645 38.9695 45.6556 39.3776C45.2476 39.7856 45.2476 40.4476 45.6556 40.8564L48.0147 43.2163Z" fill="#DB2E20" stroke="white" stroke-width="0.6"/>
<path d="M53.3918 33.7996C53.3918 33.222 52.9237 32.7539 52.3461 32.7539L49.0096 32.7531C48.432 32.7531 47.9639 33.2211 47.9639 33.7987C47.9639 34.3763 48.432 34.8444 49.0096 34.8444L52.3461 34.8452C52.9237 34.8452 53.3918 34.3771 53.3918 33.7996Z" fill="#DB2E20" stroke="white" stroke-width="0.6"/>
<path d="M58.7752 41.4828C58.7744 41.4804 58.7736 41.4779 58.7728 41.4755C58.7461 41.3465 58.6957 41.2208 58.6195 41.1072C58.5814 41.0496 58.5384 40.9961 58.4889 40.9474C58.4402 40.8987 58.3867 40.8549 58.3299 40.8168C58.2163 40.7413 58.0914 40.691 57.9624 40.6643C57.9591 40.6635 57.9567 40.6618 57.9535 40.6618C57.8878 40.6489 57.8213 40.6424 57.7547 40.6416H57.7499H52.4501C51.8725 40.6416 51.4045 41.1096 51.4045 41.6864C51.4045 42.264 51.8725 42.7321 52.4501 42.7321H55.2253L39.9994 57.958L22.9888 40.9474C22.5807 40.5394 21.9188 40.5394 21.5107 40.9474C21.1019 41.3554 21.1019 42.0182 21.5107 42.4263L37.4757 58.3912H27.5447C26.9671 58.3912 26.499 58.8593 26.499 59.4369C26.499 60.0145 26.9671 60.4825 27.5447 60.4825H54.3549C54.9325 60.4825 55.4005 60.0145 55.4005 59.4369C55.4005 58.8593 54.9325 58.3912 54.3549 58.3912H42.524L56.7042 44.211V46.9862C56.7042 47.5638 57.1723 48.0318 57.7499 48.0318C58.3275 48.0318 58.7955 47.5638 58.7955 46.9862V41.6872L58.7947 41.6824C58.7947 41.6158 58.7882 41.5485 58.7752 41.4828Z" fill="#DB2E20" stroke="white" stroke-width="0.6"/>
</svg>
