<svg width="62" height="62" viewBox="0 0 62 62" fill="none" xmlns="http://www.w3.org/2000/svg">
<rect x="0.5" y="0.5" width="61" height="61" rx="30.5" fill="white"/>
<rect x="0.5" y="0.5" width="61" height="61" rx="30.5" stroke="#E7E7E7"/>
<path d="M31.0003 41.6805C36.4465 41.6805 41.3343 39.2185 44.9085 36.701C47.5887 34.8131 49.5278 32.8962 50.4056 31.9676L50.9173 31.4061C51.0942 31.2022 51.1164 30.9118 50.9837 30.6863L50.9173 30.5945C50.737 30.386 48.4821 27.8157 44.9085 25.2986C41.3343 22.7812 36.4464 20.3202 31.0003 20.3201C25.5542 20.3201 20.6663 22.7812 17.0921 25.2986C14.4116 27.1867 12.4728 29.1045 11.595 30.033L11.0823 30.5945L11.0169 30.6863C10.903 30.8798 10.9029 31.1209 11.0169 31.3143L11.0823 31.4061C11.2626 31.6146 13.5186 34.1839 17.0921 36.701C20.6663 39.2185 25.5541 41.6805 31.0003 41.6805ZM31.0003 40.4393C25.7956 40.4393 21.5609 36.2046 21.5609 30.9998C21.561 25.7952 25.7957 21.5613 31.0003 21.5613C36.2049 21.5614 40.4386 25.7952 40.4388 30.9998C40.4388 36.2045 36.205 40.4392 31.0003 40.4393ZM23.7073 38.9197C22.2518 38.3307 20.8846 37.6151 19.636 36.8524L19.6243 36.8455L19.6185 36.8328C18.6974 35.0364 18.2083 33.0343 18.2083 30.9998C18.2084 28.9632 18.6978 26.9599 19.6204 25.1629L19.6273 25.1502L19.639 25.1424C20.8878 24.3798 22.2549 23.6646 23.7112 23.076L23.764 23.159C21.6496 25.1117 20.3197 27.902 20.3196 30.9998C20.3196 34.0956 21.6482 36.8842 23.7601 38.8367L23.7073 38.9197ZM38.2903 38.9236L38.2376 38.8406C40.3515 36.8879 41.68 34.0973 41.68 30.9998C41.6799 27.9068 40.3569 25.1181 38.2484 23.1658L38.3011 23.0828C39.7535 23.6712 41.1173 24.3859 42.3636 25.1473L42.3763 25.1551L42.3821 25.1678C43.3031 26.9637 43.7922 28.9651 43.7923 30.9998C43.7923 33.0367 43.302 35.0405 42.3792 36.8377L42.3734 36.8504L42.3616 36.8572L41.887 37.1414C40.7693 37.797 39.5641 38.4087 38.2903 38.9236ZM17.6185 35.5145C15.0529 33.6825 13.2031 31.8504 12.4271 31.034L12.3948 30.9998L12.4271 30.9656C13.2029 30.1484 15.0524 28.3144 17.6194 26.4813L17.7454 26.3914L17.6966 26.5379C17.2177 27.9688 16.9671 29.4761 16.9671 30.9998C16.9671 32.5219 17.2166 34.028 17.6946 35.4578L17.7435 35.6043L17.6185 35.5145ZM44.304 35.4627C44.783 34.0315 45.0335 32.5237 45.0335 30.9998C45.0335 29.4777 44.7839 27.9715 44.306 26.5418L44.2571 26.3963L44.3821 26.4861C46.9476 28.318 48.7975 30.1492 49.5735 30.9656L49.6058 31.0008L49.5735 31.035C48.8462 31.8011 47.175 33.4607 44.8538 35.1756L44.3802 35.5193L44.2552 35.6082L44.304 35.4627Z" fill="#DB2E20" stroke="white" stroke-width="0.1"/>
<path d="M30.9988 37.6567C33.8588 37.6567 36.4169 35.795 37.3133 33.0971L37.3943 32.8334C37.4516 32.6335 37.4046 32.4195 37.2732 32.2631L37.2117 32.2006C37.0568 32.0617 36.8443 32.0105 36.6463 32.06L36.5633 32.0873C36.0707 32.2888 35.5523 32.391 35.0232 32.3911C32.7768 32.3911 30.9491 30.5642 30.949 28.3178C30.949 27.3021 31.3194 26.3417 31.9959 25.5922L32.1345 25.4457C32.2814 25.2984 32.3428 25.0886 32.3035 24.8881L32.281 24.8022C32.212 24.6059 32.0499 24.4596 31.8523 24.4077L31.7654 24.3911C31.5127 24.3624 31.258 24.3442 30.9988 24.3442C27.3285 24.3443 24.3426 27.3301 24.3426 31.0004C24.3427 34.6706 27.3286 37.6565 30.9988 37.6567ZM30.9988 36.4155C28.0132 36.4153 25.5839 33.986 25.5838 31.0004C25.5838 28.2352 27.6673 25.9481 30.3465 25.6245L30.4451 25.6118L30.3963 25.6987C29.9474 26.4889 29.7078 27.3851 29.7078 28.3178C29.7079 31.2483 32.0927 33.6323 35.0232 33.6323C35.2355 33.6323 35.4469 33.62 35.656 33.5952L35.7547 33.5834L35.7058 33.6694C34.7591 35.3317 32.967 36.4155 30.9988 36.4155Z" fill="#DB2E20" stroke="white" stroke-width="0.1"/>
<path d="M30.999 44.3629C35.5777 44.3629 40.2757 42.8524 44.9697 39.8697L45.4239 39.5767C45.6747 39.412 45.767 39.097 45.6602 38.8287L45.6026 38.7173C45.4379 38.4662 45.1227 38.3742 44.8545 38.481L44.7432 38.5386C40.1081 41.5782 35.4832 43.1216 30.999 43.1216C26.7959 43.1215 22.4688 41.7651 18.125 39.0914L17.2559 38.5386C16.9703 38.3511 16.5844 38.4308 16.3965 38.7173C16.2322 38.9681 16.2731 39.2941 16.4776 39.4976L16.5752 39.5767C21.4204 42.7533 26.2732 44.3627 30.999 44.3629Z" fill="#DB2E20" stroke="white" stroke-width="0.1"/>
<path d="M44.7432 23.4614C44.9942 23.6257 45.3202 23.585 45.5235 23.3804L45.6026 23.2827V23.2817C45.7668 23.0309 45.7265 22.705 45.5215 22.5015L45.4239 22.4224C40.5789 19.2458 35.7262 17.6372 31 17.6372C26.4215 17.6372 21.7242 19.1478 17.0303 22.1304L16.5752 22.4233C16.3245 22.5881 16.2321 22.9032 16.3389 23.1714L16.3965 23.2827C16.5159 23.4645 16.7147 23.563 16.917 23.563C17.0045 23.5629 17.0929 23.5446 17.1758 23.5063L17.2559 23.4614C21.891 20.4219 26.5158 18.8784 31 18.8784C35.2036 18.8785 39.5304 20.235 43.874 22.9087L44.7432 23.4614Z" fill="#DB2E20" stroke="white" stroke-width="0.1"/>
</svg>
