<svg width="62" height="63" viewBox="0 0 62 63" fill="none" xmlns="http://www.w3.org/2000/svg">
<rect x="0.5" y="0.835205" width="61" height="61" rx="30.5" fill="white"/>
<rect x="0.5" y="0.835205" width="61" height="61" rx="30.5" stroke="#E7E7E7"/>
<path d="M35.3336 26.9044C34.7861 27.7221 34.3488 28.1983 33.9554 28.7759C33.7607 29.0631 33.5789 29.3867 33.4556 29.7623C33.4183 29.8735 33.3891 29.9887 33.364 30.1063H31.1631H30.9717H28.5364C28.4991 29.9319 28.4544 29.7632 28.3976 29.605C28.2816 29.2813 28.1299 28.9965 27.9677 28.7483C27.7235 28.3743 27.4647 28.0791 27.2344 27.8C27.0023 27.5209 26.7939 27.2581 26.6073 26.949C26.5756 26.8971 26.5245 26.7916 26.4742 26.6513C26.3201 26.2262 26.1838 25.5026 26.1863 24.7173C26.1854 24.1389 26.2552 23.5232 26.4175 22.9424C26.5383 22.5067 26.7095 22.0906 26.9366 21.7166C27.2798 21.1552 27.7365 20.6863 28.3871 20.3351C29.0377 19.9871 29.9017 19.7526 31.0796 19.751C32.0904 19.7518 32.8626 19.9295 33.4621 20.202C33.9124 20.4073 34.2693 20.6669 34.5662 20.9686C35.01 21.4205 35.3207 21.9802 35.5235 22.6025C35.7255 23.223 35.8139 23.9012 35.8131 24.5429C35.8139 25.101 35.7474 25.63 35.6468 26.0559C35.5973 26.2684 35.5389 26.455 35.4813 26.6018C35.4245 26.7494 35.3661 26.8573 35.3336 26.9044ZM31.2588 36.0713C31.1737 36.2497 31.0844 36.3584 31.0431 36.3909L31.0066 36.4144C30.9993 36.4168 30.9887 36.4217 30.9482 36.4217C30.8954 36.4217 30.8776 36.4152 30.8694 36.4128C30.8589 36.4079 30.8557 36.4112 30.8167 36.3698C30.7794 36.33 30.7194 36.2416 30.6569 36.1045C30.6082 35.9982 30.5425 35.905 30.4655 35.823L28.6378 33.8736C28.637 33.4794 28.637 33.1054 28.637 32.7671C28.637 32.5619 28.637 32.3721 28.637 32.1976H30.9717H31.1631H33.2756C33.2756 32.3721 33.2756 32.5619 33.2756 32.7671C33.2756 33.1046 33.2755 33.4786 33.2747 33.8712L31.439 35.8157C31.3676 35.8912 31.3059 35.9763 31.2588 36.0713ZM35.6022 30.0803C35.7157 29.8905 35.9023 29.6455 36.1554 29.3202C36.4077 28.9949 36.72 28.5909 37.0697 28.0709C37.2165 27.8511 37.3293 27.6175 37.4299 27.3619C37.5783 26.9798 37.6935 26.5483 37.7762 26.0737C37.8574 25.5991 37.9044 25.084 37.9044 24.5429C37.9044 23.8071 37.8176 23.0243 37.6002 22.2471C37.4372 21.6639 37.1987 21.0838 36.8636 20.5371C36.3631 19.7177 35.633 18.9763 34.6603 18.4619C33.6877 17.9452 32.4927 17.6588 31.0796 17.6605C29.7849 17.6597 28.671 17.8941 27.7389 18.3232C27.0405 18.6437 26.4483 19.0728 25.968 19.5685C25.246 20.3124 24.7772 21.195 24.4908 22.0857C24.2044 22.9772 24.0949 23.881 24.0949 24.7173C24.0949 25.3923 24.1663 26.0234 24.2863 26.5783C24.3472 26.8565 24.4194 27.1161 24.5054 27.3562C24.5922 27.5972 24.6904 27.8178 24.8153 28.0263C25.0578 28.4295 25.3142 28.758 25.5413 29.0347C25.8869 29.4508 26.1489 29.7526 26.2998 30.0292C26.3777 30.1688 26.4345 30.3026 26.4767 30.4657C26.5188 30.6287 26.5473 30.8226 26.5473 31.0773V31.152C26.5473 31.2104 26.5456 31.8586 26.5456 32.7671C26.5456 33.2222 26.5464 33.743 26.5473 34.2898C26.5473 34.5526 26.6503 34.8106 26.8295 35.0029L28.8454 37.1534C29.0012 37.4528 29.2064 37.7554 29.518 38.0141C29.7037 38.1675 29.9268 38.2981 30.1726 38.3849C30.4184 38.4717 30.6829 38.5139 30.9482 38.5131C31.224 38.5139 31.4981 38.4652 31.7456 38.3711C32.1187 38.2307 32.4181 37.9955 32.6379 37.7497C32.8131 37.5542 32.9446 37.3506 33.0533 37.1526L35.0797 35.0053C35.263 34.8114 35.3645 34.5567 35.3653 34.2898C35.3661 33.743 35.3669 33.2222 35.3669 32.7671C35.3669 31.8586 35.3653 31.2104 35.3653 31.152V31.0927L35.3645 31.0562V30.9889C35.3653 30.722 35.3953 30.5598 35.4415 30.417C35.4772 30.3107 35.5251 30.2085 35.6022 30.0803Z" fill="#DB2E20" stroke="white" stroke-width="0.6"/>
<path d="M21.5067 15.2357C21.0979 15.6437 21.0987 16.3065 21.5067 16.7146L23.8658 19.0736C24.2746 19.4817 24.9366 19.4817 25.3446 19.0736C25.7535 18.6647 25.7535 18.0028 25.3446 17.5948L22.9856 15.2357C22.5767 14.8276 21.9148 14.8276 21.5067 15.2357Z" fill="#DB2E20" stroke="white" stroke-width="0.6"/>
<path d="M22.9856 34.0691L25.3446 31.7092C25.7527 31.3012 25.7527 30.6384 25.3446 30.2304C24.9358 29.8223 24.2738 29.8223 23.8658 30.2304L21.5067 32.5902C21.0979 32.9983 21.0987 33.6602 21.5067 34.0691C21.9148 34.4771 22.5767 34.4771 22.9856 34.0691Z" fill="#DB2E20" stroke="white" stroke-width="0.6"/>
<path d="M18.6513 25.698L21.9879 25.6972C22.5655 25.6972 23.0336 25.2291 23.0336 24.6515C23.0336 24.0739 22.5655 23.6059 21.9879 23.6059L18.6513 23.6067C18.0737 23.6067 17.6057 24.0747 17.6057 24.6523C17.6057 25.2299 18.0746 25.698 18.6513 25.698Z" fill="#DB2E20" stroke="white" stroke-width="0.6"/>
<path d="M29.8771 12.3809V15.9105C29.8771 16.4881 30.3452 16.9562 30.9228 16.9562C31.5004 16.9562 31.9685 16.4881 31.9685 15.9105V12.3809C31.9685 11.8033 31.5004 11.3352 30.9228 11.3352C30.3452 11.3352 29.8771 11.8033 29.8771 12.3809Z" fill="#DB2E20" stroke="white" stroke-width="0.6"/>
<path d="M36.6561 19.0736C37.0642 19.4817 37.7261 19.4817 38.135 19.0736L40.494 16.7146C40.9029 16.3065 40.9029 15.6437 40.494 15.2357C40.086 14.8276 39.424 14.8276 39.0152 15.2357L36.6561 17.5948C36.2481 18.0028 36.2473 18.6647 36.6561 19.0736Z" fill="#DB2E20" stroke="white" stroke-width="0.6"/>
<path d="M39.0148 34.0691C39.4237 34.4771 40.0857 34.4771 40.4937 34.0691C40.9026 33.6602 40.9026 32.9983 40.4937 32.5902L38.1347 30.2304C37.7266 29.8223 37.0647 29.8223 36.6558 30.2304C36.2478 30.6384 36.2478 31.3004 36.6558 31.7092L39.0148 34.0691Z" fill="#DB2E20" stroke="white" stroke-width="0.6"/>
<path d="M44.392 24.6523C44.392 24.0747 43.9239 23.6067 43.3463 23.6067L40.0097 23.6059C39.4321 23.6059 38.9641 24.0739 38.9641 24.6515C38.9641 25.2291 39.4321 25.6972 40.0097 25.6972L43.3463 25.698C43.9239 25.698 44.392 25.2299 44.392 24.6523Z" fill="#DB2E20" stroke="white" stroke-width="0.6"/>
<path d="M49.7754 32.3356C49.7746 32.3332 49.7738 32.3307 49.773 32.3283C49.7462 32.1993 49.6959 32.0736 49.6197 31.96C49.5815 31.9024 49.5386 31.8489 49.4891 31.8002C49.4404 31.7515 49.3869 31.7077 49.3301 31.6696C49.2165 31.5941 49.0916 31.5438 48.9626 31.5171C48.9593 31.5162 48.9569 31.5146 48.9537 31.5146C48.888 31.5016 48.8214 31.4951 48.7549 31.4943H48.75H43.4503C42.8727 31.4943 42.4046 31.9624 42.4046 32.5392C42.4046 33.1168 42.8727 33.5849 43.4503 33.5849H46.2255L30.9996 48.8108L13.989 31.8002C13.5809 31.3921 12.919 31.3921 12.5109 31.8002C12.1021 32.2082 12.1021 32.871 12.5109 33.279L28.4759 49.244H18.5448C17.9672 49.244 17.4991 49.7121 17.4991 50.2897C17.4991 50.8672 17.9672 51.3353 18.5448 51.3353H45.3551C45.9327 51.3353 46.4007 50.8672 46.4007 50.2897C46.4007 49.7121 45.9327 49.244 45.3551 49.244H33.5241L47.7044 35.0637V37.839C47.7044 38.4165 48.1724 38.8846 48.75 38.8846C49.3276 38.8846 49.7957 38.4165 49.7957 37.839V32.54L49.7949 32.5351C49.7949 32.4686 49.7884 32.4013 49.7754 32.3356Z" fill="#DB2E20" stroke="white" stroke-width="0.6"/>
</svg>
