<svg width="1180" height="420" viewBox="0 0 1180 420" fill="none" xmlns="http://www.w3.org/2000/svg">
<path opacity="0.9" d="M712.903 42.2715C756.123 21.869 818.723 1.59875 896.235 2.13965V2.14062C968.965 3.22931 1031.89 17.2845 1098.15 42.7402L1098.24 42.7725L1098.32 42.7979C1110.91 46.3481 1126.76 50.0256 1139.43 52.8115C1145.77 54.2056 1151.32 55.3788 1155.3 56.2031C1157.28 56.6153 1158.87 56.9399 1159.96 57.1621C1160.51 57.2732 1160.93 57.3594 1161.22 57.417C1161.36 57.4458 1161.47 57.4667 1161.55 57.4814C1161.58 57.4888 1161.61 57.4953 1161.63 57.499C1161.64 57.5009 1161.65 57.502 1161.65 57.5029C1161.65 57.5033 1161.66 57.5037 1161.66 57.5039H1161.66L1161.85 57.543H1161.93C1161.94 57.5444 1161.95 57.5462 1161.96 57.5479C1162.07 57.5644 1162.23 57.591 1162.45 57.6318C1162.87 57.7137 1163.5 57.85 1164.25 58.0615C1165.77 58.4867 1167.78 59.2063 1169.76 60.3818C1173.68 62.7007 1177.49 66.7391 1177.49 74.0029V100.004C1177.41 100.117 1177.31 100.25 1177.21 100.397C1176.8 100.947 1176.2 101.703 1175.44 102.522C1173.99 104.086 1172.08 105.755 1169.93 106.718L1169.5 106.9L1169.49 106.904C1166.71 108.023 1159.15 111.235 1151.91 116.981C1144.68 122.723 1137.58 131.157 1136.12 142.733C1134.75 153.65 1130.75 197.622 1117.73 245.597C1104.78 293.304 1083.04 344.413 1046.6 371.036L1045.74 371.66C971.189 424.97 914.696 417.718 852.533 416.089C791.183 414.481 701.267 366.865 666.45 278.881L666.435 278.842L666.417 278.803L663.949 273.247C651.562 245.234 638.358 213.084 632.27 175.985C632.254 167.89 631.188 162.511 633.925 154.41L634.204 153.612L634.205 153.61C635.904 148.89 637.545 141.2 636.433 134.058C635.872 130.461 634.598 126.907 632.186 123.959C629.829 121.079 626.481 118.892 621.949 117.772L621.507 117.667L621.287 117.617H559.122L558.901 117.668C554.145 118.759 550.656 120.997 548.225 123.973C545.813 126.924 544.539 130.478 543.979 134.075C542.866 141.218 544.507 148.902 546.207 153.612C549.293 162.164 548.157 167.626 548.141 175.983C541.623 215.561 527.054 249.529 513.994 278.802L513.977 278.841L513.961 278.881C479.144 366.865 389.228 414.481 327.878 416.089C266.2 417.706 210.082 424.856 136.418 372.898L134.675 371.66H134.674C97.6968 345.217 75.7223 293.679 62.6738 245.597C50.4683 200.62 46.1955 159.162 44.5791 145.16L44.2891 142.733C42.835 131.146 35.7358 122.706 28.5078 116.964C21.2754 111.218 13.7173 108.012 10.916 106.901H10.917C8.60042 105.979 6.52681 104.191 4.97949 102.521C4.21972 101.702 3.6173 100.943 3.20703 100.394C3.09622 100.245 3.0031 100.11 2.92188 99.9961V74.0029C2.92188 66.7391 6.73173 62.7007 10.6484 60.3818C12.6342 59.2062 14.6385 58.4867 16.1562 58.0615C16.9113 57.85 17.5363 57.7137 17.9648 57.6318C18.1787 57.591 18.3431 57.5643 18.4492 57.5479C18.5022 57.5396 18.5406 57.5335 18.5635 57.5303C18.5749 57.5287 18.5825 57.5278 18.5859 57.5273L18.585 57.5264L18.6572 57.5186L18.7285 57.5039L18.3379 55.543C18.7101 57.4094 18.7283 57.4996 18.7295 57.5039H18.7305C18.7317 57.5037 18.7339 57.5034 18.7363 57.5029C18.7411 57.502 18.7485 57.5009 18.7578 57.499C18.7765 57.4953 18.8043 57.4888 18.8408 57.4814C18.9142 57.4668 19.0232 57.4457 19.166 57.417C19.4525 57.3594 19.8759 57.2732 20.4229 57.1621C21.5166 56.9399 23.1063 56.6153 25.0918 56.2031C29.063 55.3788 34.6194 54.2056 40.96 52.8115C53.6311 50.0256 69.4729 46.3481 82.0625 42.7979L82.1514 42.7725L82.2373 42.7402C148.497 17.2845 211.446 3.22931 284.152 2.14062L284.151 2.13965C361.664 1.59861 424.265 21.8689 467.484 42.2715C489.095 52.4733 505.855 62.7064 517.201 70.3799C522.874 74.2163 527.193 77.4118 530.088 79.6436C531.535 80.7594 532.626 81.6346 533.352 82.2275C533.715 82.524 533.987 82.7498 534.166 82.9004C534.256 82.9756 534.322 83.0324 534.365 83.0693C534.387 83.0876 534.403 83.1007 534.413 83.1094C534.418 83.1137 534.422 83.1173 534.424 83.1191C534.425 83.1201 534.425 83.1206 534.426 83.1211V83.1201L534.988 83.6055H645.398L645.961 83.1211C645.961 83.1206 645.963 83.1201 645.964 83.1191C645.966 83.1173 645.97 83.1136 645.975 83.1094C645.985 83.1008 646 83.0874 646.021 83.0693C646.065 83.0324 646.132 82.9757 646.222 82.9004C646.401 82.7498 646.673 82.524 647.036 82.2275C647.762 81.6346 648.853 80.7593 650.3 79.6436C653.194 77.4118 657.514 74.2164 663.187 70.3799C674.533 62.7064 691.292 52.4733 712.903 42.2715ZM295.378 15.3223C295.237 15.3225 295.028 15.3231 294.755 15.3242C294.207 15.3264 293.4 15.3301 292.359 15.3389C290.278 15.3564 287.26 15.3919 283.512 15.4619C276.016 15.602 265.594 15.8818 253.893 16.4424C230.528 17.5617 201.921 19.805 181.32 24.3193L181.279 24.3281L181.237 24.3389C161.239 29.6235 133.461 37.2429 110.513 56.6064C87.4582 76.06 69.4795 107.18 68.6553 159.016V159.032C67.8474 264.683 107.677 323.629 137.999 356.79L139.436 358.35C170.299 391.618 248.039 420.017 352.861 399.686L352.892 399.68L352.923 399.672C490.777 368.4 507.243 240.651 515.365 195.25C519.464 172.337 520.947 151.432 515.633 130.857C510.309 110.248 498.222 90.1786 475.553 68.8047L475.498 68.7529L475.44 68.7061L473.882 67.46C440.969 41.5053 396.757 28.5048 360.737 21.9707C342.412 18.6464 326.141 16.9853 314.449 16.1543C308.602 15.7387 303.898 15.5299 300.65 15.4258C299.027 15.3737 297.767 15.348 296.911 15.335C296.483 15.3284 296.156 15.3249 295.935 15.3232C295.824 15.3224 295.74 15.3225 295.683 15.3223C295.654 15.3222 295.632 15.3213 295.617 15.3213H295.595L295.593 17.3213L295.592 15.3213H295.538C295.502 15.3213 295.448 15.3221 295.378 15.3223ZM884.752 15.3223C884.695 15.3225 884.61 15.3224 884.5 15.3232C884.279 15.3249 883.951 15.3284 883.523 15.335C882.668 15.348 881.408 15.3737 879.784 15.4258C876.537 15.5299 871.832 15.7387 865.985 16.1543C854.294 16.9853 838.022 18.6464 819.696 21.9707C783.105 28.6085 738.06 41.9202 704.994 68.7061L704.936 68.7529L704.881 68.8047C682.212 90.1785 670.125 110.248 664.802 130.857C659.487 151.432 660.97 172.337 665.069 195.25C673.191 240.651 689.657 368.4 827.512 399.672L827.542 399.68L827.573 399.686C932.396 420.017 1010.16 391.595 1041 358.35C1071.48 325.489 1112.6 266.36 1111.78 159.032V159.024L1111.78 159.016L1111.73 156.602C1110.39 106.211 1092.62 75.7562 1069.92 56.6064C1046.97 37.2427 1019.19 29.6235 999.196 24.3389L999.155 24.3281L999.113 24.3193L997.159 23.9023C976.73 19.6656 949.177 17.5267 926.542 16.4424C914.841 15.8818 904.419 15.602 896.923 15.4619C893.174 15.3918 890.156 15.3564 888.074 15.3389C887.033 15.3301 886.226 15.3264 885.679 15.3242C885.405 15.3231 885.196 15.3225 885.056 15.3223C884.986 15.3221 884.932 15.3213 884.896 15.3213H884.843L884.841 17.3213L884.839 15.3213H884.817C884.802 15.3213 884.78 15.3222 884.752 15.3223Z" stroke="white" stroke-width="4"/>
</svg>
