<svg width="44" height="14" viewBox="0 0 44 14" fill="none" xmlns="http://www.w3.org/2000/svg">
<path d="M13.6263 9.82765L12.9491 8.17458H12.425L11.7456 9.82765H12.1692L12.278 9.54068H13.0729L13.1839 9.82765H13.6263ZM13.5521 12.1877L12.7216 11.377L13.4963 10.5641H12.9679L12.2525 11.3091V10.5641H11.8552V12.1874H12.2525V11.4442L12.9841 12.1877H13.5521ZM12.7516 5.82662H11.8574V7.46619H12.7516C13.3109 7.46619 13.5376 7.15111 13.5376 6.62477C13.5376 6.09843 13.3109 5.82662 12.7516 5.82662ZM11.7696 4.25866C11.7696 4.79928 12.0823 5.13239 12.6786 5.13239C13.2727 5.13239 13.5875 4.79928 13.5875 4.25866C13.5875 3.70698 13.2623 3.42798 12.6786 3.42798C12.0948 3.42798 11.7696 3.70698 11.7696 4.25866ZM11.8552 2.73718H12.2525V1.99371L12.9841 2.73718H13.5521L12.7216 1.92642L13.5213 1.11355H12.9679L12.2525 1.85847V1.11355H11.8552V2.73718ZM14.7888 0.98728V12.3681C14.7888 12.9097 14.3712 13.3433 13.8487 13.3433H9.66944C9.39123 13.3433 9.11259 13.2348 8.91502 13.0659L1.75313 6.84002C1.71793 6.80394 1.70662 6.76764 1.70662 6.71961C1.70662 6.67136 1.71793 6.63528 1.75313 6.5992L8.72919 0.457507C9.04304 0.180391 9.28626 0 9.66944 0H13.8605C14.3712 0 14.7888 0.457506 14.7888 0.98728ZM12.3957 9.22959H12.9554L12.6766 8.50747L12.3957 9.22959ZM1.45102 7.21342C1.36974 7.09301 1.24258 6.9124 1.24258 6.73179C1.24258 6.58703 1.27671 6.45445 1.34669 6.34621L5.40971 0.505426C5.44428 0.457728 5.45601 0.397524 5.45601 0.324814C5.45601 0.144313 5.31669 0 5.14259 0H0.928733C0.418175 0 0 0.457728 0 0.98728V12.3681C0 12.9097 0.418175 13.3433 0.928733 13.3433H5.14259C5.31669 13.3433 5.45601 13.1985 5.45601 13.0179C5.45601 12.9462 5.43276 12.8736 5.39819 12.8134L1.45102 7.21342ZM12.7536 6.17169H12.2586V7.13374H12.7536C13.0239 7.13374 13.1364 6.94195 13.1364 6.62687C13.1364 6.31833 13.0239 6.17169 12.7536 6.17169ZM12.172 4.25866C12.172 3.94071 12.3241 3.77625 12.6764 3.77625C13.0288 3.77625 13.1831 3.94071 13.1831 4.25866C13.1831 4.60904 13.0288 4.78633 12.6764 4.78633C12.3241 4.78633 12.172 4.60904 12.172 4.25866Z" fill="#ED0000"/>
<path d="M17.1036 0.0830078H18.3893V2.61893L20.3738 0.0830078H21.7386L19.4925 2.86594L21.8499 5.96992H20.35L18.3893 3.32703V5.96992H17.1036V0.0830078Z" fill="black"/>
<path d="M26.1816 3.04647V2.98062C26.1816 1.83616 25.5942 1.05388 24.6022 1.05388C23.6181 1.05388 23.0225 1.80324 23.0225 2.98881V3.05466C23.0225 4.25678 23.6894 4.9978 24.6177 4.9978C25.5784 4.9978 26.1816 4.23205 26.1816 3.04647ZM21.6815 3.063V2.99701C21.6815 1.24337 22.9196 0 24.6022 0C26.3085 0 27.5226 1.19391 27.5226 2.96409V3.02994C27.5226 4.78371 26.3641 6.05987 24.594 6.05987C22.8164 6.05987 21.6815 4.78371 21.6815 3.063Z" fill="black"/>
<path d="M30.1269 4.9316C31.2697 4.9316 31.8094 4.26462 31.8094 3.04612V2.98027C31.8094 1.76996 31.3095 1.11952 30.111 1.11952H29.603V4.9316H30.1269ZM28.3173 0.0820312H30.1746C32.1665 0.0820312 33.1506 1.20176 33.1506 2.96374V3.02972C33.1506 4.79156 32.1586 5.96908 30.1665 5.96908H28.3173V0.0820312Z" fill="black"/>
<path d="M35.1026 3.71393H36.6026L35.8565 1.16981L35.1026 3.71393ZM35.0947 0.0830078H36.7693L38.6106 5.96992H37.2693L36.8802 4.66084H34.8249L34.4357 5.96992H33.2296L35.0947 0.0830078Z" fill="black"/>
<path d="M39.1745 0.0830078H40.4602V2.61893L42.4444 0.0830078H43.8095L41.5633 2.86594L43.9205 5.96992H42.4205L40.4602 3.32703V5.96992H39.1745V0.0830078Z" fill="black"/>
<path d="M17.1096 7.36621H18.3953V12.2076H20.7049V13.2531H17.1096V7.36621Z" fill="black"/>
<path d="M24.3634 10.6341C24.3235 9.98364 24.0062 9.67106 23.4587 9.67106C22.9427 9.67106 22.5936 10.025 22.5063 10.6341H24.3634ZM21.3234 11.1531V11.087C21.3234 9.72844 22.2522 8.84766 23.4587 8.84766C24.5301 8.84766 25.4825 9.4981 25.4825 11.0375V11.3669H22.4903C22.5221 12.0835 22.8952 12.4948 23.5221 12.4948C24.0539 12.4948 24.3157 12.2564 24.3872 11.8938H25.4745C25.3393 12.8242 24.6253 13.343 23.4904 13.343C22.2364 13.343 21.3234 12.5278 21.3234 11.1531Z" fill="black"/>
<path d="M26.4586 8.94643H27.6094V9.62952C27.8158 9.20136 28.2681 8.84766 28.9586 8.84766C29.776 8.84766 30.3554 9.35779 30.3554 10.5106V13.2525H29.2046V10.6834C29.2046 10.0991 28.9824 9.81915 28.4745 9.81915C27.9824 9.81915 27.6094 10.1317 27.6094 10.7658V13.2525H26.4586V8.94643Z" fill="black"/>
<path d="M31.2593 11.9023H32.3308C32.3785 12.2889 32.5612 12.5116 33.0609 12.5116C33.5056 12.5116 33.7117 12.3384 33.7117 12.0424C33.7117 11.7459 33.4657 11.6224 32.8707 11.5318C31.7673 11.3586 31.3387 11.0296 31.3387 10.1898C31.3387 9.29235 32.1323 8.84766 32.9816 8.84766C33.9022 8.84766 34.593 9.19344 34.6958 10.1812H33.6403C33.5771 9.82749 33.3865 9.66286 32.9895 9.66286C32.6165 9.66286 32.4022 9.84388 32.4022 10.1074C32.4022 10.3792 32.6006 10.4861 33.2038 10.5767C34.2435 10.7329 34.8149 11.0049 34.8149 11.927C34.8149 12.8574 34.164 13.343 33.0692 13.343C31.9501 13.343 31.2992 12.8327 31.2593 11.9023Z" fill="black"/>
<path d="M38.5384 10.6341C38.4985 9.98364 38.1813 9.67106 37.6337 9.67106C37.1178 9.67106 36.7686 10.025 36.6813 10.6341H38.5384ZM35.4985 11.1531V11.087C35.4985 9.72844 36.4273 8.84766 37.6337 8.84766C38.7052 8.84766 39.6575 9.4981 39.6575 11.0375V11.3669H36.6654C36.6971 12.0835 37.0702 12.4948 37.6972 12.4948C38.229 12.4948 38.4908 12.2564 38.5623 11.8938H39.6495C39.5144 12.8242 38.8004 13.343 37.6655 13.343C36.4115 13.343 35.4985 12.5278 35.4985 11.1531Z" fill="black"/>
<path d="M40.3721 11.9023H41.4435C41.4912 12.2889 41.674 12.5116 42.1736 12.5116C42.6185 12.5116 42.8244 12.3384 42.8244 12.0424C42.8244 11.7459 42.5784 11.6224 41.9834 11.5318C40.88 11.3586 40.4515 11.0296 40.4515 10.1898C40.4515 9.29235 41.2451 8.84766 42.0943 8.84766C43.015 8.84766 43.7057 9.19344 43.8085 10.1812H42.753C42.6898 9.82749 42.4993 9.66286 42.1022 9.66286C41.7293 9.66286 41.5149 9.84388 41.5149 10.1074C41.5149 10.3792 41.7133 10.4861 42.3165 10.5767C43.3562 10.7329 43.9276 11.0049 43.9276 11.927C43.9276 12.8574 43.2769 13.343 42.1819 13.343C41.0628 13.343 40.412 12.8327 40.3721 11.9023Z" fill="black"/>
</svg>
