<svg width="161" height="162" viewBox="0 0 161 162" fill="none" xmlns="http://www.w3.org/2000/svg">
<path fill-rule="evenodd" clip-rule="evenodd" d="M42.5489 14.2026C43.5384 13.873 44.6247 14.0184 45.4927 14.5967L65.6104 27.9972C67.1651 29.0328 67.5859 31.1326 66.5503 32.6873C65.5147 34.242 63.4149 34.6628 61.8602 33.6272L43.1182 21.143L6.76471 33.2507V153.426L42.5489 141.508C43.2426 141.277 43.9926 141.277 44.6864 141.508L83.7472 154.517L116.127 141.576C116.869 141.28 117.693 141.255 118.451 141.508L154.235 153.426V77.7142C154.235 75.8462 155.75 74.3318 157.618 74.3318C159.486 74.3318 161 75.8462 161 77.7142V158.118C161 159.205 160.477 160.225 159.596 160.861C158.714 161.497 157.58 161.67 156.549 161.327L117.488 148.317L85.1082 161.258C84.3659 161.555 83.5426 161.579 82.7841 161.327L43.6176 148.282L4.45114 161.327C3.41976 161.67 2.28612 161.497 1.40431 160.861C0.522502 160.225 0 159.205 0 158.118V30.8122C0 29.356 0.931995 28.0633 2.31356 27.6032L42.5489 14.2026Z" fill="#363636"/>
<path fill-rule="evenodd" clip-rule="evenodd" d="M117.368 7.26471C97.039 7.26471 80.5 23.8325 80.5 44.2318C80.5 48.9925 82.7181 55.814 86.4643 63.7349C90.1513 71.5305 95.0981 79.9464 100.091 87.7419C105.076 95.5258 110.067 102.629 113.815 107.79C115.188 109.681 116.393 111.309 117.368 112.612C118.342 111.309 119.547 109.681 120.92 107.79C124.668 102.629 129.659 95.5258 134.644 87.7419C139.637 79.9464 144.584 71.5305 148.271 63.7349C152.017 55.814 154.235 48.9925 154.235 44.2318C154.235 23.8325 137.696 7.26471 117.368 7.26471ZM117.368 118.206C114.698 120.283 114.698 120.283 114.698 120.282L114.696 120.28L114.666 120.241L114.576 120.125C114.498 120.024 114.382 119.874 114.232 119.679C113.932 119.288 113.495 118.715 112.939 117.979C111.827 116.506 110.242 114.382 108.342 111.765C104.543 106.534 99.4716 99.3176 94.3944 91.3904C89.3247 83.4748 84.209 74.7885 80.3491 66.6271C76.5484 58.591 73.7353 50.6009 73.7353 44.2318C73.7353 20.1122 93.2872 0.5 117.368 0.5C141.448 0.5 161 20.1122 161 44.2318C161 50.6009 158.187 58.591 154.386 66.6271C150.526 74.7885 145.411 83.4748 140.341 91.3904C135.264 99.3176 130.192 106.534 126.394 111.765C124.493 114.382 122.908 116.506 121.796 117.979C121.241 118.715 120.803 119.288 120.503 119.679C120.353 119.874 120.238 120.024 120.159 120.125L120.069 120.241L120.04 120.28L120.038 120.282C120.037 120.283 120.037 120.283 117.368 118.206ZM117.368 118.206L120.037 120.283C119.396 121.107 118.411 121.588 117.368 121.588C116.324 121.588 115.339 121.107 114.698 120.283L117.368 118.206Z" fill="#363636"/>
<path fill-rule="evenodd" clip-rule="evenodd" d="M117.368 34.3233C111.95 34.3233 107.559 38.7149 107.559 44.1321C107.559 49.5494 111.95 53.9409 117.368 53.9409C122.785 53.9409 127.176 49.5494 127.176 44.1321C127.176 38.7149 122.785 34.3233 117.368 34.3233ZM100.794 44.1321C100.794 34.9788 108.214 27.5586 117.368 27.5586C126.521 27.5586 133.941 34.9788 133.941 44.1321C133.941 53.2854 126.521 60.7056 117.368 60.7056C108.214 60.7056 100.794 53.2854 100.794 44.1321Z" fill="#363636"/>
</svg>
