<svg width="1196" height="403" viewBox="0 0 1196 403" fill="none" xmlns="http://www.w3.org/2000/svg">
<g clip-path="url(#clip0_7_1855)">
<path opacity="0.5" d="M895.253 2.9707H894.263V400.03H895.253V2.9707Z" fill="#838383" fill-opacity="0.65"/>
<path opacity="0.2" d="M915.106 2.9707H914.116V400.03H915.106V2.9707Z" fill="#838383" fill-opacity="0.65"/>
<path opacity="0.2" d="M934.958 2.9707H933.968V400.03H934.958V2.9707Z" fill="#838383" fill-opacity="0.65"/>
<path opacity="0.2" d="M954.811 2.9707H953.821V400.03H954.811V2.9707Z" fill="#838383" fill-opacity="0.65"/>
<path opacity="0.2" d="M974.664 2.9707H973.674V400.03H974.664V2.9707Z" fill="#838383" fill-opacity="0.65"/>
<path opacity="0.5" d="M994.517 2.9707H993.527V400.03H994.517V2.9707Z" fill="#838383" fill-opacity="0.65"/>
<path opacity="0.2" d="M1014.37 2.9707H1013.38V400.03H1014.37V2.9707Z" fill="#838383" fill-opacity="0.65"/>
<path opacity="0.2" d="M1034.22 2.9707H1033.23V400.03H1034.22V2.9707Z" fill="#838383" fill-opacity="0.65"/>
<path opacity="0.2" d="M1054.08 2.9707H1053.08V400.03H1054.08V2.9707Z" fill="#838383" fill-opacity="0.65"/>
<path opacity="0.2" d="M1073.93 2.9707H1072.94V400.03H1073.93V2.9707Z" fill="#838383" fill-opacity="0.65"/>
<path opacity="0.5" d="M1093.78 2.9707H1092.79V400.03H1093.78V2.9707Z" fill="#838383" fill-opacity="0.65"/>
<path opacity="0.2" d="M1113.64 2.9707H1112.65V400.03H1113.64V2.9707Z" fill="#838383" fill-opacity="0.65"/>
<path opacity="0.2" d="M1133.49 2.9707H1132.5V400.03H1133.49V2.9707Z" fill="#838383" fill-opacity="0.65"/>
<path opacity="0.2" d="M1153.34 2.9707H1152.35V400.03H1153.34V2.9707Z" fill="#838383" fill-opacity="0.65"/>
<path opacity="0.2" d="M1173.19 2.9707H1172.2V400.03H1173.19V2.9707Z" fill="#838383" fill-opacity="0.65"/>
<path opacity="0.5" d="M1192.55 3.46558H1191.56V399.534H1192.55V3.46558Z" fill="#838383" fill-opacity="0.65"/>
<path opacity="0.5" d="M1192.06 2.9707H795.987V3.96088H1192.06V2.9707Z" fill="#838383" fill-opacity="0.65"/>
<path opacity="0.2" d="M1192.55 22.3284H795.492V23.3185H1192.55V22.3284Z" fill="#838383" fill-opacity="0.65"/>
<path opacity="0.2" d="M1192.55 42.1814H795.492V43.1716H1192.55V42.1814Z" fill="#838383" fill-opacity="0.65"/>
<path opacity="0.2" d="M1192.55 62.0344H795.492V63.0246H1192.55V62.0344Z" fill="#838383" fill-opacity="0.65"/>
<path opacity="0.2" d="M1192.55 81.8872H795.492V82.8774H1192.55V81.8872Z" fill="#838383" fill-opacity="0.65"/>
<path opacity="0.5" d="M1192.55 101.74H795.492V102.73H1192.55V101.74Z" fill="#838383" fill-opacity="0.65"/>
<path opacity="0.2" d="M1192.55 121.593H795.492V122.583H1192.55V121.593Z" fill="#838383" fill-opacity="0.65"/>
<path opacity="0.2" d="M1192.55 141.446H795.492V142.436H1192.55V141.446Z" fill="#838383" fill-opacity="0.65"/>
<path opacity="0.2" d="M1192.55 161.299H795.492V162.289H1192.55V161.299Z" fill="#838383" fill-opacity="0.65"/>
<path opacity="0.2" d="M1192.55 181.152H795.492V182.142H1192.55V181.152Z" fill="#838383" fill-opacity="0.65"/>
<path opacity="0.5" d="M1192.55 201.005H795.492V201.995H1192.55V201.005Z" fill="#838383" fill-opacity="0.65"/>
<path opacity="0.2" d="M1192.55 220.858H795.492V221.848H1192.55V220.858Z" fill="#838383" fill-opacity="0.65"/>
<path opacity="0.2" d="M1192.55 240.711H795.492V241.701H1192.55V240.711Z" fill="#838383" fill-opacity="0.65"/>
<path opacity="0.2" d="M1192.55 260.564H795.492V261.554H1192.55V260.564Z" fill="#838383" fill-opacity="0.65"/>
<path opacity="0.2" d="M1192.55 280.417H795.492V281.407H1192.55V280.417Z" fill="#838383" fill-opacity="0.65"/>
<path opacity="0.5" d="M1192.55 300.27H795.492V301.26H1192.55V300.27Z" fill="#838383" fill-opacity="0.65"/>
<path opacity="0.2" d="M1192.55 320.123H795.492V321.113H1192.55V320.123Z" fill="#838383" fill-opacity="0.65"/>
<path opacity="0.2" d="M1192.55 339.976H795.492V340.966H1192.55V339.976Z" fill="#838383" fill-opacity="0.65"/>
<path opacity="0.2" d="M1192.55 359.828H795.492V360.819H1192.55V359.828Z" fill="#838383" fill-opacity="0.65"/>
<path opacity="0.2" d="M1192.55 379.681H795.492V380.672H1192.55V379.681Z" fill="#838383" fill-opacity="0.65"/>
<path opacity="0.5" d="M1192.06 399.039H795.987V400.029H1192.06V399.039Z" fill="#838383" fill-opacity="0.65"/>
<path d="M1192.55 0H1191.56V6.9312H1192.55V0Z" fill="#838383" fill-opacity="0.65"/>
<path d="M1195.52 2.97046H1188.59V3.96063H1195.52V2.97046Z" fill="#838383" fill-opacity="0.65"/>
<path d="M1192.55 99.0173H1191.56V105.949H1192.55V99.0173Z" fill="#838383" fill-opacity="0.65"/>
<path d="M1195.52 101.988H1188.59V102.978H1195.52V101.988Z" fill="#838383" fill-opacity="0.65"/>
<path d="M1192.55 198.034H1191.56V204.966H1192.55V198.034Z" fill="#838383" fill-opacity="0.65"/>
<path d="M1195.52 201.005H1188.59V201.995H1195.52V201.005Z" fill="#838383" fill-opacity="0.65"/>
<path d="M1192.55 297.052H1191.56V303.983H1192.55V297.052Z" fill="#838383" fill-opacity="0.65"/>
<path d="M1195.52 300.022H1188.59V301.012H1195.52V300.022Z" fill="#838383" fill-opacity="0.65"/>
<path d="M895.5 0H894.509V6.9312H895.5V0Z" fill="#838383" fill-opacity="0.65"/>
<path d="M898.471 2.97046H891.539V3.96063H898.471V2.97046Z" fill="#838383" fill-opacity="0.65"/>
<path d="M895.5 99.0173H894.509V105.949H895.5V99.0173Z" fill="#838383" fill-opacity="0.65"/>
<path d="M898.471 101.988H891.539V102.978H898.471V101.988Z" fill="#838383" fill-opacity="0.65"/>
<path d="M895.5 198.034H894.509V204.966H895.5V198.034Z" fill="#838383" fill-opacity="0.65"/>
<path d="M898.471 201.005H891.539V201.995H898.471V201.005Z" fill="#838383" fill-opacity="0.65"/>
<path d="M895.5 297.052H894.509V303.983H895.5V297.052Z" fill="#838383" fill-opacity="0.65"/>
<path d="M898.471 300.022H891.539V301.012H898.471V300.022Z" fill="#838383" fill-opacity="0.65"/>
<path d="M895.5 396.069H894.509V403H895.5V396.069Z" fill="#838383" fill-opacity="0.65"/>
<path d="M898.471 399.039H891.539V400.029H898.471V399.039Z" fill="#838383" fill-opacity="0.65"/>
<path d="M994.517 0H993.527V6.9312H994.517V0Z" fill="#838383" fill-opacity="0.65"/>
<path d="M997.488 2.97046H990.557V3.96063H997.488V2.97046Z" fill="#838383" fill-opacity="0.65"/>
<path d="M994.517 99.0173H993.527V105.949H994.517V99.0173Z" fill="#838383" fill-opacity="0.65"/>
<path d="M997.488 101.988H990.557V102.978H997.488V101.988Z" fill="#838383" fill-opacity="0.65"/>
<path d="M994.517 198.034H993.527V204.966H994.517V198.034Z" fill="#838383" fill-opacity="0.65"/>
<path d="M997.488 201.005H990.557V201.995H997.488V201.005Z" fill="#838383" fill-opacity="0.65"/>
<path d="M994.517 297.052H993.527V303.983H994.517V297.052Z" fill="#838383" fill-opacity="0.65"/>
<path d="M997.488 300.022H990.557V301.012H997.488V300.022Z" fill="#838383" fill-opacity="0.65"/>
<path d="M994.517 396.069H993.527V403H994.517V396.069Z" fill="#838383" fill-opacity="0.65"/>
<path d="M997.488 399.039H990.557V400.029H997.488V399.039Z" fill="#838383" fill-opacity="0.65"/>
<path d="M1093.53 0H1092.54V6.9312H1093.53V0Z" fill="#838383" fill-opacity="0.65"/>
<path d="M1096.5 2.97046H1089.57V3.96063H1096.5V2.97046Z" fill="#838383" fill-opacity="0.65"/>
<path d="M1093.53 99.0173H1092.54V105.949H1093.53V99.0173Z" fill="#838383" fill-opacity="0.65"/>
<path d="M1096.5 101.988H1089.57V102.978H1096.5V101.988Z" fill="#838383" fill-opacity="0.65"/>
<path d="M1093.53 198.034H1092.54V204.966H1093.53V198.034Z" fill="#838383" fill-opacity="0.65"/>
<path d="M1096.5 201.005H1089.57V201.995H1096.5V201.005Z" fill="#838383" fill-opacity="0.65"/>
<path d="M1093.53 297.052H1092.54V303.983H1093.53V297.052Z" fill="#838383" fill-opacity="0.65"/>
<path d="M1096.5 300.022H1089.57V301.012H1096.5V300.022Z" fill="#838383" fill-opacity="0.65"/>
<path d="M1093.53 396.069H1092.54V403H1093.53V396.069Z" fill="#838383" fill-opacity="0.65"/>
<path d="M1096.5 399.039H1089.57V400.029H1096.5V399.039Z" fill="#838383" fill-opacity="0.65"/>
<path d="M1192.55 396.069H1191.56V403H1192.55V396.069Z" fill="#838383" fill-opacity="0.65"/>
<path d="M1195.52 399.039H1188.59V400.029H1195.52V399.039Z" fill="#838383" fill-opacity="0.65"/>
<path d="M945.007 52.479H944.017V53.4692H945.007V52.479Z" fill="#838383" fill-opacity="0.65"/>
<path d="M1044.03 52.479H1043.04V53.4692H1044.03V52.479Z" fill="#838383" fill-opacity="0.65"/>
<path d="M1143.04 52.479H1142.05V53.4692H1143.04V52.479Z" fill="#838383" fill-opacity="0.65"/>
<path d="M945.007 151.496H944.017V152.487H945.007V151.496Z" fill="#838383" fill-opacity="0.65"/>
<path d="M1044.03 151.496H1043.04V152.487H1044.03V151.496Z" fill="#838383" fill-opacity="0.65"/>
<path d="M1143.04 151.496H1142.05V152.487H1143.04V151.496Z" fill="#838383" fill-opacity="0.65"/>
<path d="M945.007 250.513H944.017V251.504H945.007V250.513Z" fill="#838383" fill-opacity="0.65"/>
<path d="M1044.03 250.513H1043.04V251.504H1044.03V250.513Z" fill="#838383" fill-opacity="0.65"/>
<path d="M1143.04 250.513H1142.05V251.504H1143.04V250.513Z" fill="#838383" fill-opacity="0.65"/>
<path d="M945.007 349.531H944.017V350.521H945.007V349.531Z" fill="#838383" fill-opacity="0.65"/>
<path d="M1044.03 349.531H1043.04V350.521H1044.03V349.531Z" fill="#838383" fill-opacity="0.65"/>
<path d="M1143.04 349.531H1142.05V350.521H1143.04V349.531Z" fill="#838383" fill-opacity="0.65"/>
</g>
<g clip-path="url(#clip1_7_1855)">
<path opacity="0.5" d="M597.651 2.9707H596.66V400.03H597.651V2.9707Z" fill="#838383" fill-opacity="0.65"/>
<path opacity="0.2" d="M617.503 2.9707H616.513V400.03H617.503V2.9707Z" fill="#838383" fill-opacity="0.65"/>
<path opacity="0.2" d="M637.356 2.9707H636.366V400.03H637.356V2.9707Z" fill="#838383" fill-opacity="0.65"/>
<path opacity="0.2" d="M657.209 2.9707H656.219V400.03H657.209V2.9707Z" fill="#838383" fill-opacity="0.65"/>
<path opacity="0.2" d="M677.062 2.9707H676.072V400.03H677.062V2.9707Z" fill="#838383" fill-opacity="0.65"/>
<path opacity="0.5" d="M696.914 2.9707H695.924V400.03H696.914V2.9707Z" fill="#838383" fill-opacity="0.65"/>
<path opacity="0.2" d="M716.767 2.9707H715.777V400.03H716.767V2.9707Z" fill="#838383" fill-opacity="0.65"/>
<path opacity="0.2" d="M736.622 2.9707H735.632V400.03H736.622V2.9707Z" fill="#838383" fill-opacity="0.65"/>
<path opacity="0.2" d="M756.473 2.9707H755.483V400.03H756.473V2.9707Z" fill="#838383" fill-opacity="0.65"/>
<path opacity="0.2" d="M776.328 2.9707H775.338V400.03H776.328V2.9707Z" fill="#838383" fill-opacity="0.65"/>
<path opacity="0.5" d="M796.178 2.9707H795.188V400.03H796.178V2.9707Z" fill="#838383" fill-opacity="0.65"/>
<path opacity="0.2" d="M816.033 2.9707H815.043V400.03H816.033V2.9707Z" fill="#838383" fill-opacity="0.65"/>
<path opacity="0.2" d="M835.884 2.9707H834.894V400.03H835.884V2.9707Z" fill="#838383" fill-opacity="0.65"/>
<path opacity="0.2" d="M855.739 2.9707H854.749V400.03H855.739V2.9707Z" fill="#838383" fill-opacity="0.65"/>
<path opacity="0.2" d="M875.592 2.9707H874.601V400.03H875.592V2.9707Z" fill="#838383" fill-opacity="0.65"/>
<path opacity="0.5" d="M894.949 3.46558H893.959V399.534H894.949V3.46558Z" fill="#838383" fill-opacity="0.65"/>
<path opacity="0.5" d="M894.454 2.9707H498.385V3.96088H894.454V2.9707Z" fill="#838383" fill-opacity="0.65"/>
<path opacity="0.2" d="M894.949 22.3284H497.89V23.3185H894.949V22.3284Z" fill="#838383" fill-opacity="0.65"/>
<path opacity="0.2" d="M894.949 42.1814H497.89V43.1716H894.949V42.1814Z" fill="#838383" fill-opacity="0.65"/>
<path opacity="0.2" d="M894.949 62.0344H497.89V63.0246H894.949V62.0344Z" fill="#838383" fill-opacity="0.65"/>
<path opacity="0.2" d="M894.949 81.8872H497.89V82.8774H894.949V81.8872Z" fill="#838383" fill-opacity="0.65"/>
<path opacity="0.5" d="M894.949 101.74H497.89V102.73H894.949V101.74Z" fill="#838383" fill-opacity="0.65"/>
<path opacity="0.2" d="M894.949 121.593H497.89V122.583H894.949V121.593Z" fill="#838383" fill-opacity="0.65"/>
<path opacity="0.2" d="M894.949 141.446H497.89V142.436H894.949V141.446Z" fill="#838383" fill-opacity="0.65"/>
<path opacity="0.2" d="M894.949 161.299H497.89V162.289H894.949V161.299Z" fill="#838383" fill-opacity="0.65"/>
<path opacity="0.2" d="M894.949 181.152H497.89V182.142H894.949V181.152Z" fill="#838383" fill-opacity="0.65"/>
<path opacity="0.5" d="M894.949 201.005H497.89V201.995H894.949V201.005Z" fill="#838383" fill-opacity="0.65"/>
<path opacity="0.2" d="M894.949 220.858H497.89V221.848H894.949V220.858Z" fill="#838383" fill-opacity="0.65"/>
<path opacity="0.2" d="M894.949 240.711H497.89V241.701H894.949V240.711Z" fill="#838383" fill-opacity="0.65"/>
<path opacity="0.2" d="M894.949 260.564H497.89V261.554H894.949V260.564Z" fill="#838383" fill-opacity="0.65"/>
<path opacity="0.2" d="M894.949 280.417H497.89V281.407H894.949V280.417Z" fill="#838383" fill-opacity="0.65"/>
<path opacity="0.5" d="M894.949 300.27H497.89V301.26H894.949V300.27Z" fill="#838383" fill-opacity="0.65"/>
<path opacity="0.2" d="M894.949 320.123H497.89V321.113H894.949V320.123Z" fill="#838383" fill-opacity="0.65"/>
<path opacity="0.2" d="M894.949 339.976H497.89V340.966H894.949V339.976Z" fill="#838383" fill-opacity="0.65"/>
<path opacity="0.2" d="M894.949 359.828H497.89V360.819H894.949V359.828Z" fill="#838383" fill-opacity="0.65"/>
<path opacity="0.2" d="M894.949 379.681H497.89V380.672H894.949V379.681Z" fill="#838383" fill-opacity="0.65"/>
<path opacity="0.5" d="M894.454 399.039H498.385V400.029H894.454V399.039Z" fill="#838383" fill-opacity="0.65"/>
<path d="M894.949 0H893.959V6.9312H894.949V0Z" fill="#838383" fill-opacity="0.65"/>
<path d="M897.92 2.97046H890.989V3.96063H897.92V2.97046Z" fill="#838383" fill-opacity="0.65"/>
<path d="M894.949 99.0173H893.959V105.949H894.949V99.0173Z" fill="#838383" fill-opacity="0.65"/>
<path d="M897.92 101.988H890.989V102.978H897.92V101.988Z" fill="#838383" fill-opacity="0.65"/>
<path d="M894.949 198.034H893.959V204.966H894.949V198.034Z" fill="#838383" fill-opacity="0.65"/>
<path d="M897.92 201.005H890.989V201.995H897.92V201.005Z" fill="#838383" fill-opacity="0.65"/>
<path d="M894.949 297.052H893.959V303.983H894.949V297.052Z" fill="#838383" fill-opacity="0.65"/>
<path d="M897.92 300.022H890.989V301.012H897.92V300.022Z" fill="#838383" fill-opacity="0.65"/>
<path d="M597.897 0H596.907V6.9312H597.897V0Z" fill="#838383" fill-opacity="0.65"/>
<path d="M600.868 2.97046H593.937V3.96063H600.868V2.97046Z" fill="#838383" fill-opacity="0.65"/>
<path d="M597.897 99.0173H596.907V105.949H597.897V99.0173Z" fill="#838383" fill-opacity="0.65"/>
<path d="M600.868 101.988H593.937V102.978H600.868V101.988Z" fill="#838383" fill-opacity="0.65"/>
<path d="M597.897 198.034H596.907V204.966H597.897V198.034Z" fill="#838383" fill-opacity="0.65"/>
<path d="M600.868 201.005H593.937V201.995H600.868V201.005Z" fill="#838383" fill-opacity="0.65"/>
<path d="M597.897 297.052H596.907V303.983H597.897V297.052Z" fill="#838383" fill-opacity="0.65"/>
<path d="M600.868 300.022H593.937V301.012H600.868V300.022Z" fill="#838383" fill-opacity="0.65"/>
<path d="M597.897 396.069H596.907V403H597.897V396.069Z" fill="#838383" fill-opacity="0.65"/>
<path d="M600.868 399.039H593.937V400.029H600.868V399.039Z" fill="#838383" fill-opacity="0.65"/>
<path d="M696.914 0H695.924V6.9312H696.914V0Z" fill="#838383" fill-opacity="0.65"/>
<path d="M699.885 2.97046H692.954V3.96063H699.885V2.97046Z" fill="#838383" fill-opacity="0.65"/>
<path d="M696.914 99.0173H695.924V105.949H696.914V99.0173Z" fill="#838383" fill-opacity="0.65"/>
<path d="M699.885 101.988H692.954V102.978H699.885V101.988Z" fill="#838383" fill-opacity="0.65"/>
<path d="M696.914 198.034H695.924V204.966H696.914V198.034Z" fill="#838383" fill-opacity="0.65"/>
<path d="M699.885 201.005H692.954V201.995H699.885V201.005Z" fill="#838383" fill-opacity="0.65"/>
<path d="M696.914 297.052H695.924V303.983H696.914V297.052Z" fill="#838383" fill-opacity="0.65"/>
<path d="M699.885 300.022H692.954V301.012H699.885V300.022Z" fill="#838383" fill-opacity="0.65"/>
<path d="M696.914 396.069H695.924V403H696.914V396.069Z" fill="#838383" fill-opacity="0.65"/>
<path d="M699.885 399.039H692.954V400.029H699.885V399.039Z" fill="#838383" fill-opacity="0.65"/>
<path d="M795.932 0H794.942V6.9312H795.932V0Z" fill="#838383" fill-opacity="0.65"/>
<path d="M798.903 2.97046H791.971V3.96063H798.903V2.97046Z" fill="#838383" fill-opacity="0.65"/>
<path d="M795.932 99.0173H794.942V105.949H795.932V99.0173Z" fill="#838383" fill-opacity="0.65"/>
<path d="M798.903 101.988H791.971V102.978H798.903V101.988Z" fill="#838383" fill-opacity="0.65"/>
<path d="M795.932 198.034H794.942V204.966H795.932V198.034Z" fill="#838383" fill-opacity="0.65"/>
<path d="M798.903 201.005H791.971V201.995H798.903V201.005Z" fill="#838383" fill-opacity="0.65"/>
<path d="M795.932 297.052H794.942V303.983H795.932V297.052Z" fill="#838383" fill-opacity="0.65"/>
<path d="M798.903 300.022H791.971V301.012H798.903V300.022Z" fill="#838383" fill-opacity="0.65"/>
<path d="M795.932 396.069H794.942V403H795.932V396.069Z" fill="#838383" fill-opacity="0.65"/>
<path d="M798.903 399.039H791.971V400.029H798.903V399.039Z" fill="#838383" fill-opacity="0.65"/>
<path d="M894.949 396.069H893.959V403H894.949V396.069Z" fill="#838383" fill-opacity="0.65"/>
<path d="M897.92 399.039H890.989V400.029H897.92V399.039Z" fill="#838383" fill-opacity="0.65"/>
<path d="M647.405 52.479H646.415V53.4692H647.405V52.479Z" fill="#838383" fill-opacity="0.65"/>
<path d="M746.424 52.479H745.434V53.4692H746.424V52.479Z" fill="#838383" fill-opacity="0.65"/>
<path d="M845.439 52.479H844.449V53.4692H845.439V52.479Z" fill="#838383" fill-opacity="0.65"/>
<path d="M647.405 151.496H646.415V152.487H647.405V151.496Z" fill="#838383" fill-opacity="0.65"/>
<path d="M746.424 151.496H745.434V152.487H746.424V151.496Z" fill="#838383" fill-opacity="0.65"/>
<path d="M845.439 151.496H844.449V152.487H845.439V151.496Z" fill="#838383" fill-opacity="0.65"/>
<path d="M647.405 250.513H646.415V251.504H647.405V250.513Z" fill="#838383" fill-opacity="0.65"/>
<path d="M746.424 250.513H745.434V251.504H746.424V250.513Z" fill="#838383" fill-opacity="0.65"/>
<path d="M845.439 250.513H844.449V251.504H845.439V250.513Z" fill="#838383" fill-opacity="0.65"/>
<path d="M647.405 349.531H646.415V350.521H647.405V349.531Z" fill="#838383" fill-opacity="0.65"/>
<path d="M746.424 349.531H745.434V350.521H746.424V349.531Z" fill="#838383" fill-opacity="0.65"/>
<path d="M845.439 349.531H844.449V350.521H845.439V349.531Z" fill="#838383" fill-opacity="0.65"/>
</g>
<g clip-path="url(#clip2_7_1855)">
<path opacity="0.5" d="M300.617 2.9707H299.627V400.03H300.617V2.9707Z" fill="#838383" fill-opacity="0.65"/>
<path opacity="0.2" d="M320.47 2.9707H319.48V400.03H320.47V2.9707Z" fill="#838383" fill-opacity="0.65"/>
<path opacity="0.2" d="M340.323 2.9707H339.332V400.03H340.323V2.9707Z" fill="#838383" fill-opacity="0.65"/>
<path opacity="0.2" d="M360.175 2.9707H359.185V400.03H360.175V2.9707Z" fill="#838383" fill-opacity="0.65"/>
<path opacity="0.2" d="M380.028 2.9707H379.038V400.03H380.028V2.9707Z" fill="#838383" fill-opacity="0.65"/>
<path opacity="0.5" d="M399.881 2.9707H398.891V400.03H399.881V2.9707Z" fill="#838383" fill-opacity="0.65"/>
<path opacity="0.2" d="M419.734 2.9707H418.743V400.03H419.734V2.9707Z" fill="#838383" fill-opacity="0.65"/>
<path opacity="0.2" d="M439.589 2.9707H438.598V400.03H439.589V2.9707Z" fill="#838383" fill-opacity="0.65"/>
<path opacity="0.2" d="M459.439 2.9707H458.449V400.03H459.439V2.9707Z" fill="#838383" fill-opacity="0.65"/>
<path opacity="0.2" d="M479.294 2.9707H478.304V400.03H479.294V2.9707Z" fill="#838383" fill-opacity="0.65"/>
<path opacity="0.5" d="M499.145 2.9707H498.154V400.03H499.145V2.9707Z" fill="#838383" fill-opacity="0.65"/>
<path opacity="0.2" d="M519 2.9707H518.009V400.03H519V2.9707Z" fill="#838383" fill-opacity="0.65"/>
<path opacity="0.2" d="M538.85 2.9707H537.86V400.03H538.85V2.9707Z" fill="#838383" fill-opacity="0.65"/>
<path opacity="0.2" d="M558.705 2.9707H557.715V400.03H558.705V2.9707Z" fill="#838383" fill-opacity="0.65"/>
<path opacity="0.2" d="M578.558 2.9707H577.568V400.03H578.558V2.9707Z" fill="#838383" fill-opacity="0.65"/>
<path opacity="0.5" d="M597.915 3.46558H596.925V399.534H597.915V3.46558Z" fill="#838383" fill-opacity="0.65"/>
<path opacity="0.5" d="M597.42 2.9707H201.352V3.96088H597.42V2.9707Z" fill="#838383" fill-opacity="0.65"/>
<path opacity="0.2" d="M597.915 22.3284H200.856V23.3185H597.915V22.3284Z" fill="#838383" fill-opacity="0.65"/>
<path opacity="0.2" d="M597.915 42.1814H200.856V43.1716H597.915V42.1814Z" fill="#838383" fill-opacity="0.65"/>
<path opacity="0.2" d="M597.915 62.0344H200.856V63.0246H597.915V62.0344Z" fill="#838383" fill-opacity="0.65"/>
<path opacity="0.2" d="M597.915 81.8872H200.856V82.8774H597.915V81.8872Z" fill="#838383" fill-opacity="0.65"/>
<path opacity="0.5" d="M597.915 101.74H200.856V102.73H597.915V101.74Z" fill="#838383" fill-opacity="0.65"/>
<path opacity="0.2" d="M597.915 121.593H200.856V122.583H597.915V121.593Z" fill="#838383" fill-opacity="0.65"/>
<path opacity="0.2" d="M597.915 141.446H200.856V142.436H597.915V141.446Z" fill="#838383" fill-opacity="0.65"/>
<path opacity="0.2" d="M597.915 161.299H200.856V162.289H597.915V161.299Z" fill="#838383" fill-opacity="0.65"/>
<path opacity="0.2" d="M597.915 181.152H200.856V182.142H597.915V181.152Z" fill="#838383" fill-opacity="0.65"/>
<path opacity="0.5" d="M597.915 201.005H200.856V201.995H597.915V201.005Z" fill="#838383" fill-opacity="0.65"/>
<path opacity="0.2" d="M597.915 220.858H200.856V221.848H597.915V220.858Z" fill="#838383" fill-opacity="0.65"/>
<path opacity="0.2" d="M597.915 240.711H200.856V241.701H597.915V240.711Z" fill="#838383" fill-opacity="0.65"/>
<path opacity="0.2" d="M597.915 260.564H200.856V261.554H597.915V260.564Z" fill="#838383" fill-opacity="0.65"/>
<path opacity="0.2" d="M597.915 280.417H200.856V281.407H597.915V280.417Z" fill="#838383" fill-opacity="0.65"/>
<path opacity="0.5" d="M597.915 300.27H200.856V301.26H597.915V300.27Z" fill="#838383" fill-opacity="0.65"/>
<path opacity="0.2" d="M597.915 320.123H200.856V321.113H597.915V320.123Z" fill="#838383" fill-opacity="0.65"/>
<path opacity="0.2" d="M597.915 339.976H200.856V340.966H597.915V339.976Z" fill="#838383" fill-opacity="0.65"/>
<path opacity="0.2" d="M597.915 359.828H200.856V360.819H597.915V359.828Z" fill="#838383" fill-opacity="0.65"/>
<path opacity="0.2" d="M597.915 379.681H200.856V380.672H597.915V379.681Z" fill="#838383" fill-opacity="0.65"/>
<path opacity="0.5" d="M597.42 399.039H201.352V400.029H597.42V399.039Z" fill="#838383" fill-opacity="0.65"/>
<path d="M597.915 0H596.925V6.9312H597.915V0Z" fill="#838383" fill-opacity="0.65"/>
<path d="M600.886 2.97046H593.955V3.96063H600.886V2.97046Z" fill="#838383" fill-opacity="0.65"/>
<path d="M597.915 99.0173H596.925V105.949H597.915V99.0173Z" fill="#838383" fill-opacity="0.65"/>
<path d="M600.886 101.988H593.955V102.978H600.886V101.988Z" fill="#838383" fill-opacity="0.65"/>
<path d="M597.915 198.034H596.925V204.966H597.915V198.034Z" fill="#838383" fill-opacity="0.65"/>
<path d="M600.886 201.005H593.955V201.995H600.886V201.005Z" fill="#838383" fill-opacity="0.65"/>
<path d="M597.915 297.052H596.925V303.983H597.915V297.052Z" fill="#838383" fill-opacity="0.65"/>
<path d="M600.886 300.022H593.955V301.012H600.886V300.022Z" fill="#838383" fill-opacity="0.65"/>
<path d="M300.864 0H299.873V6.9312H300.864V0Z" fill="#838383" fill-opacity="0.65"/>
<path d="M303.834 2.97046H296.903V3.96063H303.834V2.97046Z" fill="#838383" fill-opacity="0.65"/>
<path d="M300.864 99.0173H299.873V105.949H300.864V99.0173Z" fill="#838383" fill-opacity="0.65"/>
<path d="M303.834 101.988H296.903V102.978H303.834V101.988Z" fill="#838383" fill-opacity="0.65"/>
<path d="M300.864 198.034H299.873V204.966H300.864V198.034Z" fill="#838383" fill-opacity="0.65"/>
<path d="M303.834 201.005H296.903V201.995H303.834V201.005Z" fill="#838383" fill-opacity="0.65"/>
<path d="M300.864 297.052H299.873V303.983H300.864V297.052Z" fill="#838383" fill-opacity="0.65"/>
<path d="M303.834 300.022H296.903V301.012H303.834V300.022Z" fill="#838383" fill-opacity="0.65"/>
<path d="M300.864 396.069H299.873V403H300.864V396.069Z" fill="#838383" fill-opacity="0.65"/>
<path d="M303.834 399.039H296.903V400.029H303.834V399.039Z" fill="#838383" fill-opacity="0.65"/>
<path d="M399.881 0H398.891V6.9312H399.881V0Z" fill="#838383" fill-opacity="0.65"/>
<path d="M402.852 2.97046H395.921V3.96063H402.852V2.97046Z" fill="#838383" fill-opacity="0.65"/>
<path d="M399.881 99.0173H398.891V105.949H399.881V99.0173Z" fill="#838383" fill-opacity="0.65"/>
<path d="M402.852 101.988H395.921V102.978H402.852V101.988Z" fill="#838383" fill-opacity="0.65"/>
<path d="M399.881 198.034H398.891V204.966H399.881V198.034Z" fill="#838383" fill-opacity="0.65"/>
<path d="M402.852 201.005H395.921V201.995H402.852V201.005Z" fill="#838383" fill-opacity="0.65"/>
<path d="M399.881 297.052H398.891V303.983H399.881V297.052Z" fill="#838383" fill-opacity="0.65"/>
<path d="M402.852 300.022H395.921V301.012H402.852V300.022Z" fill="#838383" fill-opacity="0.65"/>
<path d="M399.881 396.069H398.891V403H399.881V396.069Z" fill="#838383" fill-opacity="0.65"/>
<path d="M402.852 399.039H395.921V400.029H402.852V399.039Z" fill="#838383" fill-opacity="0.65"/>
<path d="M498.898 0H497.908V6.9312H498.898V0Z" fill="#838383" fill-opacity="0.65"/>
<path d="M501.869 2.97046H494.938V3.96063H501.869V2.97046Z" fill="#838383" fill-opacity="0.65"/>
<path d="M498.898 99.0173H497.908V105.949H498.898V99.0173Z" fill="#838383" fill-opacity="0.65"/>
<path d="M501.869 101.988H494.938V102.978H501.869V101.988Z" fill="#838383" fill-opacity="0.65"/>
<path d="M498.898 198.034H497.908V204.966H498.898V198.034Z" fill="#838383" fill-opacity="0.65"/>
<path d="M501.869 201.005H494.938V201.995H501.869V201.005Z" fill="#838383" fill-opacity="0.65"/>
<path d="M498.898 297.052H497.908V303.983H498.898V297.052Z" fill="#838383" fill-opacity="0.65"/>
<path d="M501.869 300.022H494.938V301.012H501.869V300.022Z" fill="#838383" fill-opacity="0.65"/>
<path d="M498.898 396.069H497.908V403H498.898V396.069Z" fill="#838383" fill-opacity="0.65"/>
<path d="M501.869 399.039H494.938V400.029H501.869V399.039Z" fill="#838383" fill-opacity="0.65"/>
<path d="M597.915 396.069H596.925V403H597.915V396.069Z" fill="#838383" fill-opacity="0.65"/>
<path d="M600.886 399.039H593.955V400.029H600.886V399.039Z" fill="#838383" fill-opacity="0.65"/>
<path d="M350.371 52.479H349.381V53.4692H350.371V52.479Z" fill="#838383" fill-opacity="0.65"/>
<path d="M449.391 52.479H448.4V53.4692H449.391V52.479Z" fill="#838383" fill-opacity="0.65"/>
<path d="M548.406 52.479H547.415V53.4692H548.406V52.479Z" fill="#838383" fill-opacity="0.65"/>
<path d="M350.371 151.496H349.381V152.487H350.371V151.496Z" fill="#838383" fill-opacity="0.65"/>
<path d="M449.391 151.496H448.4V152.487H449.391V151.496Z" fill="#838383" fill-opacity="0.65"/>
<path d="M548.406 151.496H547.415V152.487H548.406V151.496Z" fill="#838383" fill-opacity="0.65"/>
<path d="M350.371 250.513H349.381V251.504H350.371V250.513Z" fill="#838383" fill-opacity="0.65"/>
<path d="M449.391 250.513H448.4V251.504H449.391V250.513Z" fill="#838383" fill-opacity="0.65"/>
<path d="M548.406 250.513H547.415V251.504H548.406V250.513Z" fill="#838383" fill-opacity="0.65"/>
<path d="M350.371 349.531H349.381V350.521H350.371V349.531Z" fill="#838383" fill-opacity="0.65"/>
<path d="M449.391 349.531H448.4V350.521H449.391V349.531Z" fill="#838383" fill-opacity="0.65"/>
<path d="M548.406 349.531H547.415V350.521H548.406V349.531Z" fill="#838383" fill-opacity="0.65"/>
</g>
<g clip-path="url(#clip3_7_1855)">
<path opacity="0.5" d="M3.57937 2.9707H2.5892V400.03H3.57937V2.9707Z" fill="#838383" fill-opacity="0.65"/>
<path opacity="0.2" d="M23.4321 2.9707H22.442V400.03H23.4321V2.9707Z" fill="#838383" fill-opacity="0.65"/>
<path opacity="0.2" d="M43.2849 2.9707H42.2947V400.03H43.2849V2.9707Z" fill="#838383" fill-opacity="0.65"/>
<path opacity="0.2" d="M63.1377 2.9707H62.1475V400.03H63.1377V2.9707Z" fill="#838383" fill-opacity="0.65"/>
<path opacity="0.2" d="M82.9905 2.9707H82.0003V400.03H82.9905V2.9707Z" fill="#838383" fill-opacity="0.65"/>
<path opacity="0.5" d="M102.843 2.9707H101.853V400.03H102.843V2.9707Z" fill="#838383" fill-opacity="0.65"/>
<path opacity="0.2" d="M122.696 2.9707H121.706V400.03H122.696V2.9707Z" fill="#838383" fill-opacity="0.65"/>
<path opacity="0.2" d="M142.551 2.9707H141.561V400.03H142.551V2.9707Z" fill="#838383" fill-opacity="0.65"/>
<path opacity="0.2" d="M162.402 2.9707H161.411V400.03H162.402V2.9707Z" fill="#838383" fill-opacity="0.65"/>
<path opacity="0.2" d="M182.256 2.9707H181.266V400.03H182.256V2.9707Z" fill="#838383" fill-opacity="0.65"/>
<path opacity="0.5" d="M202.107 2.9707H201.117V400.03H202.107V2.9707Z" fill="#838383" fill-opacity="0.65"/>
<path opacity="0.2" d="M221.962 2.9707H220.972V400.03H221.962V2.9707Z" fill="#838383" fill-opacity="0.65"/>
<path opacity="0.2" d="M241.813 2.9707H240.822V400.03H241.813V2.9707Z" fill="#838383" fill-opacity="0.65"/>
<path opacity="0.2" d="M261.668 2.9707H260.677V400.03H261.668V2.9707Z" fill="#838383" fill-opacity="0.65"/>
<path opacity="0.2" d="M281.52 2.9707H280.53V400.03H281.52V2.9707Z" fill="#838383" fill-opacity="0.65"/>
<path opacity="0.5" d="M300.878 3.46558H299.888V399.534H300.878V3.46558Z" fill="#838383" fill-opacity="0.65"/>
<path opacity="0.5" d="M300.383 2.9707H-95.6861V3.96088H300.383V2.9707Z" fill="#838383" fill-opacity="0.65"/>
<path opacity="0.2" d="M300.878 22.3284H-96.1815V23.3185H300.878V22.3284Z" fill="#838383" fill-opacity="0.65"/>
<path opacity="0.2" d="M300.878 42.1814H-96.1815V43.1716H300.878V42.1814Z" fill="#838383" fill-opacity="0.65"/>
<path opacity="0.2" d="M300.878 62.0344H-96.1815V63.0246H300.878V62.0344Z" fill="#838383" fill-opacity="0.65"/>
<path opacity="0.2" d="M300.878 81.8872H-96.1815V82.8774H300.878V81.8872Z" fill="#838383" fill-opacity="0.65"/>
<path opacity="0.5" d="M300.878 101.74H-96.1815V102.73H300.878V101.74Z" fill="#838383" fill-opacity="0.65"/>
<path opacity="0.2" d="M300.878 121.593H-96.1815V122.583H300.878V121.593Z" fill="#838383" fill-opacity="0.65"/>
<path opacity="0.2" d="M300.878 141.446H-96.1815V142.436H300.878V141.446Z" fill="#838383" fill-opacity="0.65"/>
<path opacity="0.2" d="M300.878 161.299H-96.1815V162.289H300.878V161.299Z" fill="#838383" fill-opacity="0.65"/>
<path opacity="0.2" d="M300.878 181.152H-96.1815V182.142H300.878V181.152Z" fill="#838383" fill-opacity="0.65"/>
<path opacity="0.5" d="M300.878 201.005H-96.1815V201.995H300.878V201.005Z" fill="#838383" fill-opacity="0.65"/>
<path opacity="0.2" d="M300.878 220.858H-96.1815V221.848H300.878V220.858Z" fill="#838383" fill-opacity="0.65"/>
<path opacity="0.2" d="M300.878 240.711H-96.1815V241.701H300.878V240.711Z" fill="#838383" fill-opacity="0.65"/>
<path opacity="0.2" d="M300.878 260.564H-96.1815V261.554H300.878V260.564Z" fill="#838383" fill-opacity="0.65"/>
<path opacity="0.2" d="M300.878 280.417H-96.1815V281.407H300.878V280.417Z" fill="#838383" fill-opacity="0.65"/>
<path opacity="0.5" d="M300.878 300.27H-96.1815V301.26H300.878V300.27Z" fill="#838383" fill-opacity="0.65"/>
<path opacity="0.2" d="M300.878 320.123H-96.1815V321.113H300.878V320.123Z" fill="#838383" fill-opacity="0.65"/>
<path opacity="0.2" d="M300.878 339.976H-96.1815V340.966H300.878V339.976Z" fill="#838383" fill-opacity="0.65"/>
<path opacity="0.2" d="M300.878 359.828H-96.1815V360.819H300.878V359.828Z" fill="#838383" fill-opacity="0.65"/>
<path opacity="0.2" d="M300.878 379.681H-96.1815V380.672H300.878V379.681Z" fill="#838383" fill-opacity="0.65"/>
<path opacity="0.5" d="M300.383 399.039H-95.6861V400.029H300.383V399.039Z" fill="#838383" fill-opacity="0.65"/>
<path d="M300.878 0H299.888V6.9312H300.878V0Z" fill="#838383" fill-opacity="0.65"/>
<path d="M303.849 2.97046H296.917V3.96063H303.849V2.97046Z" fill="#838383" fill-opacity="0.65"/>
<path d="M300.878 99.0173H299.888V105.949H300.878V99.0173Z" fill="#838383" fill-opacity="0.65"/>
<path d="M303.849 101.988H296.917V102.978H303.849V101.988Z" fill="#838383" fill-opacity="0.65"/>
<path d="M300.878 198.034H299.888V204.966H300.878V198.034Z" fill="#838383" fill-opacity="0.65"/>
<path d="M303.849 201.005H296.917V201.995H303.849V201.005Z" fill="#838383" fill-opacity="0.65"/>
<path d="M300.878 297.052H299.888V303.983H300.878V297.052Z" fill="#838383" fill-opacity="0.65"/>
<path d="M303.849 300.022H296.917V301.012H303.849V300.022Z" fill="#838383" fill-opacity="0.65"/>
<path d="M3.82596 0H2.83578V6.9312H3.82596V0Z" fill="#838383" fill-opacity="0.65"/>
<path d="M6.7969 2.97046H-0.134308V3.96063H6.7969V2.97046Z" fill="#838383" fill-opacity="0.65"/>
<path d="M3.82596 99.0173H2.83578V105.949H3.82596V99.0173Z" fill="#838383" fill-opacity="0.65"/>
<path d="M6.7969 101.988H-0.134308V102.978H6.7969V101.988Z" fill="#838383" fill-opacity="0.65"/>
<path d="M3.82596 198.034H2.83578V204.966H3.82596V198.034Z" fill="#838383" fill-opacity="0.65"/>
<path d="M6.7969 201.005H-0.134308V201.995H6.7969V201.005Z" fill="#838383" fill-opacity="0.65"/>
<path d="M3.82596 297.052H2.83578V303.983H3.82596V297.052Z" fill="#838383" fill-opacity="0.65"/>
<path d="M6.7969 300.022H-0.134308V301.012H6.7969V300.022Z" fill="#838383" fill-opacity="0.65"/>
<path d="M3.82596 396.069H2.83578V403H3.82596V396.069Z" fill="#838383" fill-opacity="0.65"/>
<path d="M6.7969 399.039H-0.134308V400.029H6.7969V399.039Z" fill="#838383" fill-opacity="0.65"/>
<path d="M102.843 0H101.853V6.9312H102.843V0Z" fill="#838383" fill-opacity="0.65"/>
<path d="M105.814 2.97046H98.8829V3.96063H105.814V2.97046Z" fill="#838383" fill-opacity="0.65"/>
<path d="M102.843 99.0173H101.853V105.949H102.843V99.0173Z" fill="#838383" fill-opacity="0.65"/>
<path d="M105.814 101.988H98.8829V102.978H105.814V101.988Z" fill="#838383" fill-opacity="0.65"/>
<path d="M102.843 198.034H101.853V204.966H102.843V198.034Z" fill="#838383" fill-opacity="0.65"/>
<path d="M105.814 201.005H98.8829V201.995H105.814V201.005Z" fill="#838383" fill-opacity="0.65"/>
<path d="M102.843 297.052H101.853V303.983H102.843V297.052Z" fill="#838383" fill-opacity="0.65"/>
<path d="M105.814 300.022H98.8829V301.012H105.814V300.022Z" fill="#838383" fill-opacity="0.65"/>
<path d="M102.843 396.069H101.853V403H102.843V396.069Z" fill="#838383" fill-opacity="0.65"/>
<path d="M105.814 399.039H98.8829V400.029H105.814V399.039Z" fill="#838383" fill-opacity="0.65"/>
<path d="M201.86 0H200.87V6.9312H201.86V0Z" fill="#838383" fill-opacity="0.65"/>
<path d="M204.831 2.97046H197.9V3.96063H204.831V2.97046Z" fill="#838383" fill-opacity="0.65"/>
<path d="M201.86 99.0173H200.87V105.949H201.86V99.0173Z" fill="#838383" fill-opacity="0.65"/>
<path d="M204.831 101.988H197.9V102.978H204.831V101.988Z" fill="#838383" fill-opacity="0.65"/>
<path d="M201.86 198.034H200.87V204.966H201.86V198.034Z" fill="#838383" fill-opacity="0.65"/>
<path d="M204.831 201.005H197.9V201.995H204.831V201.005Z" fill="#838383" fill-opacity="0.65"/>
<path d="M201.86 297.052H200.87V303.983H201.86V297.052Z" fill="#838383" fill-opacity="0.65"/>
<path d="M204.831 300.022H197.9V301.012H204.831V300.022Z" fill="#838383" fill-opacity="0.65"/>
<path d="M201.86 396.069H200.87V403H201.86V396.069Z" fill="#838383" fill-opacity="0.65"/>
<path d="M204.831 399.039H197.9V400.029H204.831V399.039Z" fill="#838383" fill-opacity="0.65"/>
<path d="M300.878 396.069H299.888V403H300.878V396.069Z" fill="#838383" fill-opacity="0.65"/>
<path d="M303.849 399.039H296.917V400.029H303.849V399.039Z" fill="#838383" fill-opacity="0.65"/>
<path d="M53.3335 52.479H52.3433V53.4692H53.3335V52.479Z" fill="#838383" fill-opacity="0.65"/>
<path d="M152.353 52.479H151.363V53.4692H152.353V52.479Z" fill="#838383" fill-opacity="0.65"/>
<path d="M251.368 52.479H250.378V53.4692H251.368V52.479Z" fill="#838383" fill-opacity="0.65"/>
<path d="M53.3335 151.496H52.3433V152.487H53.3335V151.496Z" fill="#838383" fill-opacity="0.65"/>
<path d="M152.353 151.496H151.363V152.487H152.353V151.496Z" fill="#838383" fill-opacity="0.65"/>
<path d="M251.368 151.496H250.378V152.487H251.368V151.496Z" fill="#838383" fill-opacity="0.65"/>
<path d="M53.3335 250.513H52.3433V251.504H53.3335V250.513Z" fill="#838383" fill-opacity="0.65"/>
<path d="M152.353 250.513H151.363V251.504H152.353V250.513Z" fill="#838383" fill-opacity="0.65"/>
<path d="M251.368 250.513H250.378V251.504H251.368V250.513Z" fill="#838383" fill-opacity="0.65"/>
<path d="M53.3335 349.531H52.3433V350.521H53.3335V349.531Z" fill="#838383" fill-opacity="0.65"/>
<path d="M152.353 349.531H151.363V350.521H152.353V349.531Z" fill="#838383" fill-opacity="0.65"/>
<path d="M251.368 349.531H250.378V350.521H251.368V349.531Z" fill="#838383" fill-opacity="0.65"/>
</g>
<defs>
<clipPath id="clip0_7_1855">
<rect width="303.8" height="403" fill="white" transform="translate(891.674)"/>
</clipPath>
<clipPath id="clip1_7_1855">
<rect width="303.8" height="403" fill="white" transform="translate(594.071)"/>
</clipPath>
<clipPath id="clip2_7_1855">
<rect width="303.8" height="403" fill="white" transform="translate(297.038)"/>
</clipPath>
<clipPath id="clip3_7_1855">
<rect width="303.8" height="403" fill="white"/>
</clipPath>
</defs>
</svg>
