<svg width="60" height="61" viewBox="0 0 60 61" fill="none" xmlns="http://www.w3.org/2000/svg">
<rect y="0.5" width="60" height="60" rx="30" fill="black"/>
<rect width="36.8182" height="36.8182" transform="translate(10.9092 12.7727)" fill="black"/>
<path d="M29.3179 32.4092C30.6809 32.4092 31.9881 31.8678 32.9519 30.904C33.9157 29.9402 34.4571 28.633 34.4571 27.27C34.4571 25.907 33.9157 24.5999 32.9519 23.6361C31.9881 22.6723 30.6809 22.1308 29.3179 22.1308C27.9549 22.1308 26.6477 22.6723 25.6839 23.6361C24.7202 24.5999 24.1787 25.907 24.1787 27.27C24.1787 28.633 24.7202 29.9402 25.6839 30.904C26.6477 31.8678 27.9549 32.4092 29.3179 32.4092Z" stroke="white" stroke-width="1.6875" stroke-miterlimit="10" stroke-linecap="round"/>
<path d="M29.3183 16.9915C19.0399 16.9915 17.3263 25.5563 19.0399 32.0486C20.5479 37.737 25.0689 41.6244 28.0511 44.8122C28.2117 44.9886 28.4074 45.1296 28.6256 45.226C28.8438 45.3224 29.0797 45.3723 29.3183 45.3723C29.5568 45.3723 29.7928 45.3224 30.011 45.226C30.2292 45.1296 30.4248 44.9886 30.5854 44.8122C33.5662 41.6244 38.0887 37.737 39.5967 32.0486C41.3103 25.5563 39.5967 16.9915 29.3183 16.9915Z" stroke="white" stroke-width="1.6875" stroke-miterlimit="10" stroke-linecap="round"/>
</svg>
