<svg width="184" height="185" viewBox="0 0 184 185" fill="none" xmlns="http://www.w3.org/2000/svg">
<path fill-rule="evenodd" clip-rule="evenodd" d="M48.6257 16.3104C49.7566 15.9337 50.9981 16.0999 51.9901 16.7607L74.9817 32.0756C76.7585 33.2592 77.2394 35.659 76.0559 37.4358C74.8724 39.2126 72.4726 39.6935 70.6958 38.51L49.2764 24.2423L7.72951 38.0797V175.423L48.6257 161.802C49.4186 161.538 50.2757 161.538 51.0686 161.802L95.7095 176.67L132.715 161.88C133.563 161.541 134.504 161.514 135.371 161.802L176.267 175.423V88.895C176.267 86.7602 177.998 85.0295 180.133 85.0295C182.268 85.0295 183.998 86.7602 183.998 88.895V180.785C183.998 182.027 183.401 183.194 182.393 183.92C181.386 184.647 180.09 184.845 178.911 184.452L134.271 169.584L97.2649 184.374C96.4166 184.713 95.4756 184.741 94.6089 184.452L49.8471 169.544L5.08543 184.452C3.90671 184.845 2.61112 184.647 1.60334 183.92C0.595559 183.194 -0.00158691 182.027 -0.00158691 180.785V35.2928C-0.00158691 33.6286 1.06355 32.1512 2.64249 31.6253L48.6257 16.3104Z" fill="#363636"/>
<path fill-rule="evenodd" clip-rule="evenodd" d="M134.133 8.38148C110.9 8.38148 91.9984 27.3161 91.9984 50.6296C91.9984 56.0704 94.5334 63.8664 98.8148 72.9188C103.028 81.8281 108.682 91.4463 114.388 100.355C120.086 109.251 125.79 117.369 130.073 123.268C131.642 125.428 133.019 127.289 134.133 128.778C135.247 127.289 136.623 125.428 138.193 123.268C142.476 117.369 148.18 109.251 153.878 100.355C159.584 91.4463 165.237 81.8281 169.451 72.9188C173.732 63.8664 176.267 56.0704 176.267 50.6296C176.267 27.3161 157.366 8.38148 134.133 8.38148ZM134.133 135.171C131.082 137.546 131.082 137.545 131.081 137.544L131.079 137.542L131.045 137.498L130.942 137.365C130.853 137.249 130.721 137.078 130.55 136.855C130.207 136.408 129.707 135.753 129.071 134.912C127.801 133.229 125.99 130.802 123.818 127.811C119.476 121.832 113.68 113.585 107.878 104.525C102.084 95.4787 96.2373 85.5515 91.826 76.2242C87.4823 67.0401 84.2673 57.9086 84.2673 50.6296C84.2673 23.0644 106.612 0.650391 134.133 0.650391C161.653 0.650391 183.998 23.0644 183.998 50.6296C183.998 57.9086 180.783 67.0401 176.44 76.2242C172.028 85.5515 166.182 95.4787 160.388 104.525C154.586 113.585 148.79 121.832 144.448 127.811C142.276 130.802 140.465 133.229 139.194 134.912C138.559 135.753 138.059 136.408 137.716 136.855C137.545 137.078 137.413 137.249 137.323 137.365L137.221 137.498L137.186 137.542L137.184 137.544C137.184 137.545 137.183 137.546 134.133 135.171ZM134.133 135.171L137.183 137.546C136.451 138.487 135.325 139.037 134.133 139.037C132.94 139.037 131.815 138.487 131.082 137.546L134.133 135.171Z" fill="#363636"/>
<path fill-rule="evenodd" clip-rule="evenodd" d="M134.133 39.3063C127.942 39.3063 122.923 44.3252 122.923 50.5164C122.923 56.7075 127.942 61.7265 134.133 61.7265C140.324 61.7265 145.343 56.7075 145.343 50.5164C145.343 44.3252 140.324 39.3063 134.133 39.3063ZM115.192 50.5164C115.192 40.0554 123.672 31.5752 134.133 31.5752C144.594 31.5752 153.074 40.0554 153.074 50.5164C153.074 60.9773 144.594 69.4575 134.133 69.4575C123.672 69.4575 115.192 60.9773 115.192 50.5164Z" fill="#363636"/>
</svg>
