<svg width="265" height="83" viewBox="0 0 265 83" fill="none" xmlns="http://www.w3.org/2000/svg">
<path d="M126.513 8.84863H133.112V21.3943L143.297 8.84863H150.302L138.774 22.6163L150.873 37.9724H143.174L133.112 24.8974V37.9724H126.513V8.84863Z" fill="black"/>
<path d="M173.113 23.5148V23.1891C173.113 17.5272 170.098 13.6571 165.007 13.6571C159.956 13.6571 156.899 17.3643 156.899 23.2296V23.5554C156.899 29.5025 160.322 33.1685 165.087 33.1685C170.017 33.1685 173.113 29.3801 173.113 23.5148ZM150.017 23.5966V23.2702C150.017 14.5946 156.371 8.44336 165.007 8.44336C173.764 8.44336 179.996 14.3499 179.996 23.1073V23.4331C179.996 32.1094 174.05 38.4228 164.965 38.4228C155.842 38.4228 150.017 32.1094 150.017 23.5966Z" fill="black"/>
<path d="M193.358 32.8414C199.223 32.8414 201.993 29.5417 201.993 23.5135V23.1878C201.993 17.2001 199.428 13.9823 193.276 13.9823H190.669V32.8414H193.358ZM184.07 8.84961H193.603C203.826 8.84961 208.877 14.3891 208.877 23.106V23.4324C208.877 32.1486 203.786 37.974 193.561 37.974H184.07V8.84961Z" fill="black"/>
<path d="M218.899 26.8135H226.597L222.768 14.2272L218.899 26.8135ZM218.858 8.85059H227.453L236.903 37.9743H230.019L228.022 31.498H217.473L215.476 37.9743H209.285L218.858 8.85059Z" fill="black"/>
<path d="M239.794 8.84863H246.393V21.3943L256.577 8.84863H263.583L252.055 22.6163L264.153 37.9724H256.454L246.393 24.8974V37.9724H239.794V8.84863Z" fill="black"/>
<path d="M126.548 44.8828H133.147V68.834H145.001V74.0065H126.548V44.8828Z" fill="black"/>
<path d="M163.778 61.0527C163.574 57.8348 161.945 56.2884 159.135 56.2884C156.487 56.2884 154.695 58.0396 154.247 61.0527H163.778ZM148.176 63.6204V63.2932C148.176 56.5722 152.943 52.2148 159.135 52.2148C164.634 52.2148 169.522 55.4327 169.522 63.0485V64.6781H154.165C154.328 68.2231 156.243 70.2582 159.461 70.2582C162.19 70.2582 163.534 69.0788 163.901 67.285H169.481C168.787 71.8877 165.123 74.454 159.298 74.454C152.862 74.454 148.176 70.421 148.176 63.6204Z" fill="black"/>
<path d="M174.532 52.7035H180.439V56.0829C181.498 53.9647 183.82 52.2148 187.364 52.2148C191.559 52.2148 194.533 54.7386 194.533 60.4417V74.0066H188.626V61.2966C188.626 58.4059 187.486 57.021 184.879 57.021C182.353 57.021 180.439 58.5674 180.439 61.7042V74.0066H174.532V52.7035Z" fill="black"/>
<path d="M199.176 67.3269H204.675C204.92 69.2396 205.858 70.3413 208.422 70.3413C210.705 70.3413 211.762 69.4843 211.762 68.0197C211.762 66.553 210.5 65.942 207.446 65.4939C201.783 64.6368 199.583 63.0094 199.583 58.8547C199.583 54.4148 203.656 52.2148 208.015 52.2148C212.741 52.2148 216.286 53.9255 216.813 58.8121H211.396C211.072 57.0623 210.094 56.2478 208.056 56.2478C206.142 56.2478 205.041 57.1434 205.041 58.4472C205.041 59.7915 206.06 60.3207 209.155 60.7688C214.492 61.5413 217.425 62.887 217.425 67.4492C217.425 72.052 214.084 74.454 208.465 74.454C202.721 74.454 199.381 71.9296 199.176 67.3269Z" fill="black"/>
<path d="M236.53 61.0527C236.326 57.8348 234.697 56.2884 231.887 56.2884C229.239 56.2884 227.447 58.0396 226.999 61.0527H236.53ZM220.928 63.6204V63.2932C220.928 56.5722 225.695 52.2148 231.887 52.2148C237.386 52.2148 242.274 55.4327 242.274 63.0485V64.6781H226.917C227.08 68.2231 228.995 70.2582 232.213 70.2582C234.942 70.2582 236.286 69.0788 236.653 67.285H242.233C241.539 71.8877 237.875 74.454 232.05 74.454C225.614 74.454 220.928 70.421 220.928 63.6204Z" fill="black"/>
<path d="M245.938 67.3269H251.437C251.681 69.2396 252.62 70.3413 255.184 70.3413C257.467 70.3413 258.524 69.4843 258.524 68.0197C258.524 66.553 257.262 65.942 254.208 65.4939C248.544 64.6368 246.345 63.0094 246.345 58.8547C246.345 54.4148 250.418 52.2148 254.777 52.2148C259.502 52.2148 263.047 53.9255 263.575 58.8121H258.158C257.833 57.0623 256.855 56.2478 254.818 56.2478C252.903 56.2478 251.803 57.1434 251.803 58.4472C251.803 59.7915 252.822 60.3207 255.917 60.7688C261.253 61.5413 264.186 62.887 264.186 67.4492C264.186 72.052 260.847 74.454 255.226 74.454C249.483 74.454 246.142 71.9296 245.938 67.3269Z" fill="black"/>
<path d="M87.7927 61.0323L83.4296 50.7664H80.0529L75.6754 61.0323H78.4047L79.1058 59.2502H84.2269L84.9424 61.0323H87.7927ZM87.3143 75.6887L81.9636 70.6543L86.9548 65.6062H83.5506L78.9415 70.2324V65.6062H76.3813V75.6873H78.9415V71.0715L83.6551 75.6887H87.3143ZM82.1567 36.1849H76.3957V46.367H82.1567C85.7603 46.367 87.2208 44.4103 87.2208 41.1416C87.2208 37.8729 85.7603 36.1849 82.1567 36.1849ZM75.8301 26.4474C75.8301 29.8048 77.8446 31.8736 81.6866 31.8736C85.5142 31.8736 87.5425 29.8048 87.5425 26.4474C87.5425 23.0213 85.4476 21.2887 81.6866 21.2887C77.925 21.2887 75.8301 23.0213 75.8301 26.4474ZM76.3813 16.9986H78.9415V12.3815L83.6551 16.9986H87.3143L81.9636 11.9636L87.1163 6.91547H83.5506L78.9415 11.5416V6.91547H76.3813V16.9986ZM95.2823 6.13128V76.809C95.2823 80.1726 92.5921 82.8654 89.2257 82.8654H62.299C60.5065 82.8654 58.7113 82.1918 57.4384 81.143L11.2952 42.4784C11.0684 42.2543 10.9956 42.0289 10.9956 41.7306C10.9956 41.431 11.0684 41.2069 11.2952 40.9828L56.2411 2.84124C58.2631 1.12028 59.8302 0 62.299 0H89.3013C92.5921 0 95.2823 2.84124 95.2823 6.13128ZM79.8639 57.3183H83.4702L81.6735 52.8337L79.8639 57.3183ZM9.34877 44.7973C8.82504 44.0495 8.00577 42.9279 8.00577 41.8062C8.00577 40.9072 8.22571 40.0839 8.67658 39.4117L34.8541 3.13883C35.0768 2.84261 35.1524 2.46873 35.1524 2.01718C35.1524 0.89622 34.2548 0 33.1331 0H5.98371C2.69425 0 0 2.84261 0 6.13128V76.809C0 80.1726 2.69425 82.8654 5.98371 82.8654H33.1331C34.2548 82.8654 35.1524 81.9664 35.1524 80.8447C35.1524 80.3994 35.0026 79.9485 34.7799 79.5746L9.34877 44.7973ZM82.1698 38.3279H78.9807V44.3024H82.1698C83.9114 44.3024 84.6358 43.1114 84.6358 41.1547C84.6358 39.2385 83.9114 38.3279 82.1698 38.3279ZM78.4226 26.4474C78.4226 24.4729 79.4027 23.4516 81.6722 23.4516C83.943 23.4516 84.9369 24.4729 84.9369 26.4474C84.9369 28.6234 83.943 29.7244 81.6722 29.7244C79.4027 29.7244 78.4226 28.6234 78.4226 26.4474Z" fill="#ED0000"/>
</svg>
