<svg width="184" height="184" viewBox="0 0 184 184" fill="none" xmlns="http://www.w3.org/2000/svg">
<path fill-rule="evenodd" clip-rule="evenodd" d="M48.6273 15.66C49.7582 15.2833 50.9997 15.4495 51.9917 16.1103L74.9833 31.4253C76.7601 32.6088 77.241 35.0086 76.0575 36.7854C74.874 38.5622 72.4741 39.0431 70.6974 37.8596L49.2779 23.5919L7.73109 37.4293V174.772L48.6273 161.152C49.4202 160.888 50.2773 160.888 51.0702 161.152L95.7111 176.02L132.717 161.23C133.565 160.891 134.506 160.863 135.373 161.152L176.269 174.772V88.2446C176.269 86.1098 178 84.3791 180.134 84.3791C182.269 84.3791 184 86.1098 184 88.2446V180.134C184 181.377 183.403 182.543 182.395 183.27C181.387 183.996 180.092 184.194 178.913 183.802L134.272 168.934L97.2665 183.724C96.4182 184.063 95.4772 184.09 94.6105 183.802L49.8487 168.894L5.08702 183.802C3.90829 184.194 2.61271 183.996 1.60493 183.27C0.597145 182.543 0 181.377 0 180.134V34.6424C0 32.9782 1.06514 31.5008 2.64407 30.9749L48.6273 15.66Z" fill="#363636"/>
<path fill-rule="evenodd" clip-rule="evenodd" d="M134.134 7.73109C110.901 7.73109 91.9996 26.6657 91.9996 49.9792C91.9996 55.42 94.5347 63.216 98.816 72.2684C103.03 81.1777 108.683 90.7959 114.389 99.7051C120.087 108.601 125.791 116.719 130.074 122.617C131.644 124.778 133.02 126.639 134.134 128.128C135.248 126.639 136.625 124.778 138.194 122.617C142.477 116.719 148.181 108.601 153.879 99.7051C159.585 90.7959 165.239 81.1777 169.452 72.2684C173.734 63.216 176.269 55.42 176.269 49.9792C176.269 26.6657 157.367 7.73109 134.134 7.73109ZM134.134 134.521C131.084 136.895 131.083 136.895 131.083 136.894L131.081 136.891L131.046 136.847L130.944 136.715C130.854 136.599 130.722 136.427 130.551 136.204C130.208 135.758 129.708 135.102 129.073 134.261C127.802 132.579 125.991 130.151 123.819 127.16C119.477 121.182 113.681 112.934 107.879 103.875C102.085 94.8283 96.2385 84.9011 91.8272 75.5738C87.4835 66.3897 84.2686 57.2582 84.2686 49.9792C84.2686 22.414 106.614 0 134.134 0C161.655 0 184 22.414 184 49.9792C184 57.2582 180.785 66.3897 176.441 75.5738C172.03 84.9011 166.183 94.8283 160.389 103.875C154.587 112.934 148.791 121.182 144.449 127.16C142.277 130.151 140.466 132.579 139.196 134.261C138.56 135.102 138.06 135.758 137.717 136.204C137.546 136.427 137.414 136.599 137.324 136.715L137.222 136.847L137.188 136.891L137.186 136.894C137.185 136.895 137.185 136.895 134.134 134.521ZM134.134 134.521L137.185 136.895C136.452 137.836 135.327 138.387 134.134 138.387C132.942 138.387 131.816 137.836 131.084 136.895L134.134 134.521Z" fill="#363636"/>
<path fill-rule="evenodd" clip-rule="evenodd" d="M134.135 38.6559C127.943 38.6559 122.924 43.6748 122.924 49.866C122.924 56.0571 127.943 61.0761 134.135 61.0761C140.326 61.0761 145.345 56.0571 145.345 49.866C145.345 43.6748 140.326 38.6559 134.135 38.6559ZM115.193 49.866C115.193 39.4051 123.674 30.9248 134.135 30.9248C144.595 30.9248 153.076 39.4051 153.076 49.866C153.076 60.3269 144.595 68.8072 134.135 68.8072C123.674 68.8072 115.193 60.3269 115.193 49.866Z" fill="#363636"/>
</svg>
