<svg width="44" height="44" viewBox="0 0 44 44" fill="none" xmlns="http://www.w3.org/2000/svg">
<rect width="44" height="44" rx="22" fill="#1E1E1E"/>
<path d="M21.5 23.4C22.4995 23.4 23.4581 23.003 24.1649 22.2962C24.8717 21.5894 25.2687 20.6308 25.2687 19.6313C25.2687 18.6318 24.8717 17.6732 24.1649 16.9664C23.4581 16.2596 22.4995 15.8625 21.5 15.8625C20.5005 15.8625 19.5419 16.2596 18.8351 16.9664C18.1283 17.6732 17.7312 18.6318 17.7312 19.6313C17.7312 20.6308 18.1283 21.5894 18.8351 22.2962C19.5419 23.003 20.5005 23.4 21.5 23.4Z" stroke="white" stroke-width="1.6875" stroke-miterlimit="10" stroke-linecap="round"/>
<path d="M21.5 12.0938C13.9625 12.0938 12.7059 18.3746 13.9625 23.1356C15.0684 27.3071 18.3838 30.1579 20.5708 32.4956C20.6885 32.625 20.832 32.7283 20.992 32.7991C21.152 32.8698 21.3251 32.9063 21.5 32.9063C21.6749 32.9063 21.848 32.8698 22.008 32.7991C22.168 32.7283 22.3115 32.625 22.4293 32.4956C24.6151 30.1579 27.9316 27.3071 29.0375 23.1356C30.2941 18.3746 29.0375 12.0938 21.5 12.0938Z" stroke="white" stroke-width="1.6875" stroke-miterlimit="10" stroke-linecap="round"/>
</svg>
