<svg width="55" height="55" viewBox="0 0 55 55" fill="none" xmlns="http://www.w3.org/2000/svg">
<rect width="55" height="55" rx="27.5" fill="black"/>
<rect width="33.75" height="33.75" transform="translate(9.99915 11.25)" fill="black"/>
<path d="M26.8741 29.2502C28.1236 29.2502 29.3218 28.7539 30.2053 27.8704C31.0888 26.987 31.5851 25.7887 31.5851 24.5393C31.5851 23.2899 31.0888 22.0916 30.2053 21.2082C29.3218 20.3247 28.1236 19.8284 26.8741 19.8284C25.6247 19.8284 24.4265 20.3247 23.543 21.2082C22.6595 22.0916 22.1632 23.2899 22.1632 24.5393C22.1632 25.7887 22.6595 26.987 23.543 27.8704C24.4265 28.7539 25.6247 29.2502 26.8741 29.2502Z" stroke="white" stroke-width="1.6875" stroke-miterlimit="10" stroke-linecap="round"/>
<path d="M26.8736 15.1172C17.4517 15.1172 15.8809 22.9683 17.4517 28.9195C18.8341 34.1339 22.9783 37.6973 25.712 40.6195C25.8592 40.7812 26.0386 40.9104 26.2386 40.9988C26.4386 41.0872 26.6549 41.1329 26.8736 41.1329C27.0923 41.1329 27.3085 41.0872 27.5086 40.9988C27.7086 40.9104 27.8879 40.7812 28.0352 40.6195C30.7675 37.6973 34.9131 34.1339 36.2955 28.9195C37.8662 22.9683 36.2955 15.1172 26.8736 15.1172Z" stroke="white" stroke-width="1.6875" stroke-miterlimit="10" stroke-linecap="round"/>
</svg>
