<svg width="265" height="84" viewBox="0 0 265 84" fill="none" xmlns="http://www.w3.org/2000/svg">
<path d="M126.513 9.49902H133.112V22.0447L143.297 9.49902H150.302L138.774 23.2667L150.873 38.6228H143.175L133.112 25.5478V38.6228H126.513V9.49902Z" fill="black"/>
<path d="M173.113 24.1652V23.8395C173.113 18.1776 170.098 14.3075 165.007 14.3075C159.956 14.3075 156.899 18.0147 156.899 23.88V24.2058C156.899 30.1529 160.322 33.8189 165.087 33.8189C170.017 33.8189 173.113 30.0305 173.113 24.1652ZM150.017 24.247V23.9206C150.017 15.245 156.371 9.09375 165.007 9.09375C173.764 9.09375 179.996 15.0003 179.996 23.7577V24.0835C179.996 32.7597 174.05 39.0732 164.965 39.0732C155.842 39.0732 150.017 32.7597 150.017 24.247Z" fill="black"/>
<path d="M193.358 33.4918C199.223 33.4918 201.993 30.1921 201.993 24.1639V23.8382C201.993 17.8505 199.427 14.6326 193.276 14.6326H190.669V33.4918H193.358ZM184.07 9.5H193.602C203.826 9.5 208.877 15.0395 208.877 23.7564V24.0828C208.877 32.799 203.786 38.6244 193.561 38.6244H184.07V9.5Z" fill="black"/>
<path d="M218.899 27.4639H226.597L222.768 14.8776L218.899 27.4639ZM218.858 9.50098H227.453L236.904 38.6247H230.019L228.022 32.1484H217.473L215.476 38.6247H209.285L218.858 9.50098Z" fill="black"/>
<path d="M239.794 9.49902H246.393V22.0447L256.577 9.49902H263.583L252.055 23.2667L264.153 38.6228H256.455L246.393 25.5478V38.6228H239.794V9.49902Z" fill="black"/>
<path d="M126.548 45.5332H133.146V69.4844H145V74.6569H126.548V45.5332Z" fill="black"/>
<path d="M163.779 61.703C163.574 58.4852 161.946 56.9388 159.135 56.9388C156.487 56.9388 154.695 58.69 154.247 61.703H163.779ZM148.176 64.2707V63.9436C148.176 57.2226 152.943 52.8652 159.135 52.8652C164.634 52.8652 169.522 56.0831 169.522 63.6989V65.3285H154.165C154.328 68.8735 156.243 70.9085 159.461 70.9085C162.19 70.9085 163.534 69.7292 163.901 67.9353H169.481C168.788 72.5381 165.123 75.1044 159.298 75.1044C152.862 75.1044 148.176 71.0714 148.176 64.2707Z" fill="black"/>
<path d="M174.532 53.3539H180.439V56.7333C181.498 54.6151 183.82 52.8652 187.363 52.8652C191.559 52.8652 194.533 55.3889 194.533 61.092V74.657H188.626V61.947C188.626 59.0563 187.486 57.6714 184.879 57.6714C182.353 57.6714 180.439 59.2178 180.439 62.3546V74.657H174.532V53.3539Z" fill="black"/>
<path d="M199.176 67.9773H204.675C204.92 69.89 205.858 70.9917 208.422 70.9917C210.705 70.9917 211.763 70.1347 211.763 68.6701C211.763 67.2034 210.5 66.5924 207.446 66.1443C201.783 65.2872 199.584 63.6597 199.584 59.5051C199.584 55.0652 203.657 52.8652 208.015 52.8652C212.741 52.8652 216.286 54.5759 216.814 59.4625H211.396C211.072 57.7127 210.094 56.8982 208.056 56.8982C206.142 56.8982 205.042 57.7938 205.042 59.0975C205.042 60.4419 206.06 60.9711 209.156 61.4192C214.492 62.1917 217.425 63.5374 217.425 68.0996C217.425 72.7024 214.084 75.1044 208.465 75.1044C202.721 75.1044 199.381 72.58 199.176 67.9773Z" fill="black"/>
<path d="M236.531 61.703C236.326 58.4852 234.698 56.9388 231.887 56.9388C229.239 56.9388 227.447 58.69 226.999 61.703H236.531ZM220.928 64.2707V63.9436C220.928 57.2226 225.695 52.8652 231.887 52.8652C237.386 52.8652 242.274 56.0831 242.274 63.6989V65.3285H226.917C227.08 68.8735 228.995 70.9085 232.213 70.9085C234.942 70.9085 236.286 69.7292 236.653 67.9353H242.233C241.54 72.5381 237.875 75.1044 232.05 75.1044C225.614 75.1044 220.928 71.0714 220.928 64.2707Z" fill="black"/>
<path d="M245.938 67.9773H251.437C251.682 69.89 252.62 70.9917 255.184 70.9917C257.468 70.9917 258.525 70.1347 258.525 68.6701C258.525 67.2034 257.262 66.5924 254.208 66.1443C248.545 65.2872 246.346 63.6597 246.346 59.5051C246.346 55.0652 250.419 52.8652 254.777 52.8652C259.503 52.8652 263.048 54.5759 263.576 59.4625H258.158C257.834 57.7127 256.856 56.8982 254.818 56.8982C252.904 56.8982 251.803 57.7938 251.803 59.0975C251.803 60.4419 252.822 60.9711 255.918 61.4192C261.254 62.1917 264.187 63.5374 264.187 68.0996C264.187 72.7024 260.847 75.1044 255.227 75.1044C249.483 75.1044 246.143 72.58 245.938 67.9773Z" fill="black"/>
<path d="M87.7927 61.6827L83.4296 51.4167H80.0529L75.6754 61.6827H78.4047L79.1058 59.9006H84.2269L84.9424 61.6827H87.7927ZM87.3143 76.3391L81.9636 71.3047L86.9548 66.2566H83.5506L78.9415 70.8827V66.2566H76.3813V76.3377H78.9415V71.7219L83.6551 76.3391H87.3143ZM82.1567 36.8353H76.3957V47.0174H82.1567C85.7603 47.0174 87.2208 45.0607 87.2208 41.792C87.2208 38.5233 85.7603 36.8353 82.1567 36.8353ZM75.8301 27.0978C75.8301 30.4552 77.8446 32.524 81.6866 32.524C85.5142 32.524 87.5425 30.4552 87.5425 27.0978C87.5425 23.6717 85.4476 21.9391 81.6866 21.9391C77.925 21.9391 75.8301 23.6717 75.8301 27.0978ZM76.3813 17.649H78.9415V13.0318L83.6551 17.649H87.3143L81.9636 12.614L87.1163 7.56586H83.5506L78.9415 12.192V7.56586H76.3813V17.649ZM95.2823 6.78167V77.4594C95.2823 80.823 92.5921 83.5157 89.2257 83.5157H62.299C60.5065 83.5157 58.7113 82.8422 57.4384 81.7934L11.2952 43.1288C11.0684 42.9047 10.9956 42.6793 10.9956 42.381C10.9956 42.0814 11.0684 41.8573 11.2952 41.6332L56.2411 3.49163C58.2631 1.77067 59.8302 0.650391 62.299 0.650391H89.3013C92.5921 0.650391 95.2823 3.49163 95.2823 6.78167ZM79.8639 57.9686H83.4702L81.6735 53.4841L79.8639 57.9686ZM9.34877 45.4477C8.82504 44.6999 8.00577 43.5783 8.00577 42.4566C8.00577 41.5576 8.22571 40.7343 8.67658 40.0621L34.8541 3.78922C35.0768 3.493 35.1524 3.11912 35.1524 2.66757C35.1524 1.54661 34.2548 0.650391 33.1331 0.650391H5.98371C2.69425 0.650391 0 3.493 0 6.78167V77.4594C0 80.823 2.69425 83.5157 5.98371 83.5157H33.1331C34.2548 83.5157 35.1524 82.6168 35.1524 81.4951C35.1524 81.0498 35.0026 80.5989 34.7799 80.225L9.34877 45.4477ZM82.1698 38.9783H78.9807V44.9528H82.1698C83.9114 44.9528 84.6358 43.7618 84.6358 41.8051C84.6358 39.8889 83.9114 38.9783 82.1698 38.9783ZM78.4226 27.0978C78.4226 25.1233 79.4027 24.102 81.6722 24.102C83.943 24.102 84.9369 25.1233 84.9369 27.0978C84.9369 29.2738 83.943 30.3748 81.6722 30.3748C79.4027 30.3748 78.4226 29.2738 78.4226 27.0978Z" fill="#ED0000"/>
</svg>
