<svg width="58" height="18" viewBox="0 0 58 18" fill="none" xmlns="http://www.w3.org/2000/svg">
<path d="M18.0991 13.505L17.2089 11.3972H16.52L15.6269 13.505H16.1837L16.3267 13.1391H17.3716L17.5175 13.505H18.0991ZM18.0015 16.5144L16.9098 15.4807L17.9281 14.4442H17.2336L16.2932 15.394V14.4442H15.7709V16.5141H16.2932V15.5663L17.2549 16.5144H18.0015ZM16.9492 8.40327H15.7738V10.4939H16.9492C17.6844 10.4939 17.9824 10.0921 17.9824 9.421C17.9824 8.74985 17.6844 8.40327 16.9492 8.40327ZM15.6584 6.40393C15.6584 7.09329 16.0694 7.51805 16.8533 7.51805C17.6342 7.51805 18.048 7.09329 18.048 6.40393C18.048 5.70047 17.6206 5.34471 16.8533 5.34471C16.0858 5.34471 15.6584 5.70047 15.6584 6.40393ZM15.7709 4.46386H16.2932V3.51584L17.2549 4.46386H18.0015L16.9098 3.43005L17.9611 2.39355H17.2336L16.2932 3.3434V2.39355H15.7709V4.46386ZM19.6271 2.23253V16.7444C19.6271 17.435 19.0783 17.9879 18.3914 17.9879H12.8978C12.5321 17.9879 12.1658 17.8496 11.9061 17.6343L2.49196 9.69547C2.44569 9.64947 2.43083 9.60318 2.43083 9.54194C2.43083 9.48041 2.44569 9.43441 2.49196 9.3884L11.6619 1.55701C12.0744 1.20365 12.3941 0.973633 12.8978 0.973633H18.4069C19.0783 0.973633 19.6271 1.55701 19.6271 2.23253ZM16.4814 12.7425H17.2172L16.8506 11.8217L16.4814 12.7425ZM2.09485 10.1716C1.98799 10.0181 1.82085 9.78776 1.82085 9.55746C1.82085 9.37288 1.86572 9.20382 1.95771 9.06581L7.29847 1.61811C7.34391 1.55729 7.35933 1.48052 7.35933 1.38781C7.35933 1.15765 7.1762 0.973633 6.94735 0.973633H1.4083C0.737184 0.973633 0.1875 1.55729 0.1875 2.23253V16.7444C0.1875 17.435 0.737184 17.9879 1.4083 17.9879H6.94735C7.1762 17.9879 7.35933 17.8033 7.35933 17.573C7.35933 17.4816 7.32876 17.389 7.28333 17.3122L2.09485 10.1716ZM16.9519 8.84327H16.3012V10.07H16.9519C17.3072 10.07 17.455 9.82544 17.455 9.42368C17.455 9.03025 17.3072 8.84327 16.9519 8.84327ZM16.1874 6.40393C16.1874 5.9985 16.3873 5.78881 16.8504 5.78881C17.3137 5.78881 17.5164 5.9985 17.5164 6.40393C17.5164 6.85071 17.3137 7.07677 16.8504 7.07677C16.3873 7.07677 16.1874 6.85071 16.1874 6.40393Z" fill="#ED0000"/>
<path d="M22.6719 1.0791H24.3619V4.3127L26.9704 1.0791H28.7645L25.812 4.62767L28.9108 8.58561H26.9391L24.3619 5.21561V8.58561H22.6719V1.0791Z" fill="black"/>
<path d="M34.6027 4.85824V4.77427C34.6027 3.31496 33.8306 2.31745 32.5266 2.31745C31.233 2.31745 30.4502 3.27297 30.4502 4.78473V4.86869C30.4502 6.40153 31.3268 7.34642 32.5471 7.34642C33.8099 7.34642 34.6027 6.37 34.6027 4.85824ZM28.6875 4.87932V4.79518C28.6875 2.55908 30.3149 0.973633 32.5266 0.973633C34.7696 0.973633 36.3654 2.49602 36.3654 4.75319V4.83716C36.3654 7.07344 34.8426 8.70069 32.5159 8.70069C30.1793 8.70069 28.6875 7.07344 28.6875 4.87932Z" fill="black"/>
<path d="M39.7886 7.2619C41.2908 7.2619 42.0002 6.41142 42.0002 4.85769V4.77372C42.0002 3.23043 41.343 2.40104 39.7676 2.40104H39.0999V7.2619H39.7886ZM37.4099 1.07812H39.8512C42.4696 1.07812 43.7632 2.50591 43.7632 4.75264V4.83678C43.7632 7.08333 42.4592 8.58481 39.8407 8.58481H37.4099V1.07812Z" fill="black"/>
<path d="M46.3293 5.70896H48.3009L47.3203 2.46491L46.3293 5.70896ZM46.3189 1.0791H48.5201L50.9405 8.58561H49.1774L48.6658 6.91638H45.9642L45.4527 8.58561H43.8672L46.3189 1.0791Z" fill="black"/>
<path d="M51.6836 1.0791H53.3736V4.3127L55.9818 1.0791H57.7762L54.8237 4.62767L57.9221 8.58561H55.9505L53.3736 5.21561V8.58561H51.6836V1.0791Z" fill="black"/>
<path d="M22.6797 10.3662H24.3697V16.5395H27.4056V17.8727H22.6797V10.3662Z" fill="black"/>
<path d="M32.2147 14.5338C32.1623 13.7044 31.7453 13.3058 31.0255 13.3058C30.3473 13.3058 29.8884 13.7572 29.7736 14.5338H32.2147ZM28.2188 15.1956V15.1113C28.2188 13.379 29.4397 12.2559 31.0255 12.2559C32.4339 12.2559 33.6858 13.0853 33.6858 15.0482V15.4682H29.7526C29.7944 16.3819 30.2848 16.9064 31.1089 16.9064C31.8079 16.9064 32.1521 16.6025 32.2461 16.1401H33.6752C33.4976 17.3265 32.559 17.9879 31.0672 17.9879C29.4189 17.9879 28.2188 16.9484 28.2188 15.1956Z" fill="black"/>
<path d="M34.9688 12.3818H36.4815V13.2528C36.7528 12.7069 37.3474 12.2559 38.255 12.2559C39.3295 12.2559 40.0911 12.9063 40.0911 14.3763V17.8726H38.5783V14.5967C38.5783 13.8516 38.2863 13.4946 37.6187 13.4946C36.9718 13.4946 36.4815 13.8932 36.4815 14.7017V17.8726H34.9688V12.3818Z" fill="black"/>
<path d="M41.2773 16.1509H42.6857C42.7484 16.6439 42.9887 16.9279 43.6454 16.9279C44.23 16.9279 44.5009 16.707 44.5009 16.3295C44.5009 15.9515 44.1776 15.794 43.3955 15.6785C41.945 15.4576 41.3817 15.0381 41.3817 13.9673C41.3817 12.8229 42.4249 12.2559 43.5412 12.2559C44.7514 12.2559 45.6593 12.6968 45.7945 13.9563H44.4071C44.324 13.5053 44.0735 13.2953 43.5516 13.2953C43.0614 13.2953 42.7796 13.5262 42.7796 13.8622C42.7796 14.2087 43.0404 14.3451 43.8332 14.4606C45.1999 14.6597 45.951 15.0066 45.951 16.1825C45.951 17.3688 45.0955 17.9879 43.6563 17.9879C42.1853 17.9879 41.3298 17.3373 41.2773 16.1509Z" fill="black"/>
<path d="M50.8475 14.5338C50.7951 13.7044 50.3781 13.3058 49.6583 13.3058C48.9801 13.3058 48.5212 13.7572 48.4064 14.5338H50.8475ZM46.8516 15.1956V15.1113C46.8516 13.379 48.0725 12.2559 49.6583 12.2559C51.0667 12.2559 52.3186 13.0853 52.3186 15.0482V15.4682H48.3855C48.4272 16.3819 48.9176 16.9064 49.7417 16.9064C50.4407 16.9064 50.7849 16.6025 50.8789 16.1401H52.308C52.1304 17.3265 51.1918 17.9879 49.7 17.9879C48.0517 17.9879 46.8516 16.9484 46.8516 15.1956Z" fill="black"/>
<path d="M53.2578 16.1509H54.6662C54.7289 16.6439 54.9691 16.9279 55.6259 16.9279C56.2107 16.9279 56.4814 16.707 56.4814 16.3295C56.4814 15.9515 56.158 15.794 55.3759 15.6785C53.9255 15.4576 53.3622 15.0381 53.3622 13.9673C53.3622 12.8229 54.4053 12.2559 55.5217 12.2559C56.7319 12.2559 57.6398 12.6968 57.775 13.9563H56.3876C56.3045 13.5053 56.054 13.2953 55.5321 13.2953C55.0418 13.2953 54.76 13.5262 54.76 13.8622C54.76 14.2087 55.0209 14.3451 55.8137 14.4606C57.1804 14.6597 57.9315 15.0066 57.9315 16.1825C57.9315 17.3688 57.0762 17.9879 55.6368 17.9879C54.1658 17.9879 53.3103 17.3373 53.2578 16.1509Z" fill="black"/>
</svg>
