<svg width="24" height="24" viewBox="0 0 24 24" fill="none" xmlns="http://www.w3.org/2000/svg">
<path fill-rule="evenodd" clip-rule="evenodd" d="M2.40039 5.70078C2.40039 5.46209 2.49521 5.23317 2.66399 5.06439C2.83278 4.8956 3.0617 4.80078 3.30039 4.80078H20.7004C20.9391 4.80078 21.168 4.8956 21.3368 5.06439C21.5056 5.23317 21.6004 5.46209 21.6004 5.70078C21.6004 5.93948 21.5056 6.16839 21.3368 6.33718C21.168 6.50596 20.9391 6.60078 20.7004 6.60078H3.30039C3.0617 6.60078 2.83278 6.50596 2.66399 6.33718C2.49521 6.16839 2.40039 5.93948 2.40039 5.70078ZM2.40039 12.0008C2.40039 11.7621 2.49521 11.5332 2.66399 11.3644C2.83278 11.1956 3.0617 11.1008 3.30039 11.1008H20.7004C20.9391 11.1008 21.168 11.1956 21.3368 11.3644C21.5056 11.5332 21.6004 11.7621 21.6004 12.0008C21.6004 12.2395 21.5056 12.4684 21.3368 12.6372C21.168 12.806 20.9391 12.9008 20.7004 12.9008H3.30039C3.0617 12.9008 2.83278 12.806 2.66399 12.6372C2.49521 12.4684 2.40039 12.2395 2.40039 12.0008ZM2.40039 18.3008C2.40039 18.0621 2.49521 17.8332 2.66399 17.6644C2.83278 17.4956 3.0617 17.4008 3.30039 17.4008H20.7004C20.9391 17.4008 21.168 17.4956 21.3368 17.6644C21.5056 17.8332 21.6004 18.0621 21.6004 18.3008C21.6004 18.5395 21.5056 18.7684 21.3368 18.9372C21.168 19.106 20.9391 19.2008 20.7004 19.2008H3.30039C3.0617 19.2008 2.83278 19.106 2.66399 18.9372C2.49521 18.7684 2.40039 18.5395 2.40039 18.3008Z" fill="black"/>
</svg>
