<svg width="105" height="44" viewBox="0 0 105 44" fill="none" xmlns="http://www.w3.org/2000/svg">
<g clip-path="url(#clip0_7_2470)">
<path d="M104.312 0H0V43.9863H104.312V0Z" fill="#FFB700"/>
<path d="M50.2821 11.1326H52.4816V15.3145L55.8766 11.1326H58.2115L54.3689 15.7218L58.4019 20.8405H55.8358L52.4816 16.4822V20.8405H50.2821V11.1326Z" fill="black"/>
<path d="M65.8148 16.0211V15.9126C65.8148 14.0253 64.81 12.7352 63.1129 12.7352C61.4293 12.7352 60.4105 13.971 60.4105 15.9261V16.0347C60.4105 18.017 61.5514 19.239 63.1395 19.239C64.783 19.239 65.8148 17.9762 65.8148 16.0211ZM58.1163 16.0484V15.9396C58.1163 13.0477 60.2343 10.9973 63.1129 10.9973C66.032 10.9973 68.109 12.9662 68.109 15.8853V15.9939C68.109 18.886 66.1271 20.9904 63.0989 20.9904C60.0579 20.9904 58.1163 18.886 58.1163 16.0484Z" fill="black"/>
<path d="M72.5629 19.1301C74.518 19.1301 75.4412 18.0302 75.4412 16.0208V15.9122C75.4412 13.9163 74.586 12.8437 72.5356 12.8437H71.6667V19.1301H72.5629ZM69.4671 11.1328H72.6444C76.0522 11.1328 77.7358 12.9793 77.7358 15.8849V15.9938C77.7358 18.8991 76.0387 20.841 72.6307 20.841H69.4671V11.1328Z" fill="black"/>
<path d="M81.0763 17.1209H83.6424L82.3661 12.9255L81.0763 17.1209ZM81.0628 11.1333H83.9276L87.0777 20.8412H84.783L84.1173 18.6824H80.6011L79.9354 20.8412H77.8719L81.0628 11.1333Z" fill="black"/>
<path d="M88.0412 11.1326H90.2408V15.3145L93.6353 11.1326H95.9707L92.1281 15.7218L96.1606 20.8405H93.5945L90.2408 16.4822V20.8405H88.0412V11.1326Z" fill="black"/>
<path d="M50.2936 23.144H52.4932V31.1278H56.4444V32.852H50.2936V23.144Z" fill="black"/>
<path d="M62.7035 28.5338C62.6352 27.4612 62.0925 26.9457 61.1557 26.9457C60.273 26.9457 59.6758 27.5295 59.5264 28.5338H62.7035ZM57.5028 29.3897V29.2807C57.5028 27.0404 59.0918 25.5879 61.1557 25.5879C62.9887 25.5879 64.618 26.6605 64.618 29.1991V29.7423H59.4991C59.5534 30.924 60.1917 31.6023 61.2643 31.6023C62.1741 31.6023 62.6219 31.2092 62.7443 30.6113H64.6043C64.3731 32.1455 63.1516 33.001 61.21 33.001C59.0648 33.001 57.5028 31.6566 57.5028 29.3897Z" fill="black"/>
<path d="M66.2878 25.7508H68.2567V26.8772C68.6097 26.1712 69.3836 25.5879 70.5648 25.5879C71.9632 25.5879 72.9545 26.4291 72.9545 28.3302V32.8518H70.9857V28.6152C70.9857 27.6516 70.6056 27.19 69.7366 27.19C68.8947 27.19 68.2567 27.7054 68.2567 28.751V32.8518H66.2878V25.7508Z" fill="black"/>
<path d="M74.5023 30.6252H76.3353C76.4168 31.2628 76.7295 31.63 77.5843 31.63C78.3451 31.63 78.6977 31.3444 78.6977 30.8562C78.6977 30.3673 78.2769 30.1636 77.259 30.0142C75.3712 29.7286 74.6381 29.1861 74.6381 27.8012C74.6381 26.3212 75.9958 25.5879 77.4487 25.5879C79.0237 25.5879 80.2054 26.1581 80.3813 27.787H78.5756C78.4675 27.2037 78.1415 26.9322 77.4622 26.9322C76.8242 26.9322 76.4574 27.2307 76.4574 27.6653C76.4574 28.1134 76.7969 28.2898 77.8287 28.4392C79.6074 28.6967 80.585 29.1453 80.585 30.666C80.585 32.2003 79.4716 33.001 77.5985 33.001C75.684 33.001 74.5706 32.1595 74.5023 30.6252Z" fill="black"/>
<path d="M86.9534 28.5338C86.8851 27.4612 86.3424 26.9457 85.4056 26.9457C84.5229 26.9457 83.9257 27.5295 83.7763 28.5338H86.9534ZM81.7527 29.3897V29.2807C81.7527 27.0404 83.3417 25.5879 85.4056 25.5879C87.2386 25.5879 88.868 26.6605 88.868 29.1991V29.7423H83.7491C83.8033 30.924 84.4416 31.6023 85.5142 31.6023C86.424 31.6023 86.8718 31.2092 86.9942 30.6113H88.8542C88.6231 32.1455 87.4015 33.001 85.4599 33.001C83.3147 33.001 81.7527 31.6566 81.7527 29.3897Z" fill="black"/>
<path d="M90.0891 30.6252H91.9221C92.0036 31.2628 92.3164 31.63 93.1711 31.63C93.9322 31.63 94.2845 31.3444 94.2845 30.8562C94.2845 30.3673 93.8637 30.1636 92.8458 30.0142C90.958 29.7286 90.2249 29.1861 90.2249 27.8012C90.2249 26.3212 91.5826 25.5879 93.0355 25.5879C94.6105 25.5879 95.7922 26.1581 95.9681 27.787H94.1624C94.0543 27.2037 93.7283 26.9322 93.049 26.9322C92.411 26.9322 92.0442 27.2307 92.0442 27.6653C92.0442 28.1134 92.3837 28.2898 93.4156 28.4392C95.1942 28.6967 96.1718 29.1453 96.1718 30.666C96.1718 32.2003 95.0586 33.001 93.1853 33.001C91.2708 33.001 90.1574 32.1595 90.0891 30.6252Z" fill="black"/>
<path d="M47.9847 0H0V43.9863H47.9847V0Z" fill="#FFB700"/>
<path d="M37.3757 28.527L35.9214 25.105H34.7958L33.3367 28.527H34.2465L34.4801 27.9329H36.1871L36.4256 28.527H37.3757ZM37.2162 33.4124L35.4327 31.7343L37.0964 30.0516H35.9617L34.4254 31.5936V30.0516H33.572V33.412H34.4254V31.8734L35.9965 33.4124H37.2162ZM35.4971 20.2445H33.5768V23.6385H35.4971C36.6982 23.6385 37.1851 22.9863 37.1851 21.8967C37.1851 20.8072 36.6982 20.2445 35.4971 20.2445ZM33.3883 16.9987C33.3883 18.1178 34.0598 18.8074 35.3404 18.8074C36.6162 18.8074 37.2923 18.1178 37.2923 16.9987C37.2923 15.8566 36.594 15.2791 35.3404 15.2791C34.0866 15.2791 33.3883 15.8566 33.3883 16.9987ZM33.572 13.8491H34.4254V12.31L35.9965 13.8491H37.2162L35.4327 12.1707L37.1502 10.488H35.9617L34.4254 12.0301V10.488H33.572V13.8491ZM39.8721 10.2266V33.7859C39.8721 34.907 38.9755 35.8046 37.8533 35.8046H28.8781C28.2806 35.8046 27.6822 35.5801 27.2579 35.2305L11.8774 22.3423C11.8018 22.2676 11.7775 22.1925 11.7775 22.0931C11.7775 21.9932 11.8018 21.9185 11.8774 21.8438L26.8588 9.12994C27.5328 8.55629 28.0552 8.18286 28.8781 8.18286H37.8785C38.9755 8.18286 39.8721 9.12994 39.8721 10.2266ZM34.7328 27.2889H35.9349L35.336 25.7941L34.7328 27.2889ZM11.2286 23.1153C11.054 22.866 10.7809 22.4922 10.7809 22.1183C10.7809 21.8186 10.8542 21.5442 11.0045 21.3201L19.7301 9.22914C19.8043 9.1304 19.8295 9.00577 19.8295 8.85526C19.8295 8.4816 19.5303 8.18286 19.1564 8.18286H10.1069C9.01048 8.18286 8.11243 9.1304 8.11243 10.2266V33.7859C8.11243 34.907 9.01048 35.8046 10.1069 35.8046H19.1564C19.5303 35.8046 19.8295 35.505 19.8295 35.1311C19.8295 34.9827 19.7796 34.8324 19.7053 34.7077L11.2286 23.1153ZM35.5015 20.9588H34.4384V22.9503H35.5015C36.082 22.9503 36.3234 22.5533 36.3234 21.9011C36.3234 21.2624 36.082 20.9588 35.5015 20.9588ZM34.2524 16.9987C34.2524 16.3405 34.5791 16 35.3356 16C36.0925 16 36.4238 16.3405 36.4238 16.9987C36.4238 17.724 36.0925 18.091 35.3356 18.091C34.5791 18.091 34.2524 17.724 34.2524 16.9987Z" fill="#ED0000"/>
</g>
<defs>
<clipPath id="clip0_7_2470">
<rect width="104.33" height="44" fill="white"/>
</clipPath>
</defs>
</svg>
