<svg width="238" height="100" viewBox="0 0 238 100" fill="none" xmlns="http://www.w3.org/2000/svg">
<g clip-path="url(#clip0_13_342)">
<path d="M237.072 0H0V99.9688H237.072V0Z" fill="#FFB700"/>
<path d="M114.277 25.3008H119.276V34.8051L126.992 25.3008H132.299L123.566 35.7309L132.731 47.3642H126.899L119.276 37.459V47.3642H114.277V25.3008Z" fill="black"/>
<path d="M149.579 36.4119V36.1651C149.579 31.8758 147.296 28.944 143.438 28.944C139.612 28.944 137.297 31.7525 137.297 36.1959V36.4427C137.297 40.948 139.889 43.7253 143.499 43.7253C147.234 43.7253 149.579 40.8553 149.579 36.4119ZM132.083 36.4739V36.2266C132.083 29.6541 136.896 24.9941 143.438 24.9941C150.073 24.9941 154.793 29.4688 154.793 36.1032V36.35C154.793 42.9229 150.289 47.7058 143.407 47.7058C136.495 47.7058 132.083 42.9229 132.083 36.4739Z" fill="black"/>
<path d="M164.916 43.4773C169.359 43.4773 171.457 40.9776 171.457 36.4108V36.164C171.457 31.6279 169.514 29.1901 164.854 29.1901H162.879V43.4773H164.916ZM157.88 25.3018H165.101C172.846 25.3018 176.672 29.4984 176.672 36.102V36.3494C176.672 42.9525 172.815 47.3657 165.07 47.3657H157.88V25.3018Z" fill="black"/>
<path d="M184.264 38.911H190.096L187.196 29.3759L184.264 38.911ZM184.234 25.3027H190.745L197.904 47.3662H192.689L191.176 42.4599H183.184L181.671 47.3662H176.982L184.234 25.3027Z" fill="black"/>
<path d="M200.094 25.3008H205.093V34.8051L212.807 25.3008H218.115L209.382 35.7309L218.547 47.3642H212.715L205.093 37.459V47.3642H200.094V25.3008Z" fill="black"/>
<path d="M114.304 52.5996H119.303V70.7445H128.283V74.663H114.304V52.5996Z" fill="black"/>
<path d="M142.508 64.8496C142.353 62.4118 141.119 61.2403 138.99 61.2403C136.984 61.2403 135.627 62.567 135.287 64.8496H142.508ZM130.688 66.7948V66.547C130.688 61.4554 134.3 58.1543 138.99 58.1543C143.156 58.1543 146.859 60.5921 146.859 66.3616V67.5961H135.225C135.349 70.2818 136.799 71.8235 139.237 71.8235C141.305 71.8235 142.323 70.93 142.601 69.5711H146.828C146.303 73.058 143.526 75.0022 139.114 75.0022C134.238 75.0022 130.688 71.9469 130.688 66.7948Z" fill="black"/>
<path d="M150.654 58.5245H155.129V61.0846C155.931 59.4799 157.69 58.1543 160.375 58.1543C163.553 58.1543 165.806 60.0662 165.806 64.3867V74.6632H161.331V65.0344C161.331 62.8445 160.467 61.7953 158.492 61.7953C156.579 61.7953 155.129 62.9669 155.129 65.3432V74.6632H150.654V58.5245Z" fill="black"/>
<path d="M169.323 69.6028H173.489C173.675 71.0518 174.385 71.8865 176.328 71.8865C178.057 71.8865 178.858 71.2372 178.858 70.1276C178.858 69.0165 177.902 68.5537 175.589 68.2142C171.298 67.5649 169.632 66.332 169.632 63.1845C169.632 59.821 172.718 58.1543 176.02 58.1543C179.599 58.1543 182.285 59.4502 182.685 63.1522H178.581C178.335 61.8266 177.594 61.2096 176.05 61.2096C174.6 61.2096 173.767 61.888 173.767 62.8757C173.767 63.8942 174.538 64.2951 176.884 64.6346C180.926 65.2198 183.148 66.2393 183.148 69.6955C183.148 73.1824 180.617 75.0022 176.36 75.0022C172.009 75.0022 169.479 73.0897 169.323 69.6028Z" fill="black"/>
<path d="M197.621 64.8496C197.466 62.4118 196.233 61.2403 194.104 61.2403C192.098 61.2403 190.74 62.567 190.401 64.8496H197.621ZM185.802 66.7948V66.547C185.802 61.4554 189.413 58.1543 194.104 58.1543C198.27 58.1543 201.973 60.5921 201.973 66.3616V67.5961H190.339C190.462 70.2818 191.913 71.8235 194.351 71.8235C196.418 71.8235 197.436 70.93 197.714 69.5711H201.941C201.416 73.058 198.64 75.0022 194.227 75.0022C189.352 75.0022 185.802 71.9469 185.802 66.7948Z" fill="black"/>
<path d="M204.748 69.6028H208.914C209.099 71.0518 209.81 71.8865 211.752 71.8865C213.482 71.8865 214.283 71.2372 214.283 70.1276C214.283 69.0165 213.326 68.5537 211.013 68.2142C206.723 67.5649 205.057 66.332 205.057 63.1845C205.057 59.821 208.142 58.1543 211.444 58.1543C215.024 58.1543 217.709 59.4502 218.109 63.1522H214.005C213.76 61.8266 213.019 61.2096 211.475 61.2096C210.025 61.2096 209.191 61.888 209.191 62.8757C209.191 63.8942 209.963 64.2951 212.308 64.6346C216.351 65.2198 218.572 66.2393 218.572 69.6955C218.572 73.1824 216.042 75.0022 211.785 75.0022C207.434 75.0022 204.903 73.0897 204.748 69.6028Z" fill="black"/>
<path d="M109.056 0H0V99.9688H109.056V0Z" fill="#FFB700"/>
<path d="M84.9447 64.8343L81.6395 57.057H79.0814L75.7653 64.8343H77.8329L78.3639 63.4842H82.2435L82.7855 64.8343H84.9447ZM84.5823 75.9376L80.5289 72.1237L84.31 68.2993H81.7311L78.2395 71.804V68.2993H76.3V75.9365H78.2395V72.4397L81.8103 75.9376H84.5823ZM80.6752 46.0105H76.3109V53.7242H80.6752C83.4051 53.7242 84.5115 52.2419 84.5115 49.7655C84.5115 47.2892 83.4051 46.0105 80.6752 46.0105ZM75.8824 38.6336C75.8824 41.1771 77.4085 42.7443 80.3191 42.7443C83.2187 42.7443 84.7552 41.1771 84.7552 38.6336C84.7552 36.038 83.1682 34.7254 80.3191 34.7254C77.4694 34.7254 75.8824 36.038 75.8824 38.6336ZM76.3 31.4754H78.2395V27.9775L81.8103 31.4754H84.5823L80.5289 27.661L84.4324 23.8366H81.7311L78.2395 27.3413V23.8366H76.3V31.4754ZM90.6185 23.2426V76.7863C90.6185 79.3344 88.5806 81.3744 86.0303 81.3744H65.632C64.2741 81.3744 62.9141 80.8642 61.9498 80.0696L26.994 50.7782C26.8222 50.6085 26.767 50.4377 26.767 50.2118C26.767 49.9847 26.8222 49.815 26.994 49.6453L61.0428 20.7501C62.5746 19.4464 63.7617 18.5977 65.632 18.5977H86.0876C88.5806 18.5977 90.6185 20.7501 90.6185 23.2426ZM78.9382 62.0206H81.6702L80.3092 58.6232L78.9382 62.0206ZM25.5195 52.535C25.1227 51.9685 24.5021 51.1188 24.5021 50.269C24.5021 49.588 24.6687 48.9642 25.0103 48.455L44.8411 20.9756C45.0098 20.7512 45.067 20.4679 45.067 20.1258C45.067 19.2766 44.387 18.5977 43.5373 18.5977H22.9703C20.4783 18.5977 18.4373 20.7512 18.4373 23.2426V76.7863C18.4373 79.3344 20.4783 81.3744 22.9703 81.3744H43.5373C44.387 81.3744 45.067 80.6934 45.067 79.8437C45.067 79.5063 44.9535 79.1647 44.7848 78.8815L25.5195 52.535ZM80.6851 47.6339H78.2692V52.1601H80.6851C82.0045 52.1601 82.5533 51.2578 82.5533 49.7754C82.5533 48.3238 82.0045 47.6339 80.6851 47.6339ZM77.8464 38.6336C77.8464 37.1377 78.5889 36.364 80.3081 36.364C82.0284 36.364 82.7813 37.1377 82.7813 38.6336C82.7813 40.282 82.0284 41.1162 80.3081 41.1162C78.5889 41.1162 77.8464 40.282 77.8464 38.6336Z" fill="#ED0000"/>
</g>
<defs>
<clipPath id="clip0_13_342">
<rect width="237.113" height="100" fill="white"/>
</clipPath>
</defs>
</svg>
