<svg width="172" height="73" viewBox="0 0 172 73" fill="none" xmlns="http://www.w3.org/2000/svg">
<g clip-path="url(#clip0_9_2505)">
<path d="M171.97 6.10352e-05H0V72.9773H171.97V6.10352e-05Z" fill="#FFB700"/>
<path d="M82.8955 18.4698H86.5217V25.408L92.1187 18.4698H95.9681L89.6331 26.0838L96.282 34.5762H92.0515L86.5217 27.3453V34.5762H82.8955V18.4698Z" fill="black"/>
<path d="M108.503 26.5807V26.4006C108.503 23.2694 106.847 21.1291 104.049 21.1291C101.273 21.1291 99.5937 23.1793 99.5937 26.423V26.6032C99.5937 29.8921 101.475 31.9195 104.093 31.9195C106.802 31.9195 108.503 29.8244 108.503 26.5807ZM95.8115 26.626V26.4454C95.8115 21.6476 99.3033 18.2458 104.049 18.2458C108.861 18.2458 112.286 21.5123 112.286 26.3554V26.5355C112.286 31.3338 109.018 34.8253 104.026 34.8253C99.0124 34.8253 95.8115 31.3338 95.8115 26.626Z" fill="black"/>
<path d="M119.628 31.7388C122.851 31.7388 124.373 29.914 124.373 26.5802V26.4C124.373 23.0887 122.964 21.3091 119.583 21.3091H118.151V31.7388H119.628ZM114.524 18.4706H119.763C125.381 18.4706 128.156 21.5341 128.156 26.3548V26.5354C128.156 31.3557 125.358 34.5773 119.74 34.5773H114.524V18.4706Z" fill="black"/>
<path d="M133.664 28.4054H137.894L135.79 21.4448L133.664 28.4054ZM133.641 18.4714H138.364L143.558 34.5777H139.775L138.677 30.9961H132.88L131.783 34.5777H128.381L133.641 18.4714Z" fill="black"/>
<path d="M145.146 18.4698H148.773V25.408L154.369 18.4698H158.219L151.884 26.0838L158.532 34.5762H154.302L148.773 27.3453V34.5762H145.146V18.4698Z" fill="black"/>
<path d="M82.915 38.3983H86.5412V51.644H93.0553V54.5046H82.915V38.3983Z" fill="black"/>
<path d="M103.374 47.3404C103.261 45.5608 102.366 44.7056 100.822 44.7056C99.3668 44.7056 98.3822 45.6741 98.1359 47.3404H103.374ZM94.7998 48.7604V48.5795C94.7998 44.8626 97.4195 42.4528 100.822 42.4528C103.844 42.4528 106.53 44.2324 106.53 48.4441V49.3453H98.091C98.1805 51.3058 99.2328 52.4313 101.001 52.4313C102.501 52.4313 103.239 51.7791 103.441 50.787H106.507C106.126 53.3325 104.113 54.7517 100.912 54.7517C97.3749 54.7517 94.7998 52.5214 94.7998 48.7604Z" fill="black"/>
<path d="M109.283 42.723H112.529V44.5919C113.111 43.4205 114.387 42.4528 116.334 42.4528C118.64 42.4528 120.274 43.8485 120.274 47.0025V54.5043H117.028V47.4753C117.028 45.8766 116.402 45.1108 114.969 45.1108C113.581 45.1108 112.529 45.966 112.529 47.7007V54.5043H109.283V42.723Z" fill="black"/>
<path d="M122.826 50.8102H125.848C125.983 51.868 126.498 52.4773 127.907 52.4773C129.162 52.4773 129.743 52.0033 129.743 51.1933C129.743 50.3822 129.049 50.0443 127.371 49.7965C124.259 49.3225 123.05 48.4225 123.05 46.1248C123.05 43.6695 125.288 42.4528 127.684 42.4528C130.28 42.4528 132.228 43.3988 132.518 46.1013H129.542C129.363 45.1336 128.826 44.6832 127.706 44.6832C126.654 44.6832 126.049 45.1784 126.049 45.8994C126.049 46.6429 126.609 46.9356 128.31 47.1834C131.243 47.6106 132.854 48.3548 132.854 50.8779C132.854 53.4233 131.019 54.7517 127.931 54.7517C124.774 54.7517 122.939 53.3557 122.826 50.8102Z" fill="black"/>
<path d="M143.353 47.3404C143.241 45.5608 142.346 44.7056 140.802 44.7056C139.346 44.7056 138.362 45.6741 138.115 47.3404H143.353ZM134.779 48.7604V48.5795C134.779 44.8626 137.399 42.4528 140.802 42.4528C143.823 42.4528 146.51 44.2324 146.51 48.4441V49.3453H138.07C138.16 51.3058 139.212 52.4313 140.981 52.4313C142.48 52.4313 143.219 51.7791 143.42 50.787H146.487C146.106 53.3325 144.092 54.7517 140.891 54.7517C137.354 54.7517 134.779 52.5214 134.779 48.7604Z" fill="black"/>
<path d="M148.522 50.8102H151.544C151.679 51.868 152.194 52.4773 153.604 52.4773C154.858 52.4773 155.439 52.0033 155.439 51.1933C155.439 50.3822 154.745 50.0443 153.067 49.7965C149.955 49.3225 148.746 48.4225 148.746 46.1248C148.746 43.6695 150.985 42.4528 153.38 42.4528C155.977 42.4528 157.925 43.3988 158.215 46.1013H155.238C155.06 45.1336 154.522 44.6832 153.402 44.6832C152.35 44.6832 151.746 45.1784 151.746 45.8994C151.746 46.6429 152.305 46.9356 154.007 47.1834C156.939 47.6106 158.551 48.3548 158.551 50.8779C158.551 53.4233 156.715 54.7517 153.627 54.7517C150.471 54.7517 148.635 53.3557 148.522 50.8102Z" fill="black"/>
<path d="M79.1084 6.10352e-05H0V72.9773H79.1084V6.10352e-05Z" fill="#FFB700"/>
<path d="M61.6179 47.3291L59.2203 41.6517H57.3647L54.9592 47.3291H56.459L56.8443 46.3435H59.6584L60.0516 47.3291H61.6179ZM61.355 55.4345L58.4147 52.6503L61.1575 49.8586H59.2868L56.754 52.4169V49.8586H55.3471V55.4337H56.754V52.881L59.3442 55.4345H61.355ZM58.5208 33.5877H55.355V39.2187H58.5208C60.5011 39.2187 61.3037 38.1366 61.3037 36.3289C61.3037 34.5212 60.5011 33.5877 58.5208 33.5877ZM55.0442 28.2026C55.0442 30.0593 56.1512 31.2034 58.2625 31.2034C60.3659 31.2034 61.4804 30.0593 61.4804 28.2026C61.4804 26.3078 60.3292 25.3496 58.2625 25.3496C56.1954 25.3496 55.0442 26.3078 55.0442 28.2026ZM55.3471 22.9771H56.754V20.4236L59.3442 22.9771H61.355L58.4147 20.1925L61.2463 17.4008H59.2868L56.754 19.9592V17.4008H55.3471V22.9771ZM65.7336 16.9671V56.054C65.7336 57.9142 64.2553 59.4034 62.4054 59.4034H47.6086C46.6236 59.4034 45.6371 59.0309 44.9376 58.4509L19.581 37.0682C19.4563 36.9442 19.4163 36.8196 19.4163 36.6546C19.4163 36.4889 19.4563 36.365 19.581 36.2411L44.2797 15.1476C45.3908 14.1959 46.252 13.5763 47.6086 13.5763H62.4469C64.2553 13.5763 65.7336 15.1476 65.7336 16.9671ZM57.2609 45.2751H59.2426L58.2553 42.795L57.2609 45.2751ZM18.5114 38.3506C18.2236 37.937 17.7734 37.3167 17.7734 36.6964C17.7734 36.1993 17.8942 35.7439 18.142 35.3722L32.5271 15.3122C32.6494 15.1484 32.691 14.9416 32.691 14.6919C32.691 14.072 32.1977 13.5763 31.5813 13.5763H16.6622C14.8546 13.5763 13.374 15.1484 13.374 16.9671V56.054C13.374 57.9142 14.8546 59.4034 16.6622 59.4034H31.5813C32.1977 59.4034 32.691 58.9062 32.691 58.2859C32.691 58.0396 32.6087 57.7903 32.4863 57.5835L18.5114 38.3506ZM58.528 34.7728H56.7755V38.0769H58.528C59.4851 38.0769 59.8832 37.4182 59.8832 36.3361C59.8832 35.2764 59.4851 34.7728 58.528 34.7728ZM56.4689 28.2026C56.4689 27.1106 57.0074 26.5458 58.2546 26.5458C59.5025 26.5458 60.0486 27.1106 60.0486 28.2026C60.0486 29.4059 59.5025 30.0148 58.2546 30.0148C57.0074 30.0148 56.4689 29.4059 56.4689 28.2026Z" fill="#ED0000"/>
</g>
<defs>
<clipPath id="clip0_9_2505">
<rect width="172" height="73" fill="white"/>
</clipPath>
</defs>
</svg>
