<svg width="172" height="73" viewBox="0 0 172 73" fill="none" xmlns="http://www.w3.org/2000/svg">
<g clip-path="url(#clip0_0_32)">
<path d="M171.97 0H0V72.9773H171.97V0Z" fill="#FFB700"/>
<path d="M82.8945 18.4697H86.5207V25.4079L92.1177 18.4697H95.9671L89.6321 26.0837L96.281 34.576H92.0505L86.5207 27.3452V34.576H82.8945V18.4697Z" fill="black"/>
<path d="M108.504 26.5806V26.4004C108.504 23.2693 106.848 21.129 104.05 21.129C101.274 21.129 99.5947 23.1792 99.5947 26.4229V26.603C99.5947 29.8919 101.476 31.9193 104.094 31.9193C106.803 31.9193 108.504 29.8243 108.504 26.5806ZM95.8125 26.6258V26.4453C95.8125 21.6474 99.3042 18.2456 104.05 18.2456C108.862 18.2456 112.287 21.5121 112.287 26.3552V26.5354C112.287 31.3336 109.019 34.8251 104.027 34.8251C99.0134 34.8251 95.8125 31.3336 95.8125 26.6258Z" fill="black"/>
<path d="M119.627 31.7389C122.85 31.7389 124.372 29.9141 124.372 26.5803V26.4001C124.372 23.0888 122.963 21.3092 119.582 21.3092H118.15V31.7389H119.627ZM114.523 18.4707H119.762C125.38 18.4707 128.155 21.5342 128.155 26.3549V26.5354C128.155 31.3557 125.357 34.5774 119.739 34.5774H114.523V18.4707Z" fill="black"/>
<path d="M133.666 28.4052H137.896L135.792 21.4446L133.666 28.4052ZM133.643 18.4712H138.366L143.56 34.5775H139.777L138.679 30.9959H132.882L131.785 34.5775H128.383L133.643 18.4712Z" fill="black"/>
<path d="M145.148 18.4697H148.775V25.4079L154.371 18.4697H158.221L151.886 26.0837L158.534 34.576H154.304L148.775 27.3452V34.576H145.148V18.4697Z" fill="black"/>
<path d="M82.9141 38.3982H86.5403V51.6439H93.0543V54.5045H82.9141V38.3982Z" fill="black"/>
<path d="M103.375 47.3402C103.262 45.5606 102.367 44.7054 100.823 44.7054C99.3678 44.7054 98.3832 45.6739 98.1369 47.3402H103.375ZM94.8008 48.7602V48.5793C94.8008 44.8624 97.4204 42.4526 100.823 42.4526C103.845 42.4526 106.531 44.2322 106.531 48.444V49.3452H98.092C98.1815 51.3057 99.2337 52.4311 101.002 52.4311C102.502 52.4311 103.24 51.7789 103.442 50.7869H106.508C106.127 53.3323 104.113 54.7516 100.913 54.7516C97.3759 54.7516 94.8008 52.5212 94.8008 48.7602Z" fill="black"/>
<path d="M109.285 42.7229H112.531V44.5918C113.113 43.4203 114.389 42.4526 116.336 42.4526C118.642 42.4526 120.276 43.8483 120.276 47.0023V54.5041H117.03V47.4751C117.03 45.8765 116.403 45.1106 114.971 45.1106C113.583 45.1106 112.531 45.9658 112.531 47.7005V54.5041H109.285V42.7229Z" fill="black"/>
<path d="M122.828 50.8101H125.85C125.984 51.8678 126.5 52.4771 127.909 52.4771C129.164 52.4771 129.745 52.0032 129.745 51.1932C129.745 50.3821 129.051 50.0442 127.373 49.7964C124.261 49.3224 123.052 48.4223 123.052 46.1247C123.052 43.6693 125.29 42.4526 127.686 42.4526C130.282 42.4526 132.23 43.3987 132.52 46.1011H129.543C129.365 45.1334 128.828 44.683 127.708 44.683C126.656 44.683 126.051 45.1783 126.051 45.8993C126.051 46.6427 126.611 46.9354 128.312 47.1832C131.245 47.6105 132.856 48.3547 132.856 50.8777C132.856 53.4232 131.021 54.7516 127.933 54.7516C124.776 54.7516 122.941 53.3555 122.828 50.8101Z" fill="black"/>
<path d="M143.355 47.3402C143.243 45.5606 142.348 44.7054 140.804 44.7054C139.348 44.7054 138.364 45.6739 138.117 47.3402H143.355ZM134.781 48.7602V48.5793C134.781 44.8624 137.401 42.4526 140.804 42.4526C143.825 42.4526 146.512 44.2322 146.512 48.444V49.3452H138.072C138.162 51.3057 139.214 52.4311 140.983 52.4311C142.482 52.4311 143.221 51.7789 143.422 50.7869H146.489C146.108 53.3323 144.094 54.7516 140.893 54.7516C137.356 54.7516 134.781 52.5212 134.781 48.7602Z" fill="black"/>
<path d="M148.523 50.8101H151.545C151.68 51.8678 152.195 52.4771 153.605 52.4771C154.859 52.4771 155.44 52.0032 155.44 51.1932C155.44 50.3821 154.746 50.0442 153.068 49.7964C149.956 49.3224 148.747 48.4223 148.747 46.1247C148.747 43.6693 150.986 42.4526 153.381 42.4526C155.978 42.4526 157.926 43.3987 158.216 46.1011H155.239C155.061 45.1334 154.523 44.683 153.403 44.683C152.351 44.683 151.747 45.1783 151.747 45.8993C151.747 46.6427 152.306 46.9354 154.007 47.1832C156.94 47.6105 158.551 48.3547 158.551 50.8777C158.551 53.4232 156.716 54.7516 153.628 54.7516C150.472 54.7516 148.636 53.3555 148.523 50.8101Z" fill="black"/>
<path d="M79.1084 0H0V72.9773H79.1084V0Z" fill="#FFB700"/>
<path d="M61.6189 47.3289L59.2213 41.6515H57.3657L54.9602 47.3289H56.46L56.8453 46.3433H59.6594L60.0526 47.3289H61.6189ZM61.356 55.4343L58.4157 52.6502L61.1585 49.8584H59.2878L56.755 52.4168V49.8584H55.3481V55.4336H56.755V52.8809L59.3452 55.4343H61.356ZM58.5218 33.5875H55.356V39.2186H58.5218C60.5021 39.2186 61.3046 38.1364 61.3046 36.3287C61.3046 34.521 60.5021 33.5875 58.5218 33.5875ZM55.0452 28.2024C55.0452 30.0591 56.1522 31.2032 58.2635 31.2032C60.3668 31.2032 61.4814 30.0591 61.4814 28.2024C61.4814 26.3077 60.3302 25.3495 58.2635 25.3495C56.1964 25.3495 55.0452 26.3077 55.0452 28.2024ZM55.3481 22.9769H56.755V20.4235L59.3452 22.9769H61.356L58.4157 20.1924L61.2472 17.4006H59.2878L56.755 19.959V17.4006H55.3481V22.9769ZM65.7346 16.967V56.0539C65.7346 57.914 64.2563 59.4032 62.4064 59.4032H47.6096C46.6246 59.4032 45.6381 59.0307 44.9386 58.4507L19.582 37.068C19.4573 36.9441 19.4173 36.8194 19.4173 36.6545C19.4173 36.4887 19.4573 36.3648 19.582 36.2409L44.2806 15.1475C45.3918 14.1957 46.2529 13.5762 47.6096 13.5762H62.4479C64.2563 13.5762 65.7346 15.1475 65.7346 16.967ZM57.2618 45.2749H59.2436L58.2563 42.7948L57.2618 45.2749ZM18.5123 38.3504C18.2245 37.9369 17.7743 37.3166 17.7743 36.6963C17.7743 36.1991 17.8952 35.7438 18.143 35.372L32.528 15.312C32.6504 15.1482 32.692 14.9415 32.692 14.6917C32.692 14.0718 32.1987 13.5762 31.5823 13.5762H16.6632C14.8555 13.5762 13.375 15.1482 13.375 16.967V56.0539C13.375 57.914 14.8555 59.4032 16.6632 59.4032H31.5823C32.1987 59.4032 32.692 58.9061 32.692 58.2858C32.692 58.0395 32.6096 57.7901 32.4873 57.5834L18.5123 38.3504ZM58.529 34.7726H56.7765V38.0768H58.529C59.4861 38.0768 59.8842 37.4181 59.8842 36.336C59.8842 35.2763 59.4861 34.7726 58.529 34.7726ZM56.4698 28.2024C56.4698 27.1104 57.0084 26.5456 58.2556 26.5456C59.5034 26.5456 60.0496 27.1104 60.0496 28.2024C60.0496 29.4058 59.5034 30.0147 58.2556 30.0147C57.0084 30.0147 56.4698 29.4058 56.4698 28.2024Z" fill="#ED0000"/>
</g>
<defs>
<clipPath id="clip0_0_32">
<rect width="172" height="73" fill="white"/>
</clipPath>
</defs>
</svg>
