<svg width="2121" height="676" viewBox="0 0 2121 676" fill="none" xmlns="http://www.w3.org/2000/svg">
<g clip-path="url(#clip0_0_333)">
<g clip-path="url(#clip1_0_333)">
<path opacity="0.5" d="M1588.35 5.5625H1586.59V710.022H1588.35V5.5625Z" fill="#838383" fill-opacity="0.65"/>
<path opacity="0.2" d="M1623.57 5.5625H1621.82V710.022H1623.57V5.5625Z" fill="#838383" fill-opacity="0.65"/>
<path opacity="0.2" d="M1658.8 5.5625H1657.04V710.022H1658.8V5.5625Z" fill="#838383" fill-opacity="0.65"/>
<path opacity="0.2" d="M1694.02 5.5625H1692.26V710.022H1694.02V5.5625Z" fill="#838383" fill-opacity="0.65"/>
<path opacity="0.2" d="M1729.24 5.5625H1727.48V710.022H1729.24V5.5625Z" fill="#838383" fill-opacity="0.65"/>
<path opacity="0.5" d="M1764.46 5.5625H1762.71V710.022H1764.46V5.5625Z" fill="#838383" fill-opacity="0.65"/>
<path opacity="0.2" d="M1799.69 5.5625H1797.93V710.022H1799.69V5.5625Z" fill="#838383" fill-opacity="0.65"/>
<path opacity="0.2" d="M1834.91 5.5625H1833.16V710.022H1834.91V5.5625Z" fill="#838383" fill-opacity="0.65"/>
<path opacity="0.2" d="M1870.13 5.5625H1868.38V710.022H1870.13V5.5625Z" fill="#838383" fill-opacity="0.65"/>
<path opacity="0.2" d="M1905.36 5.5625H1903.6V710.022H1905.36V5.5625Z" fill="#838383" fill-opacity="0.65"/>
<path opacity="0.5" d="M1940.58 5.5625H1938.82V710.022H1940.58V5.5625Z" fill="#838383" fill-opacity="0.65"/>
<path opacity="0.2" d="M1975.8 5.5625H1974.05V710.022H1975.8V5.5625Z" fill="#838383" fill-opacity="0.65"/>
<path opacity="0.2" d="M2011.02 5.5625H2009.27V710.022H2011.02V5.5625Z" fill="#838383" fill-opacity="0.65"/>
<path opacity="0.2" d="M2046.25 5.5625H2044.49V710.022H2046.25V5.5625Z" fill="#838383" fill-opacity="0.65"/>
<path opacity="0.2" d="M2081.47 5.5625H2079.71V710.022H2081.47V5.5625Z" fill="#838383" fill-opacity="0.65"/>
<path opacity="0.5" d="M2115.82 6.44043H2114.06V709.143H2115.82V6.44043Z" fill="#838383" fill-opacity="0.65"/>
<path opacity="0.5" d="M2114.94 5.5625H1412.23V7.31926H2114.94V5.5625Z" fill="#838383" fill-opacity="0.65"/>
<path opacity="0.2" d="M2115.81 39.9067H1411.36V41.6635H2115.81V39.9067Z" fill="#838383" fill-opacity="0.65"/>
<path opacity="0.2" d="M2115.81 75.1299H1411.36V76.8866H2115.81V75.1299Z" fill="#838383" fill-opacity="0.65"/>
<path opacity="0.2" d="M2115.81 110.353H1411.36V112.11H2115.81V110.353Z" fill="#838383" fill-opacity="0.65"/>
<path opacity="0.2" d="M2115.81 145.576H1411.36V147.332H2115.81V145.576Z" fill="#838383" fill-opacity="0.65"/>
<path opacity="0.5" d="M2115.81 180.799H1411.36V182.556H2115.81V180.799Z" fill="#838383" fill-opacity="0.65"/>
<path opacity="0.2" d="M2115.81 216.021H1411.36V217.778H2115.81V216.021Z" fill="#838383" fill-opacity="0.65"/>
<path opacity="0.2" d="M2115.81 251.245H1411.36V253.001H2115.81V251.245Z" fill="#838383" fill-opacity="0.65"/>
<path opacity="0.2" d="M2115.81 286.468H1411.36V288.225H2115.81V286.468Z" fill="#838383" fill-opacity="0.65"/>
<path opacity="0.2" d="M2115.81 321.69H1411.36V323.447H2115.81V321.69Z" fill="#838383" fill-opacity="0.65"/>
<path opacity="0.5" d="M2115.81 356.914H1411.36V358.67H2115.81V356.914Z" fill="#838383" fill-opacity="0.65"/>
<path opacity="0.2" d="M2115.81 392.137H1411.36V393.893H2115.81V392.137Z" fill="#838383" fill-opacity="0.65"/>
<path opacity="0.2" d="M2115.81 427.359H1411.36V429.116H2115.81V427.359Z" fill="#838383" fill-opacity="0.65"/>
<path opacity="0.2" d="M2115.81 462.583H1411.36V464.339H2115.81V462.583Z" fill="#838383" fill-opacity="0.65"/>
<path opacity="0.2" d="M2115.81 497.806H1411.36V499.562H2115.81V497.806Z" fill="#838383" fill-opacity="0.65"/>
<path opacity="0.5" d="M2115.81 533.028H1411.36V534.785H2115.81V533.028Z" fill="#838383" fill-opacity="0.65"/>
<path opacity="0.2" d="M2115.81 568.251H1411.36V570.008H2115.81V568.251Z" fill="#838383" fill-opacity="0.65"/>
<path opacity="0.2" d="M2115.81 603.475H1411.36V605.231H2115.81V603.475Z" fill="#838383" fill-opacity="0.65"/>
<path opacity="0.2" d="M2115.81 638.697H1411.36V640.454H2115.81V638.697Z" fill="#838383" fill-opacity="0.65"/>
<path opacity="0.2" d="M2115.81 673.92H1411.36V675.677H2115.81V673.92Z" fill="#838383" fill-opacity="0.65"/>
<path d="M2115.82 0.291992H2114.06V12.5893H2115.82V0.291992Z" fill="#838383" fill-opacity="0.65"/>
<path d="M2121.09 5.56226H2108.79V7.31901H2121.09V5.56226Z" fill="#838383" fill-opacity="0.65"/>
<path d="M2115.82 175.968H2114.06V188.265H2115.82V175.968Z" fill="#838383" fill-opacity="0.65"/>
<path d="M2121.09 181.238H2108.79V182.995H2121.09V181.238Z" fill="#838383" fill-opacity="0.65"/>
<path d="M2115.82 351.644H2114.06V363.941H2115.82V351.644Z" fill="#838383" fill-opacity="0.65"/>
<path d="M2121.09 356.914H2108.79V358.671H2121.09V356.914Z" fill="#838383" fill-opacity="0.65"/>
<path d="M2115.82 527.319H2114.06V539.616H2115.82V527.319Z" fill="#838383" fill-opacity="0.65"/>
<path d="M2121.09 532.589H2108.79V534.346H2121.09V532.589Z" fill="#838383" fill-opacity="0.65"/>
<path d="M1588.79 0.291992H1587.03V12.5893H1588.79V0.291992Z" fill="#838383" fill-opacity="0.65"/>
<path d="M1594.06 5.56226H1581.76V7.31901H1594.06V5.56226Z" fill="#838383" fill-opacity="0.65"/>
<path d="M1588.79 175.968H1587.03V188.265H1588.79V175.968Z" fill="#838383" fill-opacity="0.65"/>
<path d="M1594.06 181.238H1581.76V182.995H1594.06V181.238Z" fill="#838383" fill-opacity="0.65"/>
<path d="M1588.79 351.644H1587.03V363.941H1588.79V351.644Z" fill="#838383" fill-opacity="0.65"/>
<path d="M1594.06 356.914H1581.76V358.671H1594.06V356.914Z" fill="#838383" fill-opacity="0.65"/>
<path d="M1588.79 527.319H1587.03V539.616H1588.79V527.319Z" fill="#838383" fill-opacity="0.65"/>
<path d="M1594.06 532.589H1581.76V534.346H1594.06V532.589Z" fill="#838383" fill-opacity="0.65"/>
<path d="M1764.46 0.291992H1762.71V12.5893H1764.46V0.291992Z" fill="#838383" fill-opacity="0.65"/>
<path d="M1769.73 5.56226H1757.44V7.31901H1769.73V5.56226Z" fill="#838383" fill-opacity="0.65"/>
<path d="M1764.46 175.968H1762.71V188.265H1764.46V175.968Z" fill="#838383" fill-opacity="0.65"/>
<path d="M1769.73 181.238H1757.44V182.995H1769.73V181.238Z" fill="#838383" fill-opacity="0.65"/>
<path d="M1764.46 351.644H1762.71V363.941H1764.46V351.644Z" fill="#838383" fill-opacity="0.65"/>
<path d="M1769.73 356.914H1757.44V358.671H1769.73V356.914Z" fill="#838383" fill-opacity="0.65"/>
<path d="M1764.46 527.319H1762.71V539.616H1764.46V527.319Z" fill="#838383" fill-opacity="0.65"/>
<path d="M1769.73 532.589H1757.44V534.346H1769.73V532.589Z" fill="#838383" fill-opacity="0.65"/>
<path d="M1940.14 0.291992H1938.38V12.5893H1940.14V0.291992Z" fill="#838383" fill-opacity="0.65"/>
<path d="M1945.41 5.56226H1933.11V7.31901H1945.41V5.56226Z" fill="#838383" fill-opacity="0.65"/>
<path d="M1940.14 175.968H1938.38V188.265H1940.14V175.968Z" fill="#838383" fill-opacity="0.65"/>
<path d="M1945.41 181.238H1933.11V182.995H1945.41V181.238Z" fill="#838383" fill-opacity="0.65"/>
<path d="M1940.14 351.644H1938.38V363.941H1940.14V351.644Z" fill="#838383" fill-opacity="0.65"/>
<path d="M1945.41 356.914H1933.11V358.671H1945.41V356.914Z" fill="#838383" fill-opacity="0.65"/>
<path d="M1940.14 527.319H1938.38V539.616H1940.14V527.319Z" fill="#838383" fill-opacity="0.65"/>
<path d="M1945.41 532.589H1933.11V534.346H1945.41V532.589Z" fill="#838383" fill-opacity="0.65"/>
<path d="M1676.62 93.3999H1674.87V95.1567H1676.62V93.3999Z" fill="#838383" fill-opacity="0.65"/>
<path d="M1852.3 93.3999H1850.55V95.1567H1852.3V93.3999Z" fill="#838383" fill-opacity="0.65"/>
<path d="M2027.98 93.3999H2026.22V95.1567H2027.98V93.3999Z" fill="#838383" fill-opacity="0.65"/>
<path d="M1676.62 269.076H1674.87V270.832H1676.62V269.076Z" fill="#838383" fill-opacity="0.65"/>
<path d="M1852.3 269.076H1850.55V270.832H1852.3V269.076Z" fill="#838383" fill-opacity="0.65"/>
<path d="M2027.98 269.076H2026.22V270.832H2027.98V269.076Z" fill="#838383" fill-opacity="0.65"/>
<path d="M1676.62 444.751H1674.87V446.508H1676.62V444.751Z" fill="#838383" fill-opacity="0.65"/>
<path d="M1852.3 444.751H1850.55V446.508H1852.3V444.751Z" fill="#838383" fill-opacity="0.65"/>
<path d="M2027.98 444.751H2026.22V446.508H2027.98V444.751Z" fill="#838383" fill-opacity="0.65"/>
<path d="M1676.62 620.427H1674.87V622.184H1676.62V620.427Z" fill="#838383" fill-opacity="0.65"/>
<path d="M1852.3 620.427H1850.55V622.184H1852.3V620.427Z" fill="#838383" fill-opacity="0.65"/>
<path d="M2027.98 620.427H2026.22V622.184H2027.98V620.427Z" fill="#838383" fill-opacity="0.65"/>
</g>
<g clip-path="url(#clip2_0_333)">
<path opacity="0.5" d="M1060.35 5.5625H1058.59V710.022H1060.35V5.5625Z" fill="#838383" fill-opacity="0.65"/>
<path opacity="0.2" d="M1095.57 5.5625H1093.82V710.022H1095.57V5.5625Z" fill="#838383" fill-opacity="0.65"/>
<path opacity="0.2" d="M1130.8 5.5625H1129.04V710.022H1130.8V5.5625Z" fill="#838383" fill-opacity="0.65"/>
<path opacity="0.2" d="M1166.02 5.5625H1164.26V710.022H1166.02V5.5625Z" fill="#838383" fill-opacity="0.65"/>
<path opacity="0.2" d="M1201.24 5.5625H1199.48V710.022H1201.24V5.5625Z" fill="#838383" fill-opacity="0.65"/>
<path opacity="0.5" d="M1236.46 5.5625H1234.71V710.022H1236.46V5.5625Z" fill="#838383" fill-opacity="0.65"/>
<path opacity="0.2" d="M1271.69 5.5625H1269.93V710.022H1271.69V5.5625Z" fill="#838383" fill-opacity="0.65"/>
<path opacity="0.2" d="M1306.91 5.5625H1305.16V710.022H1306.91V5.5625Z" fill="#838383" fill-opacity="0.65"/>
<path opacity="0.2" d="M1342.13 5.5625H1340.38V710.022H1342.13V5.5625Z" fill="#838383" fill-opacity="0.65"/>
<path opacity="0.2" d="M1377.36 5.5625H1375.6V710.022H1377.36V5.5625Z" fill="#838383" fill-opacity="0.65"/>
<path opacity="0.5" d="M1412.58 5.5625H1410.82V710.022H1412.58V5.5625Z" fill="#838383" fill-opacity="0.65"/>
<path opacity="0.2" d="M1447.8 5.5625H1446.05V710.022H1447.8V5.5625Z" fill="#838383" fill-opacity="0.65"/>
<path opacity="0.2" d="M1483.02 5.5625H1481.27V710.022H1483.02V5.5625Z" fill="#838383" fill-opacity="0.65"/>
<path opacity="0.2" d="M1518.25 5.5625H1516.49V710.022H1518.25V5.5625Z" fill="#838383" fill-opacity="0.65"/>
<path opacity="0.2" d="M1553.47 5.5625H1551.71V710.022H1553.47V5.5625Z" fill="#838383" fill-opacity="0.65"/>
<path opacity="0.5" d="M1587.82 6.44043H1586.06V709.143H1587.82V6.44043Z" fill="#838383" fill-opacity="0.65"/>
<path opacity="0.5" d="M1586.94 5.5625H884.234V7.31926H1586.94V5.5625Z" fill="#838383" fill-opacity="0.65"/>
<path opacity="0.2" d="M1587.81 39.9067H883.355V41.6635H1587.81V39.9067Z" fill="#838383" fill-opacity="0.65"/>
<path opacity="0.2" d="M1587.81 75.1299H883.355V76.8866H1587.81V75.1299Z" fill="#838383" fill-opacity="0.65"/>
<path opacity="0.2" d="M1587.81 110.353H883.355V112.11H1587.81V110.353Z" fill="#838383" fill-opacity="0.65"/>
<path opacity="0.2" d="M1587.81 145.576H883.355V147.332H1587.81V145.576Z" fill="#838383" fill-opacity="0.65"/>
<path opacity="0.5" d="M1587.81 180.799H883.355V182.556H1587.81V180.799Z" fill="#838383" fill-opacity="0.65"/>
<path opacity="0.2" d="M1587.81 216.021H883.355V217.778H1587.81V216.021Z" fill="#838383" fill-opacity="0.65"/>
<path opacity="0.2" d="M1587.81 251.245H883.355V253.001H1587.81V251.245Z" fill="#838383" fill-opacity="0.65"/>
<path opacity="0.2" d="M1587.81 286.468H883.355V288.225H1587.81V286.468Z" fill="#838383" fill-opacity="0.65"/>
<path opacity="0.2" d="M1587.81 321.69H883.355V323.447H1587.81V321.69Z" fill="#838383" fill-opacity="0.65"/>
<path opacity="0.5" d="M1587.81 356.914H883.355V358.67H1587.81V356.914Z" fill="#838383" fill-opacity="0.65"/>
<path opacity="0.2" d="M1587.81 392.137H883.355V393.893H1587.81V392.137Z" fill="#838383" fill-opacity="0.65"/>
<path opacity="0.2" d="M1587.81 427.359H883.355V429.116H1587.81V427.359Z" fill="#838383" fill-opacity="0.65"/>
<path opacity="0.2" d="M1587.81 462.583H883.355V464.339H1587.81V462.583Z" fill="#838383" fill-opacity="0.65"/>
<path opacity="0.2" d="M1587.81 497.806H883.355V499.562H1587.81V497.806Z" fill="#838383" fill-opacity="0.65"/>
<path opacity="0.5" d="M1587.81 533.028H883.355V534.785H1587.81V533.028Z" fill="#838383" fill-opacity="0.65"/>
<path opacity="0.2" d="M1587.81 568.251H883.355V570.008H1587.81V568.251Z" fill="#838383" fill-opacity="0.65"/>
<path opacity="0.2" d="M1587.81 603.475H883.355V605.231H1587.81V603.475Z" fill="#838383" fill-opacity="0.65"/>
<path opacity="0.2" d="M1587.81 638.697H883.355V640.454H1587.81V638.697Z" fill="#838383" fill-opacity="0.65"/>
<path opacity="0.2" d="M1587.81 673.92H883.355V675.677H1587.81V673.92Z" fill="#838383" fill-opacity="0.65"/>
<path d="M1587.82 0.291992H1586.06V12.5893H1587.82V0.291992Z" fill="#838383" fill-opacity="0.65"/>
<path d="M1593.09 5.56226H1580.79V7.31901H1593.09V5.56226Z" fill="#838383" fill-opacity="0.65"/>
<path d="M1587.82 175.968H1586.06V188.265H1587.82V175.968Z" fill="#838383" fill-opacity="0.65"/>
<path d="M1593.09 181.238H1580.79V182.995H1593.09V181.238Z" fill="#838383" fill-opacity="0.65"/>
<path d="M1587.82 351.644H1586.06V363.941H1587.82V351.644Z" fill="#838383" fill-opacity="0.65"/>
<path d="M1593.09 356.914H1580.79V358.671H1593.09V356.914Z" fill="#838383" fill-opacity="0.65"/>
<path d="M1587.82 527.319H1586.06V539.616H1587.82V527.319Z" fill="#838383" fill-opacity="0.65"/>
<path d="M1593.09 532.589H1580.79V534.346H1593.09V532.589Z" fill="#838383" fill-opacity="0.65"/>
<path d="M1060.79 0.291992H1059.03V12.5893H1060.79V0.291992Z" fill="#838383" fill-opacity="0.65"/>
<path d="M1066.06 5.56226H1053.76V7.31901H1066.06V5.56226Z" fill="#838383" fill-opacity="0.65"/>
<path d="M1060.79 175.968H1059.03V188.265H1060.79V175.968Z" fill="#838383" fill-opacity="0.65"/>
<path d="M1066.06 181.238H1053.76V182.995H1066.06V181.238Z" fill="#838383" fill-opacity="0.65"/>
<path d="M1060.79 351.644H1059.03V363.941H1060.79V351.644Z" fill="#838383" fill-opacity="0.65"/>
<path d="M1066.06 356.914H1053.76V358.671H1066.06V356.914Z" fill="#838383" fill-opacity="0.65"/>
<path d="M1060.79 527.319H1059.03V539.616H1060.79V527.319Z" fill="#838383" fill-opacity="0.65"/>
<path d="M1066.06 532.589H1053.76V534.346H1066.06V532.589Z" fill="#838383" fill-opacity="0.65"/>
<path d="M1236.46 0.291992H1234.71V12.5893H1236.46V0.291992Z" fill="#838383" fill-opacity="0.65"/>
<path d="M1241.73 5.56226H1229.44V7.31901H1241.73V5.56226Z" fill="#838383" fill-opacity="0.65"/>
<path d="M1236.46 175.968H1234.71V188.265H1236.46V175.968Z" fill="#838383" fill-opacity="0.65"/>
<path d="M1241.73 181.238H1229.44V182.995H1241.73V181.238Z" fill="#838383" fill-opacity="0.65"/>
<path d="M1236.46 351.644H1234.71V363.941H1236.46V351.644Z" fill="#838383" fill-opacity="0.65"/>
<path d="M1241.73 356.914H1229.44V358.671H1241.73V356.914Z" fill="#838383" fill-opacity="0.65"/>
<path d="M1236.46 527.319H1234.71V539.616H1236.46V527.319Z" fill="#838383" fill-opacity="0.65"/>
<path d="M1241.73 532.589H1229.44V534.346H1241.73V532.589Z" fill="#838383" fill-opacity="0.65"/>
<path d="M1412.14 0.291992H1410.38V12.5893H1412.14V0.291992Z" fill="#838383" fill-opacity="0.65"/>
<path d="M1417.41 5.56226H1405.11V7.31901H1417.41V5.56226Z" fill="#838383" fill-opacity="0.65"/>
<path d="M1412.14 175.968H1410.38V188.265H1412.14V175.968Z" fill="#838383" fill-opacity="0.65"/>
<path d="M1417.41 181.238H1405.11V182.995H1417.41V181.238Z" fill="#838383" fill-opacity="0.65"/>
<path d="M1412.14 351.644H1410.38V363.941H1412.14V351.644Z" fill="#838383" fill-opacity="0.65"/>
<path d="M1417.41 356.914H1405.11V358.671H1417.41V356.914Z" fill="#838383" fill-opacity="0.65"/>
<path d="M1412.14 527.319H1410.38V539.616H1412.14V527.319Z" fill="#838383" fill-opacity="0.65"/>
<path d="M1417.41 532.589H1405.11V534.346H1417.41V532.589Z" fill="#838383" fill-opacity="0.65"/>
<path d="M1148.62 93.3999H1146.87V95.1567H1148.62V93.3999Z" fill="#838383" fill-opacity="0.65"/>
<path d="M1324.3 93.3999H1322.55V95.1567H1324.3V93.3999Z" fill="#838383" fill-opacity="0.65"/>
<path d="M1499.98 93.3999H1498.22V95.1567H1499.98V93.3999Z" fill="#838383" fill-opacity="0.65"/>
<path d="M1148.62 269.076H1146.87V270.832H1148.62V269.076Z" fill="#838383" fill-opacity="0.65"/>
<path d="M1324.3 269.076H1322.55V270.832H1324.3V269.076Z" fill="#838383" fill-opacity="0.65"/>
<path d="M1499.98 269.076H1498.22V270.832H1499.98V269.076Z" fill="#838383" fill-opacity="0.65"/>
<path d="M1148.62 444.751H1146.87V446.508H1148.62V444.751Z" fill="#838383" fill-opacity="0.65"/>
<path d="M1324.3 444.751H1322.55V446.508H1324.3V444.751Z" fill="#838383" fill-opacity="0.65"/>
<path d="M1499.98 444.751H1498.22V446.508H1499.98V444.751Z" fill="#838383" fill-opacity="0.65"/>
<path d="M1148.62 620.427H1146.87V622.184H1148.62V620.427Z" fill="#838383" fill-opacity="0.65"/>
<path d="M1324.3 620.427H1322.55V622.184H1324.3V620.427Z" fill="#838383" fill-opacity="0.65"/>
<path d="M1499.98 620.427H1498.22V622.184H1499.98V620.427Z" fill="#838383" fill-opacity="0.65"/>
</g>
<g clip-path="url(#clip3_0_333)">
<path opacity="0.5" d="M533.351 5.5625H531.594V710.022H533.351V5.5625Z" fill="#838383" fill-opacity="0.65"/>
<path opacity="0.2" d="M568.573 5.5625H566.816V710.022H568.573V5.5625Z" fill="#838383" fill-opacity="0.65"/>
<path opacity="0.2" d="M603.796 5.5625H602.039V710.022H603.796V5.5625Z" fill="#838383" fill-opacity="0.65"/>
<path opacity="0.2" d="M639.018 5.5625H637.262V710.022H639.018V5.5625Z" fill="#838383" fill-opacity="0.65"/>
<path opacity="0.2" d="M674.241 5.5625H672.484V710.022H674.241V5.5625Z" fill="#838383" fill-opacity="0.65"/>
<path opacity="0.5" d="M709.464 5.5625H707.707V710.022H709.464V5.5625Z" fill="#838383" fill-opacity="0.65"/>
<path opacity="0.2" d="M744.686 5.5625H742.93V710.022H744.686V5.5625Z" fill="#838383" fill-opacity="0.65"/>
<path opacity="0.2" d="M779.913 5.5625H778.156V710.022H779.913V5.5625Z" fill="#838383" fill-opacity="0.65"/>
<path opacity="0.2" d="M815.132 5.5625H813.375V710.022H815.132V5.5625Z" fill="#838383" fill-opacity="0.65"/>
<path opacity="0.2" d="M850.358 5.5625H848.602V710.022H850.358V5.5625Z" fill="#838383" fill-opacity="0.65"/>
<path opacity="0.5" d="M885.577 5.5625H883.82V710.022H885.577V5.5625Z" fill="#838383" fill-opacity="0.65"/>
<path opacity="0.2" d="M920.804 5.5625H919.047V710.022H920.804V5.5625Z" fill="#838383" fill-opacity="0.65"/>
<path opacity="0.2" d="M956.022 5.5625H954.266V710.022H956.022V5.5625Z" fill="#838383" fill-opacity="0.65"/>
<path opacity="0.2" d="M991.249 5.5625H989.492V710.022H991.249V5.5625Z" fill="#838383" fill-opacity="0.65"/>
<path opacity="0.2" d="M1026.47 5.5625H1024.71V710.022H1026.47V5.5625Z" fill="#838383" fill-opacity="0.65"/>
<path opacity="0.5" d="M1060.82 6.44043H1059.06V709.143H1060.82V6.44043Z" fill="#838383" fill-opacity="0.65"/>
<path opacity="0.5" d="M1059.94 5.5625H357.234V7.31926H1059.94V5.5625Z" fill="#838383" fill-opacity="0.65"/>
<path opacity="0.2" d="M1060.81 39.9067H356.355V41.6635H1060.81V39.9067Z" fill="#838383" fill-opacity="0.65"/>
<path opacity="0.2" d="M1060.81 75.1299H356.355V76.8866H1060.81V75.1299Z" fill="#838383" fill-opacity="0.65"/>
<path opacity="0.2" d="M1060.81 110.353H356.355V112.11H1060.81V110.353Z" fill="#838383" fill-opacity="0.65"/>
<path opacity="0.2" d="M1060.81 145.576H356.355V147.332H1060.81V145.576Z" fill="#838383" fill-opacity="0.65"/>
<path opacity="0.5" d="M1060.81 180.799H356.355V182.556H1060.81V180.799Z" fill="#838383" fill-opacity="0.65"/>
<path opacity="0.2" d="M1060.81 216.021H356.355V217.778H1060.81V216.021Z" fill="#838383" fill-opacity="0.65"/>
<path opacity="0.2" d="M1060.81 251.245H356.355V253.001H1060.81V251.245Z" fill="#838383" fill-opacity="0.65"/>
<path opacity="0.2" d="M1060.81 286.468H356.355V288.225H1060.81V286.468Z" fill="#838383" fill-opacity="0.65"/>
<path opacity="0.2" d="M1060.81 321.69H356.355V323.447H1060.81V321.69Z" fill="#838383" fill-opacity="0.65"/>
<path opacity="0.5" d="M1060.81 356.914H356.355V358.67H1060.81V356.914Z" fill="#838383" fill-opacity="0.65"/>
<path opacity="0.2" d="M1060.81 392.137H356.355V393.893H1060.81V392.137Z" fill="#838383" fill-opacity="0.65"/>
<path opacity="0.2" d="M1060.81 427.359H356.355V429.116H1060.81V427.359Z" fill="#838383" fill-opacity="0.65"/>
<path opacity="0.2" d="M1060.81 462.583H356.355V464.339H1060.81V462.583Z" fill="#838383" fill-opacity="0.65"/>
<path opacity="0.2" d="M1060.81 497.806H356.355V499.562H1060.81V497.806Z" fill="#838383" fill-opacity="0.65"/>
<path opacity="0.5" d="M1060.81 533.028H356.355V534.785H1060.81V533.028Z" fill="#838383" fill-opacity="0.65"/>
<path opacity="0.2" d="M1060.81 568.251H356.355V570.008H1060.81V568.251Z" fill="#838383" fill-opacity="0.65"/>
<path opacity="0.2" d="M1060.81 603.475H356.355V605.231H1060.81V603.475Z" fill="#838383" fill-opacity="0.65"/>
<path opacity="0.2" d="M1060.81 638.697H356.355V640.454H1060.81V638.697Z" fill="#838383" fill-opacity="0.65"/>
<path opacity="0.2" d="M1060.81 673.92H356.355V675.677H1060.81V673.92Z" fill="#838383" fill-opacity="0.65"/>
<path d="M1060.82 0.291992H1059.06V12.5893H1060.82V0.291992Z" fill="#838383" fill-opacity="0.65"/>
<path d="M1066.09 5.56226H1053.79V7.31901H1066.09V5.56226Z" fill="#838383" fill-opacity="0.65"/>
<path d="M1060.82 175.968H1059.06V188.265H1060.82V175.968Z" fill="#838383" fill-opacity="0.65"/>
<path d="M1066.09 181.238H1053.79V182.995H1066.09V181.238Z" fill="#838383" fill-opacity="0.65"/>
<path d="M1060.82 351.644H1059.06V363.941H1060.82V351.644Z" fill="#838383" fill-opacity="0.65"/>
<path d="M1066.09 356.914H1053.79V358.671H1066.09V356.914Z" fill="#838383" fill-opacity="0.65"/>
<path d="M1060.82 527.319H1059.06V539.616H1060.82V527.319Z" fill="#838383" fill-opacity="0.65"/>
<path d="M1066.09 532.589H1053.79V534.346H1066.09V532.589Z" fill="#838383" fill-opacity="0.65"/>
<path d="M533.788 0.291992H532.031V12.5893H533.788V0.291992Z" fill="#838383" fill-opacity="0.65"/>
<path d="M539.059 5.56226H526.762V7.31901H539.059V5.56226Z" fill="#838383" fill-opacity="0.65"/>
<path d="M533.788 175.968H532.031V188.265H533.788V175.968Z" fill="#838383" fill-opacity="0.65"/>
<path d="M539.059 181.238H526.762V182.995H539.059V181.238Z" fill="#838383" fill-opacity="0.65"/>
<path d="M533.788 351.644H532.031V363.941H533.788V351.644Z" fill="#838383" fill-opacity="0.65"/>
<path d="M539.059 356.914H526.762V358.671H539.059V356.914Z" fill="#838383" fill-opacity="0.65"/>
<path d="M533.788 527.319H532.031V539.616H533.788V527.319Z" fill="#838383" fill-opacity="0.65"/>
<path d="M539.059 532.589H526.762V534.346H539.059V532.589Z" fill="#838383" fill-opacity="0.65"/>
<path d="M709.464 0.291992H707.707V12.5893H709.464V0.291992Z" fill="#838383" fill-opacity="0.65"/>
<path d="M714.735 5.56226H702.438V7.31901H714.735V5.56226Z" fill="#838383" fill-opacity="0.65"/>
<path d="M709.464 175.968H707.707V188.265H709.464V175.968Z" fill="#838383" fill-opacity="0.65"/>
<path d="M714.735 181.238H702.438V182.995H714.735V181.238Z" fill="#838383" fill-opacity="0.65"/>
<path d="M709.464 351.644H707.707V363.941H709.464V351.644Z" fill="#838383" fill-opacity="0.65"/>
<path d="M714.735 356.914H702.438V358.671H714.735V356.914Z" fill="#838383" fill-opacity="0.65"/>
<path d="M709.464 527.319H707.707V539.616H709.464V527.319Z" fill="#838383" fill-opacity="0.65"/>
<path d="M714.735 532.589H702.438V534.346H714.735V532.589Z" fill="#838383" fill-opacity="0.65"/>
<path d="M885.14 0.291992H883.383V12.5893H885.14V0.291992Z" fill="#838383" fill-opacity="0.65"/>
<path d="M890.411 5.56226H878.113V7.31901H890.411V5.56226Z" fill="#838383" fill-opacity="0.65"/>
<path d="M885.14 175.968H883.383V188.265H885.14V175.968Z" fill="#838383" fill-opacity="0.65"/>
<path d="M890.411 181.238H878.113V182.995H890.411V181.238Z" fill="#838383" fill-opacity="0.65"/>
<path d="M885.14 351.644H883.383V363.941H885.14V351.644Z" fill="#838383" fill-opacity="0.65"/>
<path d="M890.411 356.914H878.113V358.671H890.411V356.914Z" fill="#838383" fill-opacity="0.65"/>
<path d="M885.14 527.319H883.383V539.616H885.14V527.319Z" fill="#838383" fill-opacity="0.65"/>
<path d="M890.411 532.589H878.113V534.346H890.411V532.589Z" fill="#838383" fill-opacity="0.65"/>
<path d="M621.624 93.3999H619.867V95.1567H621.624V93.3999Z" fill="#838383" fill-opacity="0.65"/>
<path d="M797.304 93.3999H795.547V95.1567H797.304V93.3999Z" fill="#838383" fill-opacity="0.65"/>
<path d="M972.976 93.3999H971.219V95.1567H972.976V93.3999Z" fill="#838383" fill-opacity="0.65"/>
<path d="M621.624 269.076H619.867V270.832H621.624V269.076Z" fill="#838383" fill-opacity="0.65"/>
<path d="M797.304 269.076H795.547V270.832H797.304V269.076Z" fill="#838383" fill-opacity="0.65"/>
<path d="M972.976 269.076H971.219V270.832H972.976V269.076Z" fill="#838383" fill-opacity="0.65"/>
<path d="M621.624 444.751H619.867V446.508H621.624V444.751Z" fill="#838383" fill-opacity="0.65"/>
<path d="M797.304 444.751H795.547V446.508H797.304V444.751Z" fill="#838383" fill-opacity="0.65"/>
<path d="M972.976 444.751H971.219V446.508H972.976V444.751Z" fill="#838383" fill-opacity="0.65"/>
<path d="M621.624 620.427H619.867V622.184H621.624V620.427Z" fill="#838383" fill-opacity="0.65"/>
<path d="M797.304 620.427H795.547V622.184H797.304V620.427Z" fill="#838383" fill-opacity="0.65"/>
<path d="M972.976 620.427H971.219V622.184H972.976V620.427Z" fill="#838383" fill-opacity="0.65"/>
</g>
<g clip-path="url(#clip4_0_333)">
<path opacity="0.5" d="M6.35051 5.5625H4.59375V710.022H6.35051V5.5625Z" fill="#838383" fill-opacity="0.65"/>
<path opacity="0.2" d="M41.5732 5.5625H39.8164V710.022H41.5732V5.5625Z" fill="#838383" fill-opacity="0.65"/>
<path opacity="0.2" d="M76.7958 5.5625H75.0391V710.022H76.7958V5.5625Z" fill="#838383" fill-opacity="0.65"/>
<path opacity="0.2" d="M112.018 5.5625H110.262V710.022H112.018V5.5625Z" fill="#838383" fill-opacity="0.65"/>
<path opacity="0.2" d="M147.241 5.5625H145.484V710.022H147.241V5.5625Z" fill="#838383" fill-opacity="0.65"/>
<path opacity="0.5" d="M182.464 5.5625H180.707V710.022H182.464V5.5625Z" fill="#838383" fill-opacity="0.65"/>
<path opacity="0.2" d="M217.686 5.5625H215.93V710.022H217.686V5.5625Z" fill="#838383" fill-opacity="0.65"/>
<path opacity="0.2" d="M252.913 5.5625H251.156V710.022H252.913V5.5625Z" fill="#838383" fill-opacity="0.65"/>
<path opacity="0.2" d="M288.132 5.5625H286.375V710.022H288.132V5.5625Z" fill="#838383" fill-opacity="0.65"/>
<path opacity="0.2" d="M323.358 5.5625H321.602V710.022H323.358V5.5625Z" fill="#838383" fill-opacity="0.65"/>
<path opacity="0.5" d="M358.577 5.5625H356.82V710.022H358.577V5.5625Z" fill="#838383" fill-opacity="0.65"/>
<path opacity="0.2" d="M393.804 5.5625H392.047V710.022H393.804V5.5625Z" fill="#838383" fill-opacity="0.65"/>
<path opacity="0.2" d="M429.022 5.5625H427.266V710.022H429.022V5.5625Z" fill="#838383" fill-opacity="0.65"/>
<path opacity="0.2" d="M464.249 5.5625H462.492V710.022H464.249V5.5625Z" fill="#838383" fill-opacity="0.65"/>
<path opacity="0.2" d="M499.472 5.5625H497.715V710.022H499.472V5.5625Z" fill="#838383" fill-opacity="0.65"/>
<path opacity="0.5" d="M533.815 6.44043H532.059V709.143H533.815V6.44043Z" fill="#838383" fill-opacity="0.65"/>
<path opacity="0.5" d="M532.937 5.5625H-169.766V7.31926H532.937V5.5625Z" fill="#838383" fill-opacity="0.65"/>
<path opacity="0.2" d="M533.815 39.9067H-170.645V41.6635H533.815V39.9067Z" fill="#838383" fill-opacity="0.65"/>
<path opacity="0.2" d="M533.815 75.1299H-170.645V76.8866H533.815V75.1299Z" fill="#838383" fill-opacity="0.65"/>
<path opacity="0.2" d="M533.815 110.353H-170.645V112.11H533.815V110.353Z" fill="#838383" fill-opacity="0.65"/>
<path opacity="0.2" d="M533.815 145.576H-170.645V147.332H533.815V145.576Z" fill="#838383" fill-opacity="0.65"/>
<path opacity="0.5" d="M533.815 180.799H-170.645V182.556H533.815V180.799Z" fill="#838383" fill-opacity="0.65"/>
<path opacity="0.2" d="M533.815 216.021H-170.645V217.778H533.815V216.021Z" fill="#838383" fill-opacity="0.65"/>
<path opacity="0.2" d="M533.815 251.245H-170.645V253.001H533.815V251.245Z" fill="#838383" fill-opacity="0.65"/>
<path opacity="0.2" d="M533.815 286.468H-170.645V288.225H533.815V286.468Z" fill="#838383" fill-opacity="0.65"/>
<path opacity="0.2" d="M533.815 321.69H-170.645V323.447H533.815V321.69Z" fill="#838383" fill-opacity="0.65"/>
<path opacity="0.5" d="M533.815 356.914H-170.645V358.67H533.815V356.914Z" fill="#838383" fill-opacity="0.65"/>
<path opacity="0.2" d="M533.815 392.137H-170.645V393.893H533.815V392.137Z" fill="#838383" fill-opacity="0.65"/>
<path opacity="0.2" d="M533.815 427.359H-170.645V429.116H533.815V427.359Z" fill="#838383" fill-opacity="0.65"/>
<path opacity="0.2" d="M533.815 462.583H-170.645V464.339H533.815V462.583Z" fill="#838383" fill-opacity="0.65"/>
<path opacity="0.2" d="M533.815 497.806H-170.645V499.562H533.815V497.806Z" fill="#838383" fill-opacity="0.65"/>
<path opacity="0.5" d="M533.815 533.028H-170.645V534.785H533.815V533.028Z" fill="#838383" fill-opacity="0.65"/>
<path opacity="0.2" d="M533.815 568.251H-170.645V570.008H533.815V568.251Z" fill="#838383" fill-opacity="0.65"/>
<path opacity="0.2" d="M533.815 603.475H-170.645V605.231H533.815V603.475Z" fill="#838383" fill-opacity="0.65"/>
<path opacity="0.2" d="M533.815 638.697H-170.645V640.454H533.815V638.697Z" fill="#838383" fill-opacity="0.65"/>
<path opacity="0.2" d="M533.815 673.92H-170.645V675.677H533.815V673.92Z" fill="#838383" fill-opacity="0.65"/>
<path d="M533.815 0.291992H532.059V12.5893H533.815V0.291992Z" fill="#838383" fill-opacity="0.65"/>
<path d="M539.086 5.56226H526.789V7.31901H539.086V5.56226Z" fill="#838383" fill-opacity="0.65"/>
<path d="M533.815 175.968H532.059V188.265H533.815V175.968Z" fill="#838383" fill-opacity="0.65"/>
<path d="M539.086 181.238H526.789V182.995H539.086V181.238Z" fill="#838383" fill-opacity="0.65"/>
<path d="M533.815 351.644H532.059V363.941H533.815V351.644Z" fill="#838383" fill-opacity="0.65"/>
<path d="M539.086 356.914H526.789V358.671H539.086V356.914Z" fill="#838383" fill-opacity="0.65"/>
<path d="M533.815 527.319H532.059V539.616H533.815V527.319Z" fill="#838383" fill-opacity="0.65"/>
<path d="M539.086 532.589H526.789V534.346H539.086V532.589Z" fill="#838383" fill-opacity="0.65"/>
<path d="M6.78801 0.291992H5.03125V12.5893H6.78801V0.291992Z" fill="#838383" fill-opacity="0.65"/>
<path d="M12.059 5.56226H-0.238281V7.31901H12.059V5.56226Z" fill="#838383" fill-opacity="0.65"/>
<path d="M6.78801 175.968H5.03125V188.265H6.78801V175.968Z" fill="#838383" fill-opacity="0.65"/>
<path d="M12.059 181.238H-0.238281V182.995H12.059V181.238Z" fill="#838383" fill-opacity="0.65"/>
<path d="M6.78801 351.644H5.03125V363.941H6.78801V351.644Z" fill="#838383" fill-opacity="0.65"/>
<path d="M12.059 356.914H-0.238281V358.671H12.059V356.914Z" fill="#838383" fill-opacity="0.65"/>
<path d="M6.78801 527.319H5.03125V539.616H6.78801V527.319Z" fill="#838383" fill-opacity="0.65"/>
<path d="M12.059 532.589H-0.238281V534.346H12.059V532.589Z" fill="#838383" fill-opacity="0.65"/>
<path d="M182.464 0.291992H180.707V12.5893H182.464V0.291992Z" fill="#838383" fill-opacity="0.65"/>
<path d="M187.735 5.56226H175.438V7.31901H187.735V5.56226Z" fill="#838383" fill-opacity="0.65"/>
<path d="M182.464 175.968H180.707V188.265H182.464V175.968Z" fill="#838383" fill-opacity="0.65"/>
<path d="M187.735 181.238H175.438V182.995H187.735V181.238Z" fill="#838383" fill-opacity="0.65"/>
<path d="M182.464 351.644H180.707V363.941H182.464V351.644Z" fill="#838383" fill-opacity="0.65"/>
<path d="M187.735 356.914H175.438V358.671H187.735V356.914Z" fill="#838383" fill-opacity="0.65"/>
<path d="M182.464 527.319H180.707V539.616H182.464V527.319Z" fill="#838383" fill-opacity="0.65"/>
<path d="M187.735 532.589H175.438V534.346H187.735V532.589Z" fill="#838383" fill-opacity="0.65"/>
<path d="M358.14 0.291992H356.383V12.5893H358.14V0.291992Z" fill="#838383" fill-opacity="0.65"/>
<path d="M363.411 5.56226H351.113V7.31901H363.411V5.56226Z" fill="#838383" fill-opacity="0.65"/>
<path d="M358.14 175.968H356.383V188.265H358.14V175.968Z" fill="#838383" fill-opacity="0.65"/>
<path d="M363.411 181.238H351.113V182.995H363.411V181.238Z" fill="#838383" fill-opacity="0.65"/>
<path d="M358.14 351.644H356.383V363.941H358.14V351.644Z" fill="#838383" fill-opacity="0.65"/>
<path d="M363.411 356.914H351.113V358.671H363.411V356.914Z" fill="#838383" fill-opacity="0.65"/>
<path d="M358.14 527.319H356.383V539.616H358.14V527.319Z" fill="#838383" fill-opacity="0.65"/>
<path d="M363.411 532.589H351.113V534.346H363.411V532.589Z" fill="#838383" fill-opacity="0.65"/>
<path d="M94.6239 93.3999H92.8672V95.1567H94.6239V93.3999Z" fill="#838383" fill-opacity="0.65"/>
<path d="M270.304 93.3999H268.547V95.1567H270.304V93.3999Z" fill="#838383" fill-opacity="0.65"/>
<path d="M445.976 93.3999H444.219V95.1567H445.976V93.3999Z" fill="#838383" fill-opacity="0.65"/>
<path d="M94.6239 269.076H92.8672V270.832H94.6239V269.076Z" fill="#838383" fill-opacity="0.65"/>
<path d="M270.304 269.076H268.547V270.832H270.304V269.076Z" fill="#838383" fill-opacity="0.65"/>
<path d="M445.976 269.076H444.219V270.832H445.976V269.076Z" fill="#838383" fill-opacity="0.65"/>
<path d="M94.6239 444.751H92.8672V446.508H94.6239V444.751Z" fill="#838383" fill-opacity="0.65"/>
<path d="M270.304 444.751H268.547V446.508H270.304V444.751Z" fill="#838383" fill-opacity="0.65"/>
<path d="M445.976 444.751H444.219V446.508H445.976V444.751Z" fill="#838383" fill-opacity="0.65"/>
<path d="M94.6239 620.427H92.8672V622.184H94.6239V620.427Z" fill="#838383" fill-opacity="0.65"/>
<path d="M270.304 620.427H268.547V622.184H270.304V620.427Z" fill="#838383" fill-opacity="0.65"/>
<path d="M445.976 620.427H444.219V622.184H445.976V620.427Z" fill="#838383" fill-opacity="0.65"/>
</g>
</g>
<defs>
<clipPath id="clip0_0_333">
<rect width="2121" height="675" fill="white" transform="translate(0 0.291992)"/>
</clipPath>
<clipPath id="clip1_0_333">
<rect width="539" height="715" fill="white" transform="translate(1582 0.291992)"/>
</clipPath>
<clipPath id="clip2_0_333">
<rect width="539" height="715" fill="white" transform="translate(1054 0.291992)"/>
</clipPath>
<clipPath id="clip3_0_333">
<rect width="539" height="715" fill="white" transform="translate(527 0.291992)"/>
</clipPath>
<clipPath id="clip4_0_333">
<rect width="539" height="715" fill="white" transform="translate(0 0.291992)"/>
</clipPath>
</defs>
</svg>
