<svg width="430" height="40" viewBox="0 0 430 40" fill="none" xmlns="http://www.w3.org/2000/svg">
<path d="M33.6582 0C14.5807 3.03917 0 19.5669 0 39.5V0H33.6582ZM430 39.5C430 19.567 415.42 3.03936 396.343 0H430V39.5ZM323.108 0.21582C321.211 0.675751 319.668 2.0734 319.002 3.90039C318.969 3.99073 318.954 4.08452 318.954 4.18066L318.961 8C318.961 20.7025 308.663 31 295.961 31H133.039C120.337 31 110.039 20.7025 110.039 7.96094L110.046 4.18066C110.046 4.08559 110.038 3.98958 110.005 3.90039C109.334 2.08648 107.779 0.673542 105.892 0.21582L105 0H324L323.108 0.21582Z" fill="black"/>
</svg>
