<svg width="18" height="14" viewBox="0 0 18 14" fill="none" xmlns="http://www.w3.org/2000/svg">
<path fill-rule="evenodd" clip-rule="evenodd" d="M0.199997 1.63209C0.199997 1.42204 0.283439 1.22059 0.431968 1.07206C0.580497 0.92353 0.781945 0.840088 0.991997 0.840088H16.304C16.514 0.840088 16.7155 0.92353 16.864 1.07206C17.0126 1.22059 17.096 1.42204 17.096 1.63209C17.096 1.84214 17.0126 2.04359 16.864 2.19212C16.7155 2.34065 16.514 2.42409 16.304 2.42409H0.991997C0.781945 2.42409 0.580497 2.34065 0.431968 2.19212C0.283439 2.04359 0.199997 1.84214 0.199997 1.63209ZM0.199997 7.17609C0.199997 6.96604 0.283439 6.76459 0.431968 6.61606C0.580497 6.46753 0.781945 6.38409 0.991997 6.38409H16.304C16.514 6.38409 16.7155 6.46753 16.864 6.61606C17.0126 6.76459 17.096 6.96604 17.096 7.17609C17.096 7.38614 17.0126 7.58759 16.864 7.73612C16.7155 7.88464 16.514 7.96809 16.304 7.96809H0.991997C0.781945 7.96809 0.580497 7.88464 0.431968 7.73612C0.283439 7.58759 0.199997 7.38614 0.199997 7.17609ZM0.199997 12.7201C0.199997 12.51 0.283439 12.3086 0.431968 12.1601C0.580497 12.0115 0.781945 11.9281 0.991997 11.9281H16.304C16.514 11.9281 16.7155 12.0115 16.864 12.1601C17.0126 12.3086 17.096 12.51 17.096 12.7201C17.096 12.9301 17.0126 13.1316 16.864 13.2801C16.7155 13.4286 16.514 13.5121 16.304 13.5121H0.991997C0.781945 13.5121 0.580497 13.4286 0.431968 13.2801C0.283439 13.1316 0.199997 12.9301 0.199997 12.7201Z" fill="black"/>
</svg>
